<svg width="1252" height="668" viewBox="0 0 1252 668" fill="none" xmlns="http://www.w3.org/2000/svg">
<rect x="36.2285" width="1.22027" height="668" fill="#D0D5DF" fill-opacity="0.5"/>
<rect x="126.485" width="1.22027" height="668" fill="#D0D5DF" fill-opacity="0.5"/>
<rect x="216.743" width="1.22027" height="668" fill="#D0D5DF" fill-opacity="0.5"/>
<rect x="307" width="1.22027" height="668" fill="#D0D5DF" fill-opacity="0.5"/>
<rect x="397.257" width="1.22027" height="668" fill="#D0D5DF" fill-opacity="0.5"/>
<rect x="487.515" width="1.22027" height="668" fill="#D0D5DF" fill-opacity="0.5"/>
<rect x="577.771" width="1.22027" height="668" fill="#D0D5DF" fill-opacity="0.5"/>
<rect x="668.028" width="1.22027" height="668" fill="#D0D5DF" fill-opacity="0.5"/>
<rect x="758.286" width="1.22027" height="668" fill="#D0D5DF" fill-opacity="0.5"/>
<rect x="848.543" width="1.22027" height="668" fill="#D0D5DF" fill-opacity="0.5"/>
<rect x="938.8" width="1.22027" height="668" fill="#D0D5DF" fill-opacity="0.5"/>
<rect x="1029.06" width="1.22027" height="668" fill="#D0D5DF" fill-opacity="0.5"/>
<rect x="1119.31" width="1.22027" height="668" fill="#D0D5DF" fill-opacity="0.5"/>
<rect x="1209.57" width="1.22027" height="668" fill="#D0D5DF" fill-opacity="0.5"/>
<rect x="1252" y="16.1848" width="1.13821" height="1252" transform="rotate(90 1252 16.1848)" fill="#D0D5DF" fill-opacity="0.5"/>
<rect x="1252" y="46.3989" width="1.13821" height="1252" transform="rotate(90 1252 46.3989)" fill="#D0D5DF" fill-opacity="0.5"/>
<rect x="1252" y="76.6125" width="1.13821" height="1252" transform="rotate(90 1252 76.6125)" fill="#D0D5DF" fill-opacity="0.5"/>
<rect x="1252" y="106.827" width="1.13821" height="1252" transform="rotate(90 1252 106.827)" fill="#D0D5DF" fill-opacity="0.5"/>
<rect x="1252" y="137.04" width="1.13821" height="1252" transform="rotate(90 1252 137.04)" fill="#D0D5DF" fill-opacity="0.5"/>
<rect x="1252" y="167.254" width="1.13821" height="1252" transform="rotate(90 1252 167.254)" fill="#D0D5DF" fill-opacity="0.5"/>
<rect x="1252" y="197.468" width="1.13821" height="1252" transform="rotate(90 1252 197.468)" fill="#D0D5DF" fill-opacity="0.5"/>
<rect x="1252" y="227.682" width="1.13821" height="1252" transform="rotate(90 1252 227.682)" fill="#D0D5DF" fill-opacity="0.5"/>
<rect x="1252" y="257.896" width="1.13821" height="1252" transform="rotate(90 1252 257.896)" fill="#D0D5DF" fill-opacity="0.5"/>
<rect x="1252" y="288.11" width="1.13821" height="1252" transform="rotate(90 1252 288.11)" fill="#D0D5DF" fill-opacity="0.5"/>
<rect x="1252" y="318.324" width="1.13821" height="1252" transform="rotate(90 1252 318.324)" fill="#D0D5DF" fill-opacity="0.5"/>
<rect x="1252" y="348.538" width="1.13821" height="1252" transform="rotate(90 1252 348.538)" fill="#D0D5DF" fill-opacity="0.5"/>
<rect x="1252" y="378.751" width="1.13821" height="1252" transform="rotate(90 1252 378.751)" fill="#D0D5DF" fill-opacity="0.5"/>
<rect x="1252" y="408.965" width="1.13821" height="1252" transform="rotate(90 1252 408.965)" fill="#D0D5DF" fill-opacity="0.5"/>
<rect x="1252" y="439.179" width="1.13821" height="1252" transform="rotate(90 1252 439.179)" fill="#D0D5DF" fill-opacity="0.5"/>
<rect x="1252" y="469.393" width="1.13821" height="1252" transform="rotate(90 1252 469.393)" fill="#D0D5DF" fill-opacity="0.5"/>
<rect x="1252" y="499.607" width="1.13821" height="1252" transform="rotate(90 1252 499.607)" fill="#D0D5DF" fill-opacity="0.5"/>
<rect x="1252" y="529.821" width="1.13821" height="1252" transform="rotate(90 1252 529.821)" fill="#D0D5DF" fill-opacity="0.5"/>
<rect x="1252" y="560.034" width="1.13821" height="1252" transform="rotate(90 1252 560.034)" fill="#D0D5DF" fill-opacity="0.5"/>
<rect x="1252" y="590.248" width="1.13821" height="1252" transform="rotate(90 1252 590.248)" fill="#D0D5DF" fill-opacity="0.5"/>
<rect x="1252" y="620.462" width="1.13821" height="1252" transform="rotate(90 1252 620.462)" fill="#D0D5DF" fill-opacity="0.5"/>
<rect x="1252" y="650.676" width="1.13821" height="1252" transform="rotate(90 1252 650.676)" fill="#D0D5DF" fill-opacity="0.5"/>
</svg>
