<svg width="350" height="419" viewBox="0 0 350 419" fill="none" xmlns="http://www.w3.org/2000/svg">
<rect x="0.5" y="0.5" width="349" height="352" rx="11.5" fill="white"/>
<rect x="0.5" y="0.5" width="349" height="352" rx="11.5" stroke="#E6E7EA"/>
<path d="M32.37 23.6364C32.37 24.5767 32.1939 25.3821 31.8416 26.0526C31.4922 26.7202 31.0149 27.2315 30.4098 27.5866C29.8075 27.9418 29.1243 28.1193 28.3601 28.1193C27.5959 28.1193 26.9112 27.9418 26.3061 27.5866C25.7038 27.2287 25.2266 26.7159 24.8743 26.0483C24.5249 25.3778 24.3501 24.5739 24.3501 23.6364C24.3501 22.696 24.5249 21.892 24.8743 21.2244C25.2266 20.554 25.7038 20.0412 26.3061 19.6861C26.9112 19.331 27.5959 19.1534 28.3601 19.1534C29.1243 19.1534 29.8075 19.331 30.4098 19.6861C31.0149 20.0412 31.4922 20.554 31.8416 21.2244C32.1939 21.892 32.37 22.696 32.37 23.6364ZM30.7805 23.6364C30.7805 22.9744 30.6768 22.4162 30.4695 21.9616C30.2649 21.5043 29.9808 21.1591 29.6172 20.9261C29.2536 20.6903 28.8345 20.5724 28.3601 20.5724C27.8857 20.5724 27.4666 20.6903 27.103 20.9261C26.7393 21.1591 26.4538 21.5043 26.2464 21.9616C26.0419 22.4162 25.9396 22.9744 25.9396 23.6364C25.9396 24.2983 26.0419 24.858 26.2464 25.3153C26.4538 25.7699 26.7393 26.1151 27.103 26.3509C27.4666 26.5838 27.8857 26.7003 28.3601 26.7003C28.8345 26.7003 29.2536 26.5838 29.6172 26.3509C29.9808 26.1151 30.2649 25.7699 30.4695 25.3153C30.6768 24.858 30.7805 24.2983 30.7805 23.6364ZM33.8647 28V19.2727H35.4073V22.5369H35.4712C35.5508 22.3778 35.663 22.2088 35.8079 22.0298C35.9528 21.848 36.1488 21.6932 36.396 21.5653C36.6431 21.4347 36.9585 21.3693 37.342 21.3693C37.8477 21.3693 38.3036 21.4986 38.7099 21.7571C39.119 22.0128 39.4428 22.392 39.6815 22.8949C39.9229 23.3949 40.0437 24.0085 40.0437 24.7358C40.0437 25.4545 39.9258 26.0653 39.69 26.5682C39.4542 27.071 39.1332 27.4545 38.7269 27.7188C38.3207 27.983 37.8604 28.1151 37.3462 28.1151C36.9712 28.1151 36.6602 28.0526 36.413 27.9276C36.1658 27.8026 35.967 27.652 35.8164 27.4759C35.6687 27.2969 35.5536 27.1278 35.4712 26.9688H35.3817V28H33.8647ZM35.3775 24.7273C35.3775 25.1506 35.4371 25.5213 35.5565 25.8395C35.6786 26.1577 35.8533 26.4062 36.0806 26.5852C36.3107 26.7614 36.5891 26.8494 36.9158 26.8494C37.2567 26.8494 37.5423 26.7585 37.7724 26.5767C38.0025 26.392 38.1758 26.1406 38.2923 25.8224C38.4116 25.5014 38.4712 25.1364 38.4712 24.7273C38.4712 24.321 38.413 23.9602 38.2965 23.6449C38.18 23.3295 38.0067 23.0824 37.7766 22.9034C37.5465 22.7244 37.2596 22.6349 36.9158 22.6349C36.5863 22.6349 36.3065 22.7216 36.0763 22.8949C35.8462 23.0682 35.6715 23.3111 35.5522 23.6236C35.4357 23.9361 35.3775 24.304 35.3775 24.7273ZM41.3551 21.4545H42.8977V28.375C42.8977 28.8466 42.8082 29.2358 42.6293 29.5426C42.4503 29.8494 42.1918 30.0781 41.8537 30.2287C41.5156 30.3793 41.1051 30.4545 40.6222 30.4545C40.5653 30.4545 40.5128 30.4531 40.4645 30.4503C40.4162 30.4503 40.3636 30.4489 40.3068 30.446V29.1889C40.3494 29.1918 40.3878 29.1932 40.4219 29.1932C40.456 29.196 40.4915 29.1974 40.5284 29.1974C40.8239 29.1974 41.0355 29.125 41.1634 28.9801C41.2912 28.8381 41.3551 28.6293 41.3551 28.3537V21.4545ZM42.1222 20.5256C41.875 20.5256 41.6634 20.4446 41.4872 20.2827C41.3139 20.1179 41.2273 19.9205 41.2273 19.6903C41.2273 19.4574 41.3139 19.2599 41.4872 19.098C41.6634 18.9332 41.875 18.8509 42.1222 18.8509C42.3665 18.8509 42.5753 18.9332 42.7486 19.098C42.9247 19.2599 43.0128 19.4574 43.0128 19.6903C43.0128 19.9205 42.9247 20.1179 42.7486 20.2827C42.5753 20.4446 42.3665 20.5256 42.1222 20.5256ZM47.3817 28.1278C46.7255 28.1278 46.1587 27.9915 45.6815 27.7188C45.207 27.4432 44.842 27.054 44.5863 26.5511C44.3306 26.0455 44.2028 25.4503 44.2028 24.7656C44.2028 24.0923 44.3306 23.5014 44.5863 22.9929C44.8448 22.4815 45.2056 22.0838 45.6687 21.7997C46.1317 21.5128 46.6758 21.3693 47.3008 21.3693C47.7042 21.3693 48.0849 21.4347 48.4428 21.5653C48.8036 21.6932 49.1218 21.892 49.3974 22.1619C49.6758 22.4318 49.8945 22.7756 50.0536 23.1932C50.2127 23.608 50.2923 24.1023 50.2923 24.6761V25.1491H44.9272V24.1094H48.8136C48.8107 23.8139 48.7468 23.5511 48.6218 23.321C48.4968 23.0881 48.3221 22.9048 48.0977 22.7713C47.8761 22.6378 47.6175 22.571 47.3221 22.571C47.0067 22.571 46.7298 22.6477 46.4911 22.8011C46.2525 22.9517 46.0664 23.1506 45.9329 23.3977C45.8022 23.642 45.7354 23.9105 45.7326 24.2031V25.1108C45.7326 25.4915 45.8022 25.8182 45.9414 26.0909C46.0806 26.3608 46.2752 26.5682 46.5252 26.7131C46.7752 26.8551 47.0678 26.9261 47.4031 26.9261C47.6275 26.9261 47.8306 26.8949 48.0124 26.8324C48.1942 26.767 48.3519 26.6719 48.4854 26.5469C48.619 26.4219 48.7198 26.267 48.788 26.0824L50.2283 26.2443C50.1374 26.625 49.9641 26.9574 49.7085 27.2415C49.4556 27.5227 49.1317 27.7415 48.7369 27.8977C48.342 28.0511 47.8903 28.1278 47.3817 28.1278ZM54.4524 28.1278C53.799 28.1278 53.2379 27.9844 52.7692 27.6974C52.3033 27.4105 51.9439 27.0142 51.6911 26.5085C51.4411 26 51.3161 25.4148 51.3161 24.7528C51.3161 24.0881 51.4439 23.5014 51.6996 22.9929C51.9553 22.4815 52.3161 22.0838 52.782 21.7997C53.2507 21.5128 53.8047 21.3693 54.4439 21.3693C54.9751 21.3693 55.4453 21.4673 55.8544 21.6634C56.2663 21.8565 56.5945 22.1307 56.8388 22.4858C57.0831 22.8381 57.2223 23.25 57.2564 23.7216H55.782C55.7223 23.4062 55.5803 23.1435 55.3558 22.9332C55.1342 22.7202 54.8374 22.6136 54.4652 22.6136C54.1499 22.6136 53.8729 22.6989 53.6342 22.8693C53.3956 23.0369 53.2095 23.2784 53.076 23.5938C52.9453 23.9091 52.88 24.2869 52.88 24.7273C52.88 25.1733 52.9453 25.5568 53.076 25.8778C53.2067 26.196 53.3899 26.4418 53.6257 26.6151C53.8643 26.7855 54.1442 26.8707 54.4652 26.8707C54.6925 26.8707 54.8956 26.8281 55.0746 26.7429C55.2564 26.6548 55.4084 26.5284 55.5305 26.3636C55.6527 26.1989 55.7365 25.9986 55.782 25.7628H57.2564C57.2195 26.2259 57.0831 26.6364 56.8473 26.9943C56.6115 27.3494 56.2905 27.6278 55.8842 27.8295C55.478 28.0284 55.0007 28.1278 54.4524 28.1278ZM61.7915 21.4545V22.6477H58.0288V21.4545H61.7915ZM58.9577 19.8864H60.5004V26.0312C60.5004 26.2386 60.5316 26.3977 60.5941 26.5085C60.6594 26.6165 60.7447 26.6903 60.8498 26.7301C60.9549 26.7699 61.0714 26.7898 61.1992 26.7898C61.2958 26.7898 61.3839 26.7827 61.4634 26.7685C61.5458 26.7543 61.6083 26.7415 61.6509 26.7301L61.9109 27.9361C61.8285 27.9645 61.7106 27.9957 61.5572 28.0298C61.4066 28.0639 61.2219 28.0838 61.0032 28.0895C60.6168 28.1009 60.2688 28.0426 59.9592 27.9148C59.6495 27.7841 59.4038 27.5824 59.2219 27.3097C59.043 27.0369 58.9549 26.696 58.9577 26.2869V19.8864Z" fill="black"/>
<rect x="24" y="39.5" width="301" height="78" rx="11.5" fill="white"/>
<rect x="24" y="39.5" width="301" height="78" rx="11.5" stroke="#E6E7EA"/>
<rect x="35.5" y="51.5" width="20" height="20" rx="4" fill="#2268DF"/>
<path d="M43.12 56.5H42.17C41.075 56.5 40.5 57.075 40.5 58.165V59.115C40.5 60.205 41.075 60.78 42.165 60.78H43.115C44.205 60.78 44.78 60.205 44.78 59.115V58.165C44.785 57.075 44.21 56.5 43.12 56.5Z" fill="white"/>
<path d="M48.8352 56.5H47.8852C46.7952 56.5 46.2202 57.075 46.2202 58.165V59.115C46.2202 60.205 46.7952 60.78 47.8852 60.78H48.8352C49.9252 60.78 50.5002 60.205 50.5002 59.115V58.165C50.5002 57.075 49.9252 56.5 48.8352 56.5Z" fill="white"/>
<path d="M48.8352 62.2151H47.8852C46.7952 62.2151 46.2202 62.7901 46.2202 63.8801V64.8301C46.2202 65.9201 46.7952 66.4951 47.8852 66.4951H48.8352C49.9252 66.4951 50.5002 65.9201 50.5002 64.8301V63.8801C50.5002 62.7901 49.9252 62.2151 48.8352 62.2151Z" fill="white"/>
<path d="M43.12 62.2151H42.17C41.075 62.2151 40.5 62.7901 40.5 63.8801V64.8301C40.5 65.9251 41.075 66.5001 42.165 66.5001H43.115C44.205 66.5001 44.78 65.9251 44.78 64.8351V63.8851C44.785 62.7901 44.21 62.2151 43.12 62.2151Z" fill="white"/>
<path d="M67.0435 67L64.1699 56.8182H66.1536L67.9881 64.3004H68.0826L70.0414 56.8182H71.8461L73.8098 64.3054H73.8993L75.7338 56.8182H77.7175L74.8439 67H73.0243L70.986 59.8558H70.9064L68.8631 67H67.0435ZM81.4686 67.1491C80.7228 67.1491 80.0765 66.9851 79.5297 66.657C78.9828 66.3288 78.5585 65.8698 78.2569 65.2798C77.9586 64.6899 77.8095 64.0005 77.8095 63.2116C77.8095 62.4228 77.9586 61.7318 78.2569 61.1385C78.5585 60.5452 78.9828 60.0845 79.5297 59.7564C80.0765 59.4283 80.7228 59.2642 81.4686 59.2642C82.2143 59.2642 82.8606 59.4283 83.4075 59.7564C83.9544 60.0845 84.377 60.5452 84.6752 61.1385C84.9769 61.7318 85.1277 62.4228 85.1277 63.2116C85.1277 64.0005 84.9769 64.6899 84.6752 65.2798C84.377 65.8698 83.9544 66.3288 83.4075 66.657C82.8606 66.9851 82.2143 67.1491 81.4686 67.1491ZM81.4785 65.7074C81.8829 65.7074 82.2209 65.5964 82.4927 65.3743C82.7645 65.1489 82.9667 64.8473 83.0993 64.4695C83.2351 64.0916 83.3031 63.6707 83.3031 63.2067C83.3031 62.7393 83.2351 62.3168 83.0993 61.9389C82.9667 61.5578 82.7645 61.2545 82.4927 61.0291C82.2209 60.8037 81.8829 60.6911 81.4785 60.6911C81.0642 60.6911 80.7195 60.8037 80.4444 61.0291C80.1726 61.2545 79.9688 61.5578 79.8329 61.9389C79.7003 62.3168 79.6341 62.7393 79.6341 63.2067C79.6341 63.6707 79.7003 64.0916 79.8329 64.4695C79.9688 64.8473 80.1726 65.1489 80.4444 65.3743C80.7195 65.5964 81.0642 65.7074 81.4785 65.7074ZM86.6552 67V59.3636H88.4002V60.6364H88.4798C88.619 60.1955 88.8576 59.8558 89.1957 59.6172C89.5371 59.3752 89.9265 59.2543 90.364 59.2543C90.4634 59.2543 90.5745 59.2592 90.6971 59.2692C90.823 59.2758 90.9274 59.2874 91.0103 59.304V60.9595C90.9341 60.933 90.8131 60.9098 90.6474 60.8899C90.485 60.8667 90.3275 60.8551 90.1751 60.8551C89.8469 60.8551 89.552 60.9264 89.2901 61.0689C89.0316 61.2081 88.8278 61.402 88.6786 61.6506C88.5295 61.8991 88.4549 62.1858 88.4549 62.5107V67H86.6552ZM93.8466 64.6037L93.8416 62.4311H94.13L96.8743 59.3636H98.9773L95.6016 63.1222H95.2287L93.8466 64.6037ZM92.206 67V56.8182H94.0057V67H92.206ZM96.9986 67L94.5128 63.5249L95.7259 62.2571L99.1513 67H96.9986ZM106.212 61.3821L104.572 61.5611C104.525 61.3954 104.444 61.2396 104.328 61.0938C104.215 60.9479 104.063 60.8303 103.871 60.7408C103.678 60.6513 103.443 60.6065 103.165 60.6065C102.79 60.6065 102.475 60.6877 102.22 60.8501C101.968 61.0125 101.844 61.223 101.847 61.4815C101.844 61.7036 101.925 61.8842 102.091 62.0234C102.26 62.1626 102.538 62.277 102.926 62.3665L104.229 62.6449C104.951 62.8007 105.488 63.0476 105.839 63.3857C106.194 63.7237 106.373 64.1662 106.376 64.7131C106.373 65.1937 106.232 65.6179 105.954 65.9858C105.679 66.3504 105.296 66.6354 104.805 66.8409C104.315 67.0464 103.751 67.1491 103.115 67.1491C102.18 67.1491 101.428 66.9536 100.858 66.5625C100.288 66.1681 99.948 65.6196 99.8386 64.9169L101.594 64.7479C101.673 65.0926 101.842 65.3527 102.101 65.5284C102.359 65.7041 102.696 65.7919 103.11 65.7919C103.537 65.7919 103.881 65.7041 104.139 65.5284C104.401 65.3527 104.532 65.1357 104.532 64.8771C104.532 64.6584 104.447 64.4777 104.278 64.3352C104.113 64.1927 103.854 64.0833 103.503 64.0071L102.2 63.7337C101.468 63.5812 100.926 63.3243 100.574 62.9631C100.223 62.5985 100.049 62.1378 100.052 61.581C100.049 61.1103 100.177 60.7027 100.435 60.358C100.697 60.0099 101.06 59.7415 101.524 59.5526C101.991 59.3603 102.53 59.2642 103.14 59.2642C104.035 59.2642 104.739 59.4548 105.253 59.8359C105.77 60.2171 106.09 60.7325 106.212 61.3821ZM107.86 69.8636V59.3636H109.63V60.6264H109.735C109.827 60.4408 109.958 60.2436 110.127 60.0348C110.296 59.8227 110.525 59.642 110.813 59.4929C111.102 59.3404 111.47 59.2642 111.917 59.2642C112.507 59.2642 113.039 59.415 113.513 59.7166C113.99 60.0149 114.368 60.4574 114.646 61.044C114.928 61.6274 115.069 62.3433 115.069 63.1918C115.069 64.0303 114.932 64.7429 114.656 65.3295C114.381 65.9162 114.007 66.3636 113.533 66.6719C113.059 66.9801 112.522 67.1342 111.922 67.1342C111.485 67.1342 111.122 67.0613 110.833 66.9155C110.545 66.7696 110.313 66.594 110.137 66.3885C109.965 66.1797 109.831 65.9825 109.735 65.7969H109.66V69.8636H107.86ZM109.625 63.1818C109.625 63.6757 109.695 64.1082 109.834 64.4794C109.977 64.8506 110.18 65.1406 110.445 65.3494C110.714 65.5549 111.039 65.6577 111.42 65.6577C111.818 65.6577 112.151 65.5516 112.419 65.3395C112.688 65.1241 112.89 64.8307 113.026 64.4595C113.165 64.085 113.235 63.6591 113.235 63.1818C113.235 62.7079 113.167 62.2869 113.031 61.919C112.895 61.5511 112.693 61.2628 112.424 61.054C112.156 60.8452 111.821 60.7408 111.42 60.7408C111.035 60.7408 110.709 60.8419 110.441 61.044C110.172 61.2462 109.968 61.5296 109.829 61.8942C109.693 62.2588 109.625 62.688 109.625 63.1818ZM118.808 67.1541C118.324 67.1541 117.888 67.0679 117.5 66.8956C117.116 66.7199 116.811 66.4614 116.585 66.12C116.363 65.7786 116.252 65.3577 116.252 64.8572C116.252 64.4264 116.332 64.0701 116.491 63.7884C116.65 63.5066 116.867 63.2812 117.142 63.1122C117.417 62.9432 117.727 62.8156 118.072 62.7294C118.42 62.6399 118.78 62.5753 119.151 62.5355C119.598 62.4891 119.961 62.4477 120.24 62.4112C120.518 62.3714 120.72 62.3118 120.846 62.2322C120.975 62.1494 121.04 62.0218 121.04 61.8494V61.8196C121.04 61.4451 120.929 61.1551 120.707 60.9496C120.485 60.7441 120.165 60.6413 119.747 60.6413C119.307 60.6413 118.957 60.7375 118.698 60.9297C118.443 61.1219 118.271 61.349 118.181 61.6108L116.501 61.3722C116.633 60.9081 116.852 60.5204 117.157 60.2088C117.462 59.8939 117.835 59.6586 118.276 59.5028C118.717 59.3438 119.204 59.2642 119.737 59.2642C120.105 59.2642 120.472 59.3073 120.836 59.3935C121.201 59.4796 121.534 59.6222 121.835 59.821C122.137 60.0166 122.379 60.2834 122.561 60.6214C122.747 60.9595 122.84 61.3821 122.84 61.8892V67H121.11V65.951H121.05C120.941 66.1631 120.786 66.362 120.588 66.5476C120.392 66.7299 120.145 66.8774 119.847 66.9901C119.552 67.0994 119.205 67.1541 118.808 67.1541ZM119.275 65.8317C119.636 65.8317 119.95 65.7604 120.215 65.6179C120.48 65.4721 120.684 65.2798 120.826 65.0412C120.972 64.8026 121.045 64.5424 121.045 64.2607V63.3608C120.989 63.4072 120.892 63.4503 120.757 63.4901C120.624 63.5298 120.475 63.5646 120.309 63.5945C120.143 63.6243 119.979 63.6508 119.817 63.674C119.655 63.6972 119.514 63.7171 119.394 63.7337C119.126 63.7701 118.886 63.8298 118.673 63.9126C118.461 63.9955 118.294 64.1115 118.171 64.2607C118.049 64.4065 117.987 64.5954 117.987 64.8274C117.987 65.1589 118.108 65.4091 118.35 65.5781C118.592 65.7472 118.901 65.8317 119.275 65.8317ZM127.98 67.1491C127.218 67.1491 126.563 66.9818 126.017 66.647C125.473 66.3123 125.054 65.8499 124.759 65.2599C124.467 64.6667 124.321 63.9839 124.321 63.2116C124.321 62.4361 124.47 61.7517 124.769 61.1584C125.067 60.5618 125.488 60.0978 126.031 59.7663C126.578 59.4316 127.225 59.2642 127.97 59.2642C128.59 59.2642 129.139 59.3786 129.616 59.6072C130.097 59.8326 130.479 60.1525 130.764 60.5668C131.049 60.9777 131.212 61.4583 131.252 62.0085H129.531C129.462 61.6406 129.296 61.334 129.034 61.0888C128.776 60.8402 128.429 60.7159 127.995 60.7159C127.627 60.7159 127.304 60.8153 127.026 61.0142C126.747 61.2098 126.53 61.4915 126.374 61.8594C126.222 62.2273 126.146 62.6681 126.146 63.1818C126.146 63.7022 126.222 64.1496 126.374 64.5241C126.527 64.8954 126.741 65.1821 127.016 65.3842C127.294 65.5831 127.621 65.6825 127.995 65.6825C128.26 65.6825 128.497 65.6328 128.706 65.5334C128.918 65.4306 129.096 65.2831 129.238 65.0909C129.381 64.8987 129.478 64.665 129.531 64.3899H131.252C131.209 64.9302 131.049 65.4091 130.774 65.8267C130.499 66.241 130.125 66.5658 129.651 66.8011C129.177 67.0331 128.62 67.1491 127.98 67.1491ZM136.11 67.1491C135.344 67.1491 134.683 66.9901 134.126 66.6719C133.573 66.3504 133.147 65.8963 132.849 65.3097C132.55 64.7197 132.401 64.0253 132.401 63.2266C132.401 62.4411 132.55 61.7517 132.849 61.1584C133.15 60.5618 133.571 60.0978 134.112 59.7663C134.652 59.4316 135.286 59.2642 136.016 59.2642C136.486 59.2642 136.93 59.3404 137.348 59.4929C137.769 59.642 138.14 59.8741 138.462 60.1889C138.786 60.5038 139.042 60.9048 139.227 61.392C139.413 61.8759 139.506 62.4527 139.506 63.1222V63.674H133.246V62.4609H137.781C137.777 62.1162 137.703 61.8097 137.557 61.5412C137.411 61.2694 137.207 61.0556 136.945 60.8999C136.687 60.7441 136.385 60.6662 136.04 60.6662C135.673 60.6662 135.349 60.7557 135.071 60.9347C134.793 61.1103 134.576 61.3423 134.42 61.6307C134.267 61.9157 134.189 62.2289 134.186 62.5703V63.6293C134.186 64.0734 134.267 64.4545 134.43 64.7727C134.592 65.0876 134.819 65.3295 135.111 65.4986C135.402 65.6643 135.744 65.7472 136.135 65.7472C136.397 65.7472 136.634 65.7107 136.846 65.6378C137.058 65.5616 137.242 65.4505 137.398 65.3047C137.554 65.1589 137.671 64.9782 137.751 64.7628L139.431 64.9517C139.325 65.3958 139.123 65.7836 138.825 66.1151C138.53 66.4432 138.152 66.6984 137.691 66.8807C137.23 67.0597 136.703 67.1491 136.11 67.1491Z" fill="black"/>
<rect x="259.5" y="52" width="54" height="19" rx="9.5" fill="#F3F3F3"/>
<path d="M274.442 60.1811H273.114C273.076 59.9633 273.007 59.7704 272.905 59.6023C272.803 59.4318 272.676 59.2874 272.525 59.169C272.373 59.0507 272.201 58.9619 272.006 58.9027C271.815 58.8411 271.607 58.8104 271.385 58.8104C270.99 58.8104 270.639 58.9098 270.334 59.1087C270.028 59.3052 269.789 59.594 269.616 59.9751C269.444 60.3539 269.357 60.8168 269.357 61.3636C269.357 61.92 269.444 62.3887 269.616 62.7699C269.792 63.1487 270.031 63.4351 270.334 63.6293C270.639 63.821 270.988 63.9169 271.381 63.9169C271.599 63.9169 271.803 63.8885 271.992 63.8317C272.184 63.7725 272.356 63.6861 272.507 63.5724C272.661 63.4588 272.79 63.3191 272.894 63.1534C273.001 62.9877 273.074 62.7983 273.114 62.5852L274.442 62.5923C274.393 62.938 274.285 63.2623 274.119 63.5653C273.956 63.8684 273.742 64.1359 273.477 64.3679C273.211 64.5975 272.901 64.7775 272.546 64.9077C272.191 65.0355 271.797 65.0994 271.364 65.0994C270.724 65.0994 270.154 64.9515 269.652 64.6555C269.15 64.3596 268.755 63.9323 268.466 63.3736C268.177 62.8149 268.033 62.1449 268.033 61.3636C268.033 60.58 268.178 59.91 268.469 59.3537C268.761 58.795 269.157 58.3677 269.659 58.0717C270.161 57.7758 270.729 57.6278 271.364 57.6278C271.768 57.6278 272.145 57.6847 272.493 57.7983C272.841 57.9119 273.151 58.0788 273.423 58.299C273.696 58.5168 273.919 58.7843 274.094 59.1016C274.272 59.4164 274.388 59.7763 274.442 60.1811ZM279.069 62.706V59.5455H280.354V65H279.108V64.0305H279.051C278.928 64.3359 278.725 64.5857 278.444 64.7798C278.164 64.974 277.82 65.071 277.41 65.071C277.053 65.071 276.737 64.9917 276.462 64.8331C276.19 64.6721 275.977 64.4389 275.823 64.1335C275.669 63.8258 275.592 63.4541 275.592 63.0185V59.5455H276.878V62.8196C276.878 63.1652 276.972 63.4399 277.162 63.6435C277.351 63.8471 277.6 63.9489 277.907 63.9489C278.097 63.9489 278.28 63.9027 278.458 63.8104C278.635 63.718 278.781 63.5807 278.895 63.3984C279.011 63.2138 279.069 62.983 279.069 62.706ZM285.987 60.9872L284.815 61.1151C284.782 60.9967 284.724 60.8854 284.641 60.7812C284.561 60.6771 284.452 60.593 284.315 60.5291C284.177 60.4652 284.009 60.4332 283.81 60.4332C283.543 60.4332 283.318 60.4912 283.136 60.6072C282.956 60.7232 282.867 60.8736 282.869 61.0582C282.867 61.2169 282.925 61.3459 283.043 61.4453C283.164 61.5447 283.363 61.6264 283.64 61.6903L284.57 61.8892C285.086 62.0005 285.47 62.1768 285.721 62.4183C285.974 62.6598 286.102 62.9759 286.104 63.3665C286.102 63.7098 286.001 64.0128 285.803 64.2756C285.606 64.536 285.333 64.7396 284.982 64.8864C284.632 65.0331 284.229 65.1065 283.775 65.1065C283.107 65.1065 282.57 64.9669 282.163 64.6875C281.755 64.4058 281.513 64.014 281.435 63.5121L282.688 63.3913C282.745 63.6375 282.866 63.8234 283.05 63.9489C283.235 64.0743 283.475 64.1371 283.771 64.1371C284.077 64.1371 284.322 64.0743 284.506 63.9489C284.693 63.8234 284.787 63.6683 284.787 63.4837C284.787 63.3274 284.727 63.1984 284.606 63.0966C284.487 62.9948 284.303 62.9167 284.052 62.8622L283.121 62.6669C282.598 62.558 282.211 62.3745 281.96 62.1165C281.709 61.8561 281.585 61.527 281.587 61.1293C281.585 60.7931 281.676 60.5019 281.861 60.2557C282.048 60.0071 282.307 59.8153 282.638 59.6804C282.972 59.5431 283.357 59.4744 283.793 59.4744C284.432 59.4744 284.935 59.6106 285.302 59.8828C285.671 60.1551 285.9 60.5232 285.987 60.9872ZM289.888 59.5455V60.5398H286.752V59.5455H289.888ZM287.527 58.2386H288.812V63.3594C288.812 63.5322 288.838 63.6648 288.89 63.7571C288.945 63.8471 289.016 63.9086 289.103 63.9418C289.191 63.9749 289.288 63.9915 289.395 63.9915C289.475 63.9915 289.548 63.9856 289.615 63.9737C289.683 63.9619 289.735 63.9512 289.771 63.9418L289.988 64.9467C289.919 64.9704 289.821 64.9964 289.693 65.0249C289.567 65.0533 289.413 65.0698 289.231 65.0746C288.909 65.084 288.619 65.0355 288.361 64.929C288.103 64.8201 287.898 64.652 287.747 64.4247C287.598 64.1974 287.524 63.9134 287.527 63.5724V58.2386ZM293.284 65.1065C292.751 65.1065 292.29 64.9893 291.899 64.755C291.508 64.5206 291.205 64.1927 290.99 63.7713C290.777 63.3499 290.67 62.8575 290.67 62.294C290.67 61.7306 290.777 61.237 290.99 60.8132C291.205 60.3894 291.508 60.0604 291.899 59.826C292.29 59.5916 292.751 59.4744 293.284 59.4744C293.817 59.4744 294.278 59.5916 294.669 59.826C295.059 60.0604 295.361 60.3894 295.574 60.8132C295.79 61.237 295.898 61.7306 295.898 62.294C295.898 62.8575 295.79 63.3499 295.574 63.7713C295.361 64.1927 295.059 64.5206 294.669 64.755C294.278 64.9893 293.817 65.1065 293.284 65.1065ZM293.291 64.0767C293.58 64.0767 293.821 63.9974 294.015 63.8388C294.21 63.6778 294.354 63.4624 294.449 63.1925C294.546 62.9226 294.594 62.6219 294.594 62.2905C294.594 61.9567 294.546 61.6548 294.449 61.3849C294.354 61.1127 294.21 60.8961 294.015 60.7351C293.821 60.5741 293.58 60.4936 293.291 60.4936C292.995 60.4936 292.749 60.5741 292.552 60.7351C292.358 60.8961 292.213 61.1127 292.116 61.3849C292.021 61.6548 291.974 61.9567 291.974 62.2905C291.974 62.6219 292.021 62.9226 292.116 63.1925C292.213 63.4624 292.358 63.6778 292.552 63.8388C292.749 63.9974 292.995 64.0767 293.291 64.0767ZM296.989 65V59.5455H298.217V60.4723H298.281C298.395 60.1598 298.583 59.916 298.846 59.7408C299.109 59.5632 299.422 59.4744 299.787 59.4744C300.156 59.4744 300.468 59.5644 300.721 59.7443C300.977 59.9219 301.156 60.1645 301.261 60.4723H301.317C301.438 60.1693 301.642 59.9278 301.928 59.7479C302.217 59.5656 302.559 59.4744 302.955 59.4744C303.456 59.4744 303.866 59.633 304.183 59.9503C304.5 60.2675 304.659 60.7304 304.659 61.3388V65H303.37V61.5376C303.37 61.1991 303.28 60.9517 303.1 60.7955C302.92 60.6368 302.7 60.5575 302.44 60.5575C302.129 60.5575 301.887 60.6546 301.712 60.8487C301.539 61.0405 301.452 61.2902 301.452 61.598V65H300.192V61.4844C300.192 61.2027 300.107 60.9777 299.936 60.8097C299.768 60.6416 299.548 60.5575 299.276 60.5575C299.091 60.5575 298.923 60.6049 298.771 60.6996C298.62 60.7919 298.499 60.9233 298.409 61.0938C298.319 61.2618 298.274 61.4583 298.274 61.6832V65H296.989Z" fill="#616566"/>
<line x1="35.5" y1="79.5" x2="313.5" y2="79.5" stroke="#E6E7EA"/>
<path d="M40.2882 92.2727V101H38.7072V93.8111H38.6561L36.6149 95.1151V93.6662L38.7839 92.2727H40.2882ZM43.8517 99.8068L43.7963 100.276C43.7566 100.634 43.6855 100.997 43.5833 101.366C43.4838 101.739 43.3787 102.081 43.2679 102.393C43.1571 102.706 43.0676 102.952 42.9995 103.131H41.9597C41.9995 102.957 42.0534 102.722 42.1216 102.423C42.1926 102.125 42.2608 101.79 42.3262 101.418C42.3915 101.045 42.4355 100.668 42.4583 100.284L42.4881 99.8068H43.8517ZM45.405 99.3807V98.1236L49.1081 92.2727H50.1564V94.0625H49.5172L47.0243 98.0128V98.081H52.1934V99.3807H45.405ZM49.5684 101V98.9972L49.5854 98.4347V92.2727H51.0769V101H49.5684ZM53.5549 101V99.858L56.5847 96.8878C56.8745 96.5952 57.1159 96.3352 57.3091 96.108C57.5023 95.8807 57.6472 95.6605 57.7438 95.4474C57.8404 95.2344 57.8887 95.0071 57.8887 94.7656C57.8887 94.4901 57.8262 94.2543 57.7012 94.0582C57.5762 93.8594 57.4043 93.706 57.1855 93.598C56.9668 93.4901 56.7182 93.4361 56.4398 93.4361C56.1529 93.4361 55.9015 93.4957 55.6855 93.6151C55.4696 93.7315 55.302 93.8977 55.1827 94.1136C55.0662 94.3295 55.008 94.5866 55.008 94.8849H53.5037C53.5037 94.331 53.6301 93.8494 53.883 93.4403C54.1358 93.0312 54.4838 92.7145 54.927 92.4901C55.373 92.2656 55.8844 92.1534 56.4611 92.1534C57.0463 92.1534 57.5605 92.2628 58.0037 92.4815C58.4469 92.7003 58.7907 93 59.035 93.3807C59.2821 93.7614 59.4057 94.196 59.4057 94.6847C59.4057 95.0114 59.3432 95.3324 59.2182 95.6477C59.0932 95.9631 58.873 96.3125 58.5577 96.696C58.2452 97.0795 57.8063 97.544 57.2409 98.0895L55.7367 99.6193V99.679H59.5378V101H53.5549ZM60.6628 99.3807V98.1236L64.3659 92.2727H65.4142V94.0625H64.775L62.2821 98.0128V98.081H67.4512V99.3807H60.6628ZM64.8262 101V98.9972L64.8432 98.4347V92.2727H66.3347V101H64.8262Z" fill="black"/>
<path d="M73.9334 101V92.2727H77.0442C77.7203 92.2727 78.2814 92.3892 78.7275 92.6222C79.1763 92.8551 79.5115 93.1776 79.7331 93.5895C79.9547 93.9986 80.0655 94.4716 80.0655 95.0085C80.0655 95.5426 79.9533 96.0128 79.7289 96.419C79.5073 96.8224 79.1721 97.1364 78.7232 97.3608C78.2772 97.5852 77.7161 97.6974 77.04 97.6974H74.6834V96.5639H76.9206C77.3468 96.5639 77.6934 96.5028 77.9604 96.3807C78.2303 96.2585 78.4277 96.081 78.5527 95.848C78.6777 95.6151 78.7402 95.3352 78.7402 95.0085C78.7402 94.679 78.6763 94.3935 78.5485 94.152C78.4235 93.9105 78.226 93.7259 77.9561 93.598C77.6891 93.4673 77.3382 93.402 76.9036 93.402H75.2502V101H73.9334ZM78.2417 97.0625L80.3979 101H78.8979L76.7843 97.0625H78.2417ZM84.3045 101.132C83.6596 101.132 83.1042 100.994 82.6383 100.719C82.1752 100.44 81.8173 100.05 81.5645 99.5469C81.3145 99.0412 81.1895 98.4489 81.1895 97.7699C81.1895 97.0994 81.3145 96.5085 81.5645 95.9972C81.8173 95.4858 82.1696 95.0866 82.6213 94.7997C83.0758 94.5128 83.6071 94.3693 84.215 94.3693C84.5843 94.3693 84.9423 94.4304 85.2889 94.5526C85.6355 94.6747 85.9466 94.8665 86.2221 95.1278C86.4977 95.3892 86.715 95.7287 86.8741 96.1463C87.0332 96.5611 87.1127 97.0653 87.1127 97.6591V98.1108H81.9096V97.1562H85.8642C85.8642 96.821 85.796 96.5241 85.6596 96.2656C85.5233 96.0043 85.3315 95.7983 85.0843 95.6477C84.84 95.4972 84.5531 95.4219 84.2235 95.4219C83.8656 95.4219 83.5531 95.5099 83.286 95.6861C83.0218 95.8594 82.8173 96.0866 82.6724 96.3679C82.5304 96.6463 82.4593 96.9489 82.4593 97.2756V98.0213C82.4593 98.4588 82.536 98.831 82.6895 99.1378C82.8457 99.4446 83.063 99.679 83.3414 99.8409C83.6199 100 83.9451 100.08 84.3173 100.08C84.5588 100.08 84.7789 100.045 84.9778 99.9773C85.1767 99.9062 85.3485 99.8011 85.4934 99.6619C85.6383 99.5227 85.7491 99.3509 85.8258 99.1463L87.0318 99.3636C86.9352 99.7187 86.7619 100.03 86.5119 100.297C86.2647 100.561 85.9537 100.767 85.5787 100.915C85.2065 101.06 84.7818 101.132 84.3045 101.132ZM91.2836 101.132C90.65 101.132 90.1046 100.989 89.6472 100.702C89.1926 100.412 88.8432 100.013 88.5989 99.5043C88.3546 98.9957 88.2324 98.4134 88.2324 97.7571C88.2324 97.0923 88.3574 96.5057 88.6074 95.9972C88.8574 95.4858 89.2097 95.0866 89.6642 94.7997C90.1188 94.5128 90.6543 94.3693 91.2708 94.3693C91.7679 94.3693 92.2111 94.4616 92.6003 94.6463C92.9895 94.8281 93.3034 95.0838 93.5421 95.4134C93.7836 95.7429 93.927 96.1278 93.9725 96.5682H92.7324C92.6642 96.2614 92.508 95.9972 92.2637 95.7756C92.0222 95.554 91.6983 95.4432 91.2921 95.4432C90.937 95.4432 90.6259 95.5369 90.3588 95.7244C90.0946 95.9091 89.8887 96.1733 89.7409 96.517C89.5932 96.858 89.5194 97.2614 89.5194 97.7273C89.5194 98.2045 89.5918 98.6165 89.7367 98.9631C89.8816 99.3097 90.0861 99.5781 90.3503 99.7685C90.6174 99.9588 90.9313 100.054 91.2921 100.054C91.5336 100.054 91.7523 100.01 91.9483 99.9219C92.1472 99.831 92.3134 99.7017 92.4469 99.5341C92.5833 99.3665 92.6784 99.1648 92.7324 98.929H93.9725C93.927 99.3523 93.7892 99.7301 93.5591 100.062C93.329 100.395 93.0208 100.656 92.6344 100.847C92.2509 101.037 91.8006 101.132 91.2836 101.132ZM98.0922 101.132C97.4785 101.132 96.943 100.991 96.4856 100.71C96.0282 100.429 95.6731 100.036 95.4203 99.5298C95.1674 99.0241 95.041 98.4332 95.041 97.7571C95.041 97.0781 95.1674 96.4844 95.4203 95.9759C95.6731 95.4673 96.0282 95.0724 96.4856 94.7912C96.943 94.5099 97.4785 94.3693 98.0922 94.3693C98.7058 94.3693 99.2413 94.5099 99.6987 94.7912C100.156 95.0724 100.511 95.4673 100.764 95.9759C101.017 96.4844 101.143 97.0781 101.143 97.7571C101.143 98.4332 101.017 99.0241 100.764 99.5298C100.511 100.036 100.156 100.429 99.6987 100.71C99.2413 100.991 98.7058 101.132 98.0922 101.132ZM98.0964 100.062C98.4941 100.062 98.8237 99.9574 99.085 99.7472C99.3464 99.5369 99.5396 99.2571 99.6646 98.9077C99.7924 98.5582 99.8564 98.1733 99.8564 97.7528C99.8564 97.3352 99.7924 96.9517 99.6646 96.6023C99.5396 96.25 99.3464 95.9673 99.085 95.7543C98.8237 95.5412 98.4941 95.4347 98.0964 95.4347C97.6958 95.4347 97.3635 95.5412 97.0993 95.7543C96.8379 95.9673 96.6433 96.25 96.5154 96.6023C96.3904 96.9517 96.3279 97.3352 96.3279 97.7528C96.3279 98.1733 96.3904 98.5582 96.5154 98.9077C96.6433 99.2571 96.8379 99.5369 97.0993 99.7472C97.3635 99.9574 97.6958 100.062 98.0964 100.062ZM102.566 101V94.4545H103.797V95.4943H103.865C103.985 95.142 104.195 94.8651 104.496 94.6634C104.8 94.4588 105.144 94.3565 105.527 94.3565C105.607 94.3565 105.7 94.3594 105.808 94.3651C105.919 94.3707 106.006 94.3778 106.068 94.3864V95.6051C106.017 95.5909 105.926 95.5753 105.796 95.5582C105.665 95.5384 105.534 95.5284 105.404 95.5284C105.102 95.5284 104.834 95.5923 104.598 95.7202C104.365 95.8452 104.181 96.0199 104.044 96.2443C103.908 96.4659 103.84 96.7187 103.84 97.0028V101H102.566ZM109.387 101.128C108.858 101.128 108.387 100.993 107.972 100.723C107.56 100.45 107.236 100.062 107.001 99.5597C106.768 99.054 106.651 98.4474 106.651 97.7401C106.651 97.0327 106.769 96.4276 107.005 95.9247C107.243 95.4219 107.57 95.0369 107.985 94.7699C108.4 94.5028 108.87 94.3693 109.395 94.3693C109.802 94.3693 110.128 94.4375 110.376 94.5739C110.626 94.7074 110.819 94.8636 110.955 95.0426C111.094 95.2216 111.202 95.3793 111.279 95.5156H111.356V92.2727H112.63V101H111.385V99.9815H111.279C111.202 100.121 111.091 100.28 110.947 100.459C110.805 100.638 110.608 100.794 110.358 100.928C110.108 101.061 109.785 101.128 109.387 101.128ZM109.668 100.041C110.035 100.041 110.344 99.9446 110.597 99.7514C110.853 99.5554 111.046 99.2841 111.177 98.9375C111.31 98.5909 111.377 98.1875 111.377 97.7273C111.377 97.2727 111.312 96.875 111.181 96.5341C111.05 96.1932 110.858 95.9276 110.606 95.7372C110.353 95.5469 110.04 95.4517 109.668 95.4517C109.285 95.4517 108.965 95.5511 108.709 95.75C108.454 95.9489 108.26 96.2202 108.13 96.5639C108.002 96.9077 107.938 97.2955 107.938 97.7273C107.938 98.1648 108.003 98.5582 108.134 98.9077C108.265 99.2571 108.458 99.5341 108.714 99.7386C108.972 99.9403 109.29 100.041 109.668 100.041ZM119.353 96.0526L118.198 96.2571C118.15 96.1094 118.073 95.9687 117.968 95.8352C117.866 95.7017 117.727 95.5923 117.551 95.5071C117.374 95.4219 117.154 95.3793 116.89 95.3793C116.529 95.3793 116.228 95.4602 115.987 95.6222C115.745 95.7812 115.624 95.9872 115.624 96.2401C115.624 96.4588 115.705 96.6349 115.867 96.7685C116.029 96.902 116.291 97.0114 116.651 97.0966L117.691 97.3352C118.294 97.4744 118.742 97.6889 119.038 97.9787C119.333 98.2685 119.481 98.6449 119.481 99.108C119.481 99.5 119.367 99.8494 119.14 100.156C118.916 100.46 118.602 100.699 118.198 100.872C117.798 101.045 117.333 101.132 116.805 101.132C116.072 101.132 115.474 100.976 115.011 100.663C114.548 100.348 114.264 99.9006 114.159 99.321L115.39 99.1335C115.467 99.4545 115.624 99.6974 115.863 99.8622C116.102 100.024 116.413 100.105 116.796 100.105C117.214 100.105 117.548 100.018 117.798 99.8452C118.048 99.669 118.173 99.4545 118.173 99.2017C118.173 98.9972 118.096 98.8253 117.943 98.6861C117.792 98.5469 117.561 98.4418 117.248 98.3707L116.14 98.1278C115.529 97.9886 115.078 97.767 114.785 97.4631C114.495 97.1591 114.35 96.7741 114.35 96.3082C114.35 95.9219 114.458 95.5838 114.674 95.294C114.89 95.0043 115.188 94.7784 115.569 94.6165C115.95 94.4517 116.386 94.3693 116.877 94.3693C117.585 94.3693 118.142 94.5227 118.548 94.8295C118.954 95.1335 119.222 95.5412 119.353 96.0526Z" fill="#666B71"/>
<path d="M25.5284 143H23.8409L26.9134 134.273H28.8651L31.9418 143H30.2543L27.9233 136.062H27.8551L25.5284 143ZM25.5838 139.578H30.1861V140.848H25.5838V139.578ZM35.8814 136.455V137.648H32.1186V136.455H35.8814ZM33.0476 134.886H34.5902V141.031C34.5902 141.239 34.6214 141.398 34.6839 141.509C34.7493 141.616 34.8345 141.69 34.9396 141.73C35.0447 141.77 35.1612 141.79 35.2891 141.79C35.3857 141.79 35.4737 141.783 35.5533 141.768C35.6357 141.754 35.6982 141.741 35.7408 141.73L36.0007 142.936C35.9183 142.964 35.8004 142.996 35.647 143.03C35.4964 143.064 35.3118 143.084 35.093 143.089C34.7067 143.101 34.3587 143.043 34.049 142.915C33.7393 142.784 33.4936 142.582 33.3118 142.31C33.1328 142.037 33.0447 141.696 33.0476 141.287V134.886ZM40.44 136.455V137.648H36.6772V136.455H40.44ZM37.6062 134.886H39.1488V141.031C39.1488 141.239 39.18 141.398 39.2425 141.509C39.3079 141.616 39.3931 141.69 39.4982 141.73C39.6033 141.77 39.7198 141.79 39.8477 141.79C39.9442 141.79 40.0323 141.783 40.1119 141.768C40.1942 141.754 40.2567 141.741 40.2994 141.73L40.5593 142.936C40.4769 142.964 40.359 142.996 40.2056 143.03C40.055 143.064 39.8704 143.084 39.6516 143.089C39.2653 143.101 38.9173 143.043 38.6076 142.915C38.2979 142.784 38.0522 142.582 37.8704 142.31C37.6914 142.037 37.6033 141.696 37.6062 141.287V134.886ZM41.7301 143V136.455H43.2259V137.545H43.294C43.4134 137.168 43.6179 136.876 43.9077 136.672C44.2003 136.464 44.5341 136.361 44.9091 136.361C44.9943 136.361 45.0895 136.365 45.1946 136.374C45.3026 136.379 45.392 136.389 45.4631 136.403V137.822C45.3977 137.8 45.294 137.78 45.152 137.763C45.0128 137.743 44.8778 137.733 44.7472 137.733C44.4659 137.733 44.2131 137.794 43.9886 137.916C43.767 138.036 43.5923 138.202 43.4645 138.415C43.3366 138.628 43.2727 138.874 43.2727 139.152V143H41.7301ZM46.4879 143V136.455H48.0305V143H46.4879ZM47.2635 135.526C47.0192 135.526 46.8089 135.445 46.6328 135.283C46.4567 135.118 46.3686 134.92 46.3686 134.69C46.3686 134.457 46.4567 134.26 46.6328 134.098C46.8089 133.933 47.0192 133.851 47.2635 133.851C47.5107 133.851 47.7209 133.933 47.8942 134.098C48.0703 134.26 48.1584 134.457 48.1584 134.69C48.1584 134.92 48.0703 135.118 47.8942 135.283C47.7209 135.445 47.5107 135.526 47.2635 135.526ZM49.685 143V134.273H51.2276V137.537H51.2915C51.3711 137.378 51.4833 137.209 51.6282 137.03C51.7731 136.848 51.9691 136.693 52.2163 136.565C52.4634 136.435 52.7788 136.369 53.1623 136.369C53.668 136.369 54.1239 136.499 54.5302 136.757C54.9393 137.013 55.2631 137.392 55.5018 137.895C55.7433 138.395 55.864 139.009 55.864 139.736C55.864 140.455 55.7461 141.065 55.5103 141.568C55.2745 142.071 54.9535 142.455 54.5472 142.719C54.141 142.983 53.6808 143.115 53.1665 143.115C52.7915 143.115 52.4805 143.053 52.2333 142.928C51.9862 142.803 51.7873 142.652 51.6367 142.476C51.489 142.297 51.3739 142.128 51.2915 141.969H51.2021V143H49.685ZM51.1978 139.727C51.1978 140.151 51.2575 140.521 51.3768 140.839C51.4989 141.158 51.6737 141.406 51.9009 141.585C52.131 141.761 52.4094 141.849 52.7362 141.849C53.0771 141.849 53.3626 141.759 53.5927 141.577C53.8228 141.392 53.9961 141.141 54.1126 140.822C54.2319 140.501 54.2915 140.136 54.2915 139.727C54.2915 139.321 54.2333 138.96 54.1168 138.645C54.0004 138.33 53.8271 138.082 53.5969 137.903C53.3668 137.724 53.0799 137.635 52.7362 137.635C52.4066 137.635 52.1268 137.722 51.8967 137.895C51.6665 138.068 51.4918 138.311 51.3725 138.624C51.256 138.936 51.1978 139.304 51.1978 139.727ZM61.3473 140.247V136.455H62.8899V143H61.3942V141.837H61.326C61.1783 142.203 60.9354 142.503 60.5973 142.736C60.2621 142.969 59.8487 143.085 59.3572 143.085C58.9283 143.085 58.549 142.99 58.2195 142.8C57.8928 142.607 57.6371 142.327 57.4524 141.96C57.2678 141.591 57.1754 141.145 57.1754 140.622V136.455H58.718V140.384C58.718 140.798 58.8317 141.128 59.0589 141.372C59.2862 141.616 59.5845 141.739 59.9538 141.739C60.1811 141.739 60.4013 141.683 60.6143 141.572C60.8274 141.462 61.0021 141.297 61.1385 141.078C61.2777 140.857 61.3473 140.58 61.3473 140.247ZM67.7447 136.455V137.648H63.9819V136.455H67.7447ZM64.9109 134.886H66.4535V141.031C66.4535 141.239 66.4847 141.398 66.5472 141.509C66.6126 141.616 66.6978 141.69 66.8029 141.73C66.908 141.77 67.0245 141.79 67.1523 141.79C67.2489 141.79 67.337 141.783 67.4165 141.768C67.4989 141.754 67.5614 141.741 67.604 141.73L67.864 142.936C67.7816 142.964 67.6637 142.996 67.5103 143.03C67.3597 143.064 67.1751 143.084 66.9563 143.089C66.57 143.101 66.2219 143.043 65.9123 142.915C65.6026 142.784 65.3569 142.582 65.1751 142.31C64.9961 142.037 64.908 141.696 64.9109 141.287V134.886ZM71.8622 143.128C71.206 143.128 70.6392 142.991 70.1619 142.719C69.6875 142.443 69.3224 142.054 69.0668 141.551C68.8111 141.045 68.6832 140.45 68.6832 139.766C68.6832 139.092 68.8111 138.501 69.0668 137.993C69.3253 137.482 69.6861 137.084 70.1491 136.8C70.6122 136.513 71.1562 136.369 71.7812 136.369C72.1847 136.369 72.5653 136.435 72.9233 136.565C73.2841 136.693 73.6023 136.892 73.8778 137.162C74.1563 137.432 74.375 137.776 74.5341 138.193C74.6932 138.608 74.7727 139.102 74.7727 139.676V140.149H69.4077V139.109H73.294C73.2912 138.814 73.2273 138.551 73.1023 138.321C72.9773 138.088 72.8026 137.905 72.5781 137.771C72.3565 137.638 72.098 137.571 71.8026 137.571C71.4872 137.571 71.2102 137.648 70.9716 137.801C70.733 137.952 70.5469 138.151 70.4134 138.398C70.2827 138.642 70.2159 138.911 70.2131 139.203V140.111C70.2131 140.491 70.2827 140.818 70.4219 141.091C70.5611 141.361 70.7557 141.568 71.0057 141.713C71.2557 141.855 71.5483 141.926 71.8835 141.926C72.108 141.926 72.3111 141.895 72.4929 141.832C72.6747 141.767 72.8324 141.672 72.9659 141.547C73.0994 141.422 73.2003 141.267 73.2685 141.082L74.7088 141.244C74.6179 141.625 74.4446 141.957 74.1889 142.241C73.9361 142.523 73.6122 142.741 73.2173 142.898C72.8224 143.051 72.3707 143.128 71.8622 143.128ZM78.739 135.598V134.273H85.7021V135.598H83.0046V143H81.4364V135.598H78.739ZM87.185 145.455C86.9748 145.455 86.7802 145.438 86.6012 145.403C86.4251 145.372 86.2844 145.335 86.1793 145.293L86.5373 144.091C86.7617 144.156 86.962 144.188 87.1381 144.185C87.3143 144.182 87.4691 144.126 87.6026 144.018C87.739 143.913 87.854 143.737 87.9478 143.49L88.0799 143.136L85.7063 136.455H87.3427L88.8512 141.398H88.9194L90.4322 136.455H92.0728L89.4521 143.793C89.3299 144.139 89.168 144.436 88.9663 144.683C88.7646 144.933 88.5174 145.124 88.2248 145.254C87.935 145.388 87.5884 145.455 87.185 145.455ZM93.1403 145.455V136.455H94.6573V137.537H94.7468C94.8263 137.378 94.9386 137.209 95.0835 137.03C95.2283 136.848 95.4244 136.693 95.6715 136.565C95.9187 136.435 96.234 136.369 96.6175 136.369C97.1232 136.369 97.5792 136.499 97.9854 136.757C98.3945 137.013 98.7184 137.392 98.957 137.895C99.1985 138.395 99.3192 139.009 99.3192 139.736C99.3192 140.455 99.2013 141.065 98.9656 141.568C98.7298 142.071 98.4087 142.455 98.0025 142.719C97.5962 142.983 97.136 143.115 96.6218 143.115C96.2468 143.115 95.9357 143.053 95.6886 142.928C95.4414 142.803 95.2425 142.652 95.092 142.476C94.9442 142.297 94.8292 142.128 94.7468 141.969H94.6829V145.455H93.1403ZM94.6531 139.727C94.6531 140.151 94.7127 140.521 94.832 140.839C94.9542 141.158 95.1289 141.406 95.3562 141.585C95.5863 141.761 95.8647 141.849 96.1914 141.849C96.5323 141.849 96.8178 141.759 97.0479 141.577C97.2781 141.392 97.4513 141.141 97.5678 140.822C97.6871 140.501 97.7468 140.136 97.7468 139.727C97.7468 139.321 97.6886 138.96 97.5721 138.645C97.4556 138.33 97.2823 138.082 97.0522 137.903C96.8221 137.724 96.5352 137.635 96.1914 137.635C95.8619 137.635 95.582 137.722 95.3519 137.895C95.1218 138.068 94.9471 138.311 94.8278 138.624C94.7113 138.936 94.6531 139.304 94.6531 139.727ZM103.538 143.128C102.882 143.128 102.315 142.991 101.838 142.719C101.363 142.443 100.998 142.054 100.743 141.551C100.487 141.045 100.359 140.45 100.359 139.766C100.359 139.092 100.487 138.501 100.743 137.993C101.001 137.482 101.362 137.084 101.825 136.8C102.288 136.513 102.832 136.369 103.457 136.369C103.86 136.369 104.241 136.435 104.599 136.565C104.96 136.693 105.278 136.892 105.554 137.162C105.832 137.432 106.051 137.776 106.21 138.193C106.369 138.608 106.449 139.102 106.449 139.676V140.149H101.083V139.109H104.97C104.967 138.814 104.903 138.551 104.778 138.321C104.653 138.088 104.478 137.905 104.254 137.771C104.032 137.638 103.774 137.571 103.478 137.571C103.163 137.571 102.886 137.648 102.647 137.801C102.409 137.952 102.223 138.151 102.089 138.398C101.958 138.642 101.892 138.911 101.889 139.203V140.111C101.889 140.491 101.958 140.818 102.098 141.091C102.237 141.361 102.431 141.568 102.681 141.713C102.931 141.855 103.224 141.926 103.559 141.926C103.784 141.926 103.987 141.895 104.169 141.832C104.35 141.767 104.508 141.672 104.642 141.547C104.775 141.422 104.876 141.267 104.944 141.082L106.385 141.244C106.294 141.625 106.12 141.957 105.865 142.241C105.612 142.523 105.288 142.741 104.893 142.898C104.498 143.051 104.047 143.128 103.538 143.128Z" fill="black"/>
<path d="M112.678 139.182L112.776 137.456L111.327 138.406L110.807 137.503L112.354 136.727L110.807 135.952L111.327 135.048L112.776 135.999L112.678 134.273H113.713L113.619 135.999L115.068 135.048L115.588 135.952L114.037 136.727L115.588 137.503L115.068 138.406L113.619 137.456L113.713 139.182H112.678Z" fill="#2268DF"/>
<rect x="24" y="156.5" width="301" height="32" rx="11.5" fill="white"/>
<rect x="24" y="156.5" width="301" height="32" rx="11.5" stroke="#E6E7EA"/>
<path d="M41.2949 170.065C41.2495 169.662 41.062 169.349 40.7324 169.128C40.4029 168.903 39.9881 168.791 39.4881 168.791C39.1301 168.791 38.8205 168.848 38.5591 168.962C38.2978 169.072 38.0946 169.226 37.9498 169.422C37.8077 169.615 37.7367 169.835 37.7367 170.082C37.7367 170.29 37.785 170.469 37.8816 170.619C37.981 170.77 38.1103 170.896 38.2694 170.999C38.4313 171.098 38.6046 171.182 38.7892 171.25C38.9739 171.315 39.1515 171.369 39.3219 171.412L40.1742 171.634C40.4526 171.702 40.7381 171.794 41.0307 171.911C41.3233 172.027 41.5946 172.18 41.8446 172.371C42.0946 172.561 42.2963 172.797 42.4498 173.078C42.606 173.359 42.6841 173.696 42.6841 174.088C42.6841 174.582 42.5563 175.021 42.3006 175.405C42.0478 175.788 41.6799 176.091 41.1969 176.312C40.7168 176.534 40.1358 176.645 39.454 176.645C38.8006 176.645 38.2353 176.541 37.758 176.334C37.2807 176.126 36.9071 175.832 36.6373 175.452C36.3674 175.068 36.2182 174.614 36.1898 174.088H37.5108C37.5364 174.403 37.6387 174.666 37.8176 174.876C37.9995 175.084 38.231 175.239 38.5123 175.341C38.7963 175.44 39.1074 175.49 39.4455 175.49C39.8176 175.49 40.1486 175.432 40.4384 175.315C40.731 175.196 40.9611 175.031 41.1287 174.821C41.2963 174.608 41.3801 174.359 41.3801 174.075C41.3801 173.817 41.3063 173.605 41.1586 173.44C41.0137 173.276 40.8162 173.139 40.5662 173.031C40.3191 172.923 40.0392 172.828 39.7267 172.746L38.6955 172.464C37.9966 172.274 37.4426 171.994 37.0336 171.625C36.6273 171.256 36.4242 170.767 36.4242 170.159C36.4242 169.656 36.5605 169.217 36.8333 168.842C37.106 168.467 37.4753 168.176 37.9412 167.969C38.4071 167.759 38.9327 167.653 39.5179 167.653C40.1088 167.653 40.6301 167.757 41.0819 167.964C41.5364 168.172 41.8944 168.457 42.1557 168.821C42.4171 169.182 42.5534 169.597 42.5648 170.065H41.2949ZM46.9764 176.632C46.3315 176.632 45.7761 176.494 45.3102 176.219C44.8471 175.94 44.4892 175.55 44.2363 175.047C43.9863 174.541 43.8613 173.949 43.8613 173.27C43.8613 172.599 43.9863 172.009 44.2363 171.497C44.4892 170.986 44.8414 170.587 45.2931 170.3C45.7477 170.013 46.2789 169.869 46.8869 169.869C47.2562 169.869 47.6142 169.93 47.9608 170.053C48.3074 170.175 48.6184 170.366 48.894 170.628C49.1696 170.889 49.3869 171.229 49.546 171.646C49.7051 172.061 49.7846 172.565 49.7846 173.159V173.611H44.5815V172.656H48.536C48.536 172.321 48.4679 172.024 48.3315 171.766C48.1951 171.504 48.0034 171.298 47.7562 171.148C47.5119 170.997 47.225 170.922 46.8954 170.922C46.5375 170.922 46.225 171.01 45.9579 171.186C45.6937 171.359 45.4892 171.587 45.3443 171.868C45.2022 172.146 45.1312 172.449 45.1312 172.776V173.521C45.1312 173.959 45.2079 174.331 45.3613 174.638C45.5176 174.945 45.7349 175.179 46.0133 175.341C46.2917 175.5 46.617 175.58 46.9892 175.58C47.2306 175.58 47.4508 175.545 47.6497 175.477C47.8485 175.406 48.0204 175.301 48.1653 175.162C48.3102 175.023 48.421 174.851 48.4977 174.646L49.7037 174.864C49.6071 175.219 49.4338 175.53 49.1838 175.797C48.9366 176.061 48.6255 176.267 48.2505 176.415C47.8784 176.56 47.4537 176.632 46.9764 176.632ZM52.4725 167.773V176.5H51.1983V167.773H52.4725ZM57.0076 176.632C56.3627 176.632 55.8074 176.494 55.3414 176.219C54.8784 175.94 54.5204 175.55 54.2676 175.047C54.0176 174.541 53.8926 173.949 53.8926 173.27C53.8926 172.599 54.0176 172.009 54.2676 171.497C54.5204 170.986 54.8727 170.587 55.3244 170.3C55.7789 170.013 56.3102 169.869 56.9181 169.869C57.2875 169.869 57.6454 169.93 57.992 170.053C58.3386 170.175 58.6497 170.366 58.9252 170.628C59.2008 170.889 59.4181 171.229 59.5772 171.646C59.7363 172.061 59.8159 172.565 59.8159 173.159V173.611H54.6127V172.656H58.5673C58.5673 172.321 58.4991 172.024 58.3627 171.766C58.2264 171.504 58.0346 171.298 57.7875 171.148C57.5431 170.997 57.2562 170.922 56.9267 170.922C56.5687 170.922 56.2562 171.01 55.9892 171.186C55.725 171.359 55.5204 171.587 55.3755 171.868C55.2335 172.146 55.1625 172.449 55.1625 172.776V173.521C55.1625 173.959 55.2392 174.331 55.3926 174.638C55.5488 174.945 55.7662 175.179 56.0446 175.341C56.323 175.5 56.6483 175.58 57.0204 175.58C57.2619 175.58 57.4821 175.545 57.6809 175.477C57.8798 175.406 58.0517 175.301 58.1966 175.162C58.3414 175.023 58.4522 174.851 58.5289 174.646L59.7349 174.864C59.6383 175.219 59.465 175.53 59.215 175.797C58.9679 176.061 58.6568 176.267 58.2818 176.415C57.9096 176.56 57.4849 176.632 57.0076 176.632ZM63.9867 176.632C63.3532 176.632 62.8077 176.489 62.3503 176.202C61.8958 175.912 61.5463 175.513 61.302 175.004C61.0577 174.496 60.9355 173.913 60.9355 173.257C60.9355 172.592 61.0605 172.006 61.3105 171.497C61.5605 170.986 61.9128 170.587 62.3674 170.3C62.8219 170.013 63.3574 169.869 63.9739 169.869C64.4711 169.869 64.9142 169.962 65.3034 170.146C65.6926 170.328 66.0066 170.584 66.2452 170.913C66.4867 171.243 66.6301 171.628 66.6756 172.068H65.4355C65.3674 171.761 65.2111 171.497 64.9668 171.276C64.7253 171.054 64.4015 170.943 63.9952 170.943C63.6401 170.943 63.329 171.037 63.062 171.224C62.7978 171.409 62.5918 171.673 62.4441 172.017C62.2963 172.358 62.2225 172.761 62.2225 173.227C62.2225 173.705 62.2949 174.116 62.4398 174.463C62.5847 174.81 62.7892 175.078 63.0534 175.268C63.3205 175.459 63.6344 175.554 63.9952 175.554C64.2367 175.554 64.4554 175.51 64.6515 175.422C64.8503 175.331 65.0165 175.202 65.15 175.034C65.2864 174.866 65.3816 174.665 65.4355 174.429H66.6756C66.6301 174.852 66.4924 175.23 66.2623 175.562C66.0321 175.895 65.7239 176.156 65.3375 176.347C64.954 176.537 64.5037 176.632 63.9867 176.632ZM71.0936 169.955V170.977H67.5183V169.955H71.0936ZM68.4771 168.386H69.7512V174.578C69.7512 174.825 69.7882 175.011 69.862 175.136C69.9359 175.259 70.0311 175.342 70.1475 175.388C70.2669 175.43 70.3961 175.452 70.5353 175.452C70.6376 175.452 70.7271 175.445 70.8038 175.43C70.8805 175.416 70.9402 175.405 70.9828 175.396L71.2129 176.449C71.139 176.477 71.0339 176.506 70.8975 176.534C70.7612 176.565 70.5907 176.582 70.3862 176.585C70.051 176.591 69.7385 176.531 69.4487 176.406C69.1589 176.281 68.9245 176.088 68.7456 175.827C68.5666 175.565 68.4771 175.237 68.4771 174.842V168.386ZM76.5183 176.5H75.1206L78.2612 167.773H79.7825L82.9231 176.5H81.5254L79.0581 169.358H78.9899L76.5183 176.5ZM76.7527 173.082H81.2868V174.19H76.7527V173.082ZM86.7264 169.955V170.977H83.1511V169.955H86.7264ZM84.1099 168.386H85.3841V174.578C85.3841 174.825 85.421 175.011 85.4949 175.136C85.5687 175.259 85.6639 175.342 85.7804 175.388C85.8997 175.43 86.0289 175.452 86.1681 175.452C86.2704 175.452 86.3599 175.445 86.4366 175.43C86.5133 175.416 86.573 175.405 86.6156 175.396L86.8457 176.449C86.7718 176.477 86.6667 176.506 86.5304 176.534C86.394 176.565 86.2235 176.582 86.019 176.585C85.6838 176.591 85.3713 176.531 85.0815 176.406C84.7917 176.281 84.5574 176.088 84.3784 175.827C84.1994 175.565 84.1099 175.237 84.1099 174.842V168.386ZM91.1912 169.955V170.977H87.6159V169.955H91.1912ZM88.5748 168.386H89.8489V174.578C89.8489 174.825 89.8858 175.011 89.9597 175.136C90.0336 175.259 90.1287 175.342 90.2452 175.388C90.3645 175.43 90.4938 175.452 90.633 175.452C90.7353 175.452 90.8248 175.445 90.9015 175.43C90.9782 175.416 91.0378 175.405 91.0804 175.396L91.3105 176.449C91.2367 176.477 91.1316 176.506 90.9952 176.534C90.8588 176.565 90.6884 176.582 90.4838 176.585C90.1486 176.591 89.8361 176.531 89.5463 176.406C89.2566 176.281 89.0222 176.088 88.8432 175.827C88.6642 175.565 88.5748 175.237 88.5748 174.842V168.386ZM92.6007 176.5V169.955H93.8322V170.994H93.9004C94.0197 170.642 94.2299 170.365 94.5311 170.163C94.835 169.959 95.1788 169.857 95.5623 169.857C95.6419 169.857 95.7356 169.859 95.8436 169.865C95.9544 169.871 96.041 169.878 96.1035 169.886V171.105C96.0524 171.091 95.9615 171.075 95.8308 171.058C95.7001 171.038 95.5694 171.028 95.4387 171.028C95.1376 171.028 94.8691 171.092 94.6333 171.22C94.4004 171.345 94.2157 171.52 94.0794 171.744C93.943 171.966 93.8748 172.219 93.8748 172.503V176.5H92.6007ZM97.2061 176.5V169.955H98.4803V176.5H97.2061ZM97.8496 168.945C97.628 168.945 97.4377 168.871 97.2786 168.723C97.1223 168.572 97.0442 168.393 97.0442 168.186C97.0442 167.976 97.1223 167.797 97.2786 167.649C97.4377 167.499 97.628 167.423 97.8496 167.423C98.0712 167.423 98.2601 167.499 98.4164 167.649C98.5755 167.797 98.655 167.976 98.655 168.186C98.655 168.393 98.5755 168.572 98.4164 168.723C98.2601 168.871 98.0712 168.945 97.8496 168.945ZM100.297 176.5V167.773H101.571V171.016H101.648C101.721 170.879 101.828 170.722 101.967 170.543C102.106 170.364 102.3 170.207 102.547 170.074C102.794 169.938 103.121 169.869 103.527 169.869C104.055 169.869 104.527 170.003 104.942 170.27C105.356 170.537 105.682 170.922 105.917 171.425C106.156 171.928 106.275 172.533 106.275 173.24C106.275 173.947 106.157 174.554 105.922 175.06C105.686 175.562 105.362 175.95 104.95 176.223C104.538 176.493 104.068 176.628 103.54 176.628C103.142 176.628 102.817 176.561 102.564 176.428C102.314 176.294 102.118 176.138 101.976 175.959C101.834 175.78 101.724 175.621 101.648 175.482H101.541V176.5H100.297ZM101.545 173.227C101.545 173.687 101.612 174.091 101.746 174.438C101.879 174.784 102.072 175.055 102.325 175.251C102.578 175.445 102.888 175.541 103.254 175.541C103.635 175.541 103.953 175.44 104.209 175.239C104.464 175.034 104.657 174.757 104.788 174.408C104.922 174.058 104.988 173.665 104.988 173.227C104.988 172.795 104.923 172.408 104.792 172.064C104.665 171.72 104.471 171.449 104.213 171.25C103.957 171.051 103.638 170.952 103.254 170.952C102.885 170.952 102.572 171.047 102.317 171.237C102.064 171.428 101.872 171.693 101.741 172.034C101.611 172.375 101.545 172.773 101.545 173.227ZM111.852 173.786V169.955H113.131V176.5H111.878V175.366H111.81C111.659 175.716 111.418 176.007 111.085 176.24C110.756 176.47 110.345 176.585 109.854 176.585C109.433 176.585 109.061 176.493 108.737 176.308C108.416 176.121 108.164 175.844 107.979 175.477C107.797 175.111 107.706 174.658 107.706 174.118V169.955H108.98V173.964C108.98 174.411 109.104 174.766 109.351 175.03C109.598 175.294 109.919 175.426 110.314 175.426C110.553 175.426 110.79 175.366 111.026 175.247C111.264 175.128 111.462 174.947 111.618 174.706C111.777 174.464 111.855 174.158 111.852 173.786ZM117.898 169.955V170.977H114.323V169.955H117.898ZM115.282 168.386H116.556V174.578C116.556 174.825 116.593 175.011 116.667 175.136C116.741 175.259 116.836 175.342 116.952 175.388C117.072 175.43 117.201 175.452 117.34 175.452C117.442 175.452 117.532 175.445 117.608 175.43C117.685 175.416 117.745 175.405 117.787 175.396L118.018 176.449C117.944 176.477 117.839 176.506 117.702 176.534C117.566 176.565 117.395 176.582 117.191 176.585C116.856 176.591 116.543 176.531 116.253 176.406C115.964 176.281 115.729 176.088 115.55 175.827C115.371 175.565 115.282 175.237 115.282 174.842V168.386ZM122.058 176.632C121.414 176.632 120.858 176.494 120.392 176.219C119.929 175.94 119.571 175.55 119.318 175.047C119.068 174.541 118.943 173.949 118.943 173.27C118.943 172.599 119.068 172.009 119.318 171.497C119.571 170.986 119.923 170.587 120.375 170.3C120.83 170.013 121.361 169.869 121.969 169.869C122.338 169.869 122.696 169.93 123.043 170.053C123.389 170.175 123.7 170.366 123.976 170.628C124.252 170.889 124.469 171.229 124.628 171.646C124.787 172.061 124.867 172.565 124.867 173.159V173.611H119.664V172.656H123.618C123.618 172.321 123.55 172.024 123.414 171.766C123.277 171.504 123.085 171.298 122.838 171.148C122.594 170.997 122.307 170.922 121.977 170.922C121.619 170.922 121.307 171.01 121.04 171.186C120.776 171.359 120.571 171.587 120.426 171.868C120.284 172.146 120.213 172.449 120.213 172.776V173.521C120.213 173.959 120.29 174.331 120.443 174.638C120.6 174.945 120.817 175.179 121.095 175.341C121.374 175.5 121.699 175.58 122.071 175.58C122.313 175.58 122.533 175.545 122.732 175.477C122.931 175.406 123.102 175.301 123.247 175.162C123.392 175.023 123.503 174.851 123.58 174.646L124.786 174.864C124.689 175.219 124.516 175.53 124.266 175.797C124.019 176.061 123.708 176.267 123.333 176.415C122.96 176.56 122.536 176.632 122.058 176.632Z" fill="#666B71"/>
<path d="M306.833 171.144L303.499 174.477L300.166 171.144" stroke="#767676" stroke-width="1.5" stroke-linecap="round" stroke-linejoin="round"/>
<g filter="url(#filter0_d_2016_7599)">
<rect x="23.5" y="195" width="302" height="216" rx="12" fill="white" shape-rendering="crispEdges"/>
<rect x="24" y="195.5" width="301" height="215" rx="11.5" stroke="#E6E7EA" shape-rendering="crispEdges"/>
<g clip-path="url(#clip0_2016_7599)">
<path d="M54 213H47C45.6193 213 44.5 214.119 44.5 215.5V220.5C44.5 221.881 45.6193 223 47 223H54C55.3807 223 56.5 221.881 56.5 220.5V215.5C56.5 214.119 55.3807 213 54 213Z" stroke="#5C5E63" stroke-width="1.1"/>
<path d="M46.5 220.7L47.118 219M47.118 219L47.333 218.408L48.5 215.2L49.667 218.408L49.882 219M47.118 219H49.882M50.5 220.7L49.882 219M52.148 217H54.548M52.148 219H54.548" stroke="#5C5E63" stroke-width="1.1" stroke-linecap="round" stroke-linejoin="round"/>
</g>
<path d="M66.1124 214.406V213.273H72.8667V214.406H70.1436V222H68.8311V214.406H66.1124ZM76.1287 222.132C75.4838 222.132 74.9284 221.994 74.4625 221.719C73.9995 221.44 73.6415 221.05 73.3887 220.547C73.1387 220.041 73.0137 219.449 73.0137 218.77C73.0137 218.099 73.1387 217.509 73.3887 216.997C73.6415 216.486 73.9938 216.087 74.4455 215.8C74.9 215.513 75.4313 215.369 76.0392 215.369C76.4086 215.369 76.7665 215.43 77.1131 215.553C77.4597 215.675 77.7708 215.866 78.0463 216.128C78.3219 216.389 78.5392 216.729 78.6983 217.146C78.8574 217.561 78.937 218.065 78.937 218.659V219.111H73.7338V218.156H77.6884C77.6884 217.821 77.6202 217.524 77.4838 217.266C77.3475 217.004 77.1557 216.798 76.9086 216.648C76.6642 216.497 76.3773 216.422 76.0478 216.422C75.6898 216.422 75.3773 216.51 75.1103 216.686C74.8461 216.859 74.6415 217.087 74.4966 217.368C74.3546 217.646 74.2836 217.949 74.2836 218.276V219.021C74.2836 219.459 74.3603 219.831 74.5137 220.138C74.6699 220.445 74.8873 220.679 75.1657 220.841C75.4441 221 75.7694 221.08 76.1415 221.08C76.383 221.08 76.6032 221.045 76.802 220.977C77.0009 220.906 77.1728 220.801 77.3176 220.662C77.4625 220.523 77.5733 220.351 77.65 220.146L78.856 220.364C78.7594 220.719 78.5861 221.03 78.3361 221.297C78.089 221.561 77.7779 221.767 77.4029 221.915C77.0307 222.06 76.606 222.132 76.1287 222.132ZM81.204 215.455L82.6486 218.003L84.106 215.455H85.4995L83.4583 218.727L85.5165 222H84.123L82.6486 219.554L81.1784 222H79.7807L81.8176 218.727L79.8063 215.455H81.204ZM89.8631 215.455V216.477H86.2878V215.455H89.8631ZM87.2466 213.886H88.5208V220.078C88.5208 220.325 88.5577 220.511 88.6316 220.636C88.7054 220.759 88.8006 220.842 88.9171 220.888C89.0364 220.93 89.1657 220.952 89.3049 220.952C89.4071 220.952 89.4966 220.945 89.5733 220.93C89.65 220.916 89.7097 220.905 89.7523 220.896L89.9824 221.949C89.9086 221.977 89.8034 222.006 89.6671 222.034C89.5307 222.065 89.3603 222.082 89.1557 222.085C88.8205 222.091 88.508 222.031 88.2182 221.906C87.9284 221.781 87.6941 221.588 87.5151 221.327C87.3361 221.065 87.2466 220.737 87.2466 220.342V213.886Z" fill="black"/>
<rect x="35.5" y="235" width="258" height="34" rx="6" fill="#F4F5F6"/>
<path d="M47.438 257L49.624 247M51.375 257L53.563 247M46.125 250.044H55.75M45.25 253.957H54.875" stroke="#5C5E63" stroke-width="1.1" stroke-linecap="round" stroke-linejoin="round"/>
<path d="M73.5692 247.273V256H72.359L67.9229 249.599H67.842V256H66.5252V247.273H67.744L72.1843 253.682H72.2653V247.273H73.5692ZM79.5341 253.286V249.455H80.8125V256H79.5597V254.866H79.4915C79.3409 255.216 79.0994 255.507 78.767 255.74C78.4375 255.97 78.027 256.085 77.5355 256.085C77.1151 256.085 76.7429 255.993 76.419 255.808C76.098 255.621 75.8452 255.344 75.6605 254.977C75.4787 254.611 75.3878 254.158 75.3878 253.618V249.455H76.6619V253.464C76.6619 253.911 76.7855 254.266 77.0327 254.53C77.2798 254.794 77.6009 254.926 77.9957 254.926C78.2344 254.926 78.4716 254.866 78.7074 254.747C78.946 254.628 79.1435 254.447 79.2997 254.206C79.4588 253.964 79.5369 253.658 79.5341 253.286ZM82.5245 256V249.455H83.7475V250.52H83.8285C83.9648 250.159 84.1879 249.878 84.4975 249.676C84.8072 249.472 85.1779 249.369 85.6097 249.369C86.0472 249.369 86.4137 249.472 86.7092 249.676C87.0075 249.881 87.2276 250.162 87.3697 250.52H87.4379C87.5941 250.17 87.8427 249.892 88.1836 249.685C88.5245 249.474 88.9308 249.369 89.4023 249.369C89.9961 249.369 90.4805 249.555 90.8555 249.928C91.2333 250.3 91.4222 250.861 91.4222 251.611V256H90.1481V251.73C90.1481 251.287 90.0273 250.966 89.7859 250.767C89.5444 250.568 89.256 250.469 88.9208 250.469C88.506 250.469 88.1836 250.597 87.9535 250.852C87.7234 251.105 87.6083 251.43 87.6083 251.828V256H86.3384V251.649C86.3384 251.294 86.2276 251.009 86.006 250.793C85.7844 250.577 85.4961 250.469 85.141 250.469C84.8995 250.469 84.6765 250.533 84.4719 250.661C84.2702 250.786 84.1069 250.96 83.9819 251.185C83.8597 251.409 83.7987 251.669 83.7987 251.964V256H82.5245ZM93.2322 256V247.273H94.5064V250.516H94.5831C94.657 250.379 94.7635 250.222 94.9027 250.043C95.0419 249.864 95.2351 249.707 95.4822 249.574C95.7294 249.438 96.0561 249.369 96.4624 249.369C96.9908 249.369 97.4624 249.503 97.8771 249.77C98.2919 250.037 98.6172 250.422 98.853 250.925C99.0916 251.428 99.2109 252.033 99.2109 252.74C99.2109 253.447 99.093 254.054 98.8572 254.56C98.6214 255.062 98.2976 255.45 97.8857 255.723C97.4737 255.993 97.0036 256.128 96.4751 256.128C96.0774 256.128 95.7521 256.061 95.4993 255.928C95.2493 255.794 95.0533 255.638 94.9112 255.459C94.7692 255.28 94.6598 255.121 94.5831 254.982H94.4766V256H93.2322ZM94.4808 252.727C94.4808 253.187 94.5476 253.591 94.6811 253.938C94.8146 254.284 95.0078 254.555 95.2607 254.751C95.5135 254.945 95.8232 255.041 96.1896 255.041C96.5703 255.041 96.8885 254.94 97.1442 254.739C97.3999 254.534 97.593 254.257 97.7237 253.908C97.8572 253.558 97.924 253.165 97.924 252.727C97.924 252.295 97.8587 251.908 97.728 251.564C97.6001 251.22 97.407 250.949 97.1484 250.75C96.8928 250.551 96.5732 250.452 96.1896 250.452C95.8203 250.452 95.5078 250.547 95.2521 250.737C94.9993 250.928 94.8075 251.193 94.6768 251.534C94.5462 251.875 94.4808 252.273 94.4808 252.727ZM103.463 256.132C102.818 256.132 102.262 255.994 101.797 255.719C101.333 255.44 100.975 255.05 100.723 254.547C100.473 254.041 100.348 253.449 100.348 252.77C100.348 252.099 100.473 251.509 100.723 250.997C100.975 250.486 101.328 250.087 101.779 249.8C102.234 249.513 102.765 249.369 103.373 249.369C103.743 249.369 104.1 249.43 104.447 249.553C104.794 249.675 105.105 249.866 105.38 250.128C105.656 250.389 105.873 250.729 106.032 251.146C106.191 251.561 106.271 252.065 106.271 252.659V253.111H101.068V252.156H105.022C105.022 251.821 104.954 251.524 104.818 251.266C104.681 251.004 104.49 250.798 104.243 250.648C103.998 250.497 103.711 250.422 103.382 250.422C103.024 250.422 102.711 250.51 102.444 250.686C102.18 250.859 101.975 251.087 101.831 251.368C101.689 251.646 101.618 251.949 101.618 252.276V253.021C101.618 253.459 101.694 253.831 101.848 254.138C102.004 254.445 102.221 254.679 102.5 254.841C102.778 255 103.103 255.08 103.475 255.08C103.717 255.08 103.937 255.045 104.136 254.977C104.335 254.906 104.507 254.801 104.652 254.662C104.797 254.523 104.907 254.351 104.984 254.146L106.19 254.364C106.093 254.719 105.92 255.03 105.67 255.297C105.423 255.561 105.112 255.767 104.737 255.915C104.365 256.06 103.94 256.132 103.463 256.132ZM107.685 256V249.455H108.916V250.494H108.984C109.104 250.142 109.314 249.865 109.615 249.663C109.919 249.459 110.263 249.357 110.646 249.357C110.726 249.357 110.82 249.359 110.928 249.365C111.038 249.371 111.125 249.378 111.188 249.386V250.605C111.136 250.591 111.045 250.575 110.915 250.558C110.784 250.538 110.653 250.528 110.523 250.528C110.222 250.528 109.953 250.592 109.717 250.72C109.484 250.845 109.3 251.02 109.163 251.244C109.027 251.466 108.959 251.719 108.959 252.003V256H107.685Z" fill="black"/>
<g clip-path="url(#clip1_2016_7599)">
<mask id="mask0_2016_7599" style="mask-type:luminance" maskUnits="userSpaceOnUse" x="43" y="279" width="15" height="14">
<path d="M43.5 279H57.5V293H43.5V279Z" fill="white"/>
</mask>
<g mask="url(#mask0_2016_7599)">
<path d="M53.5 280.5H47.5C46.1193 280.5 45 281.619 45 283V289C45 290.381 46.1193 291.5 47.5 291.5H53.5C54.8807 291.5 56 290.381 56 289V283C56 281.619 54.8807 280.5 53.5 280.5Z" stroke="#5C5E63" stroke-width="1.1" stroke-linecap="round" stroke-linejoin="round"/>
<path d="M48.25 286.045L48.527 286.484C48.952 287.154 49.164 287.49 49.437 287.608C49.5547 287.659 49.6813 287.685 49.8094 287.686C49.9375 287.687 50.0645 287.663 50.183 287.614C50.458 287.501 50.675 287.168 51.11 286.504L52.75 284" stroke="#5C5E63" stroke-width="1.1" stroke-linecap="round" stroke-linejoin="round"/>
</g>
</g>
<path d="M73.8734 284.111H72.5439C72.4927 283.827 72.3975 283.577 72.2583 283.361C72.1191 283.145 71.9487 282.962 71.747 282.811C71.5453 282.661 71.3194 282.547 71.0694 282.47C70.8223 282.393 70.5595 282.355 70.2811 282.355C69.7782 282.355 69.3279 282.482 68.9302 282.734C68.5353 282.987 68.2228 283.358 67.9927 283.847C67.7654 284.335 67.6518 284.932 67.6518 285.636C67.6518 286.347 67.7654 286.946 67.9927 287.435C68.2228 287.923 68.5368 288.293 68.9345 288.543C69.3322 288.793 69.7797 288.918 70.2768 288.918C70.5524 288.918 70.8137 288.881 71.0609 288.807C71.3109 288.73 71.5368 288.618 71.7385 288.47C71.9402 288.322 72.1106 288.142 72.2498 287.929C72.3919 287.713 72.4899 287.466 72.5439 287.188L73.8734 287.192C73.8024 287.621 73.6646 288.016 73.4601 288.376C73.2583 288.734 72.9984 289.044 72.6802 289.305C72.3649 289.564 72.0041 289.764 71.5978 289.906C71.1916 290.048 70.7484 290.119 70.2683 290.119C69.5126 290.119 68.8393 289.94 68.2484 289.582C67.6575 289.222 67.1916 288.706 66.8507 288.036C66.5126 287.365 66.3436 286.565 66.3436 285.636C66.3436 284.705 66.514 283.905 66.8549 283.237C67.1958 282.567 67.6618 282.053 68.2527 281.695C68.8436 281.334 69.5154 281.153 70.2683 281.153C70.7314 281.153 71.1632 281.22 71.5637 281.354C71.9672 281.484 72.3294 281.678 72.6504 281.933C72.9714 282.186 73.237 282.496 73.4473 282.862C73.6575 283.226 73.7995 283.642 73.8734 284.111ZM76.6209 286.114V290H75.3468V281.273H76.6039V284.52H76.6848C76.8382 284.168 77.0726 283.888 77.388 283.68C77.7033 283.473 78.1152 283.369 78.6238 283.369C79.0726 283.369 79.4647 283.462 79.7999 283.646C80.138 283.831 80.3993 284.107 80.584 284.473C80.7715 284.837 80.8652 285.291 80.8652 285.837V290H79.5911V285.99C79.5911 285.51 79.4675 285.138 79.2203 284.874C78.9732 284.607 78.6294 284.473 78.1891 284.473C77.888 284.473 77.6181 284.537 77.3794 284.665C77.1436 284.793 76.9576 284.98 76.8212 285.227C76.6877 285.472 76.6209 285.767 76.6209 286.114ZM85.3865 290.132C84.7417 290.132 84.1863 289.994 83.7203 289.719C83.2573 289.44 82.8993 289.05 82.6465 288.547C82.3965 288.041 82.2715 287.449 82.2715 286.77C82.2715 286.099 82.3965 285.509 82.6465 284.997C82.8993 284.486 83.2516 284.087 83.7033 283.8C84.1578 283.513 84.6891 283.369 85.2971 283.369C85.6664 283.369 86.0243 283.43 86.3709 283.553C86.7175 283.675 87.0286 283.866 87.3042 284.128C87.5797 284.389 87.7971 284.729 87.9561 285.146C88.1152 285.561 88.1948 286.065 88.1948 286.659V287.111H82.9917V286.156H86.9462C86.9462 285.821 86.878 285.524 86.7417 285.266C86.6053 285.004 86.4135 284.798 86.1664 284.648C85.9221 284.497 85.6351 284.422 85.3056 284.422C84.9476 284.422 84.6351 284.51 84.3681 284.686C84.1039 284.859 83.8993 285.087 83.7544 285.368C83.6124 285.646 83.5414 285.949 83.5414 286.276V287.021C83.5414 287.459 83.6181 287.831 83.7715 288.138C83.9277 288.445 84.1451 288.679 84.4235 288.841C84.7019 289 85.0272 289.08 85.3993 289.08C85.6408 289.08 85.861 289.045 86.0598 288.977C86.2587 288.906 86.4306 288.801 86.5755 288.662C86.7203 288.523 86.8311 288.351 86.9078 288.146L88.1138 288.364C88.0172 288.719 87.8439 289.03 87.5939 289.297C87.3468 289.561 87.0357 289.767 86.6607 289.915C86.2885 290.06 85.8638 290.132 85.3865 290.132ZM92.3656 290.132C91.7321 290.132 91.1866 289.989 90.7292 289.702C90.2747 289.412 89.9252 289.013 89.6809 288.504C89.4366 287.996 89.3145 287.413 89.3145 286.757C89.3145 286.092 89.4395 285.506 89.6895 284.997C89.9395 284.486 90.2917 284.087 90.7463 283.8C91.2008 283.513 91.7363 283.369 92.3528 283.369C92.85 283.369 93.2931 283.462 93.6824 283.646C94.0716 283.828 94.3855 284.084 94.6241 284.413C94.8656 284.743 95.0091 285.128 95.0545 285.568H93.8145C93.7463 285.261 93.59 284.997 93.3457 284.776C93.1042 284.554 92.7804 284.443 92.3741 284.443C92.019 284.443 91.7079 284.537 91.4409 284.724C91.1767 284.909 90.9707 285.173 90.823 285.517C90.6752 285.858 90.6014 286.261 90.6014 286.727C90.6014 287.205 90.6738 287.616 90.8187 287.963C90.9636 288.31 91.1681 288.578 91.4324 288.768C91.6994 288.959 92.0133 289.054 92.3741 289.054C92.6156 289.054 92.8343 289.01 93.0304 288.922C93.2292 288.831 93.3954 288.702 93.5289 288.534C93.6653 288.366 93.7605 288.165 93.8145 287.929H95.0545C95.0091 288.352 94.8713 288.73 94.6412 289.062C94.411 289.395 94.1028 289.656 93.7164 289.847C93.3329 290.037 92.8826 290.132 92.3656 290.132ZM97.589 287.78L97.5804 286.224H97.802L100.41 283.455H101.936L98.9611 286.608H98.7608L97.589 287.78ZM96.4171 290V281.273H97.6912V290H96.4171ZM100.551 290L98.2069 286.889L99.0847 285.999L102.115 290H100.551ZM103.199 290V281.273H104.473V284.516H104.55C104.624 284.379 104.73 284.222 104.869 284.043C105.009 283.864 105.202 283.707 105.449 283.574C105.696 283.438 106.023 283.369 106.429 283.369C106.958 283.369 107.429 283.503 107.844 283.77C108.259 284.037 108.584 284.422 108.82 284.925C109.058 285.428 109.178 286.033 109.178 286.74C109.178 287.447 109.06 288.054 108.824 288.56C108.588 289.062 108.264 289.45 107.852 289.723C107.441 289.993 106.97 290.128 106.442 290.128C106.044 290.128 105.719 290.061 105.466 289.928C105.216 289.794 105.02 289.638 104.878 289.459C104.736 289.28 104.627 289.121 104.55 288.982H104.443V290H103.199ZM104.448 286.727C104.448 287.187 104.514 287.591 104.648 287.938C104.781 288.284 104.975 288.555 105.227 288.751C105.48 288.945 105.79 289.041 106.156 289.041C106.537 289.041 106.855 288.94 107.111 288.739C107.367 288.534 107.56 288.257 107.691 287.908C107.824 287.558 107.891 287.165 107.891 286.727C107.891 286.295 107.825 285.908 107.695 285.564C107.567 285.22 107.374 284.949 107.115 284.75C106.86 284.551 106.54 284.452 106.156 284.452C105.787 284.452 105.475 284.547 105.219 284.737C104.966 284.928 104.774 285.193 104.644 285.534C104.513 285.875 104.448 286.273 104.448 286.727ZM113.366 290.132C112.752 290.132 112.216 289.991 111.759 289.71C111.302 289.429 110.947 289.036 110.694 288.53C110.441 288.024 110.314 287.433 110.314 286.757C110.314 286.078 110.441 285.484 110.694 284.976C110.947 284.467 111.302 284.072 111.759 283.791C112.216 283.51 112.752 283.369 113.366 283.369C113.979 283.369 114.515 283.51 114.972 283.791C115.43 284.072 115.785 284.467 116.037 284.976C116.29 285.484 116.417 286.078 116.417 286.757C116.417 287.433 116.29 288.024 116.037 288.53C115.785 289.036 115.43 289.429 114.972 289.71C114.515 289.991 113.979 290.132 113.366 290.132ZM113.37 289.062C113.768 289.062 114.097 288.957 114.358 288.747C114.62 288.537 114.813 288.257 114.938 287.908C115.066 287.558 115.13 287.173 115.13 286.753C115.13 286.335 115.066 285.952 114.938 285.602C114.813 285.25 114.62 284.967 114.358 284.754C114.097 284.541 113.768 284.435 113.37 284.435C112.969 284.435 112.637 284.541 112.373 284.754C112.111 284.967 111.917 285.25 111.789 285.602C111.664 285.952 111.601 286.335 111.601 286.753C111.601 287.173 111.664 287.558 111.789 287.908C111.917 288.257 112.111 288.537 112.373 288.747C112.637 288.957 112.969 289.062 113.37 289.062ZM118.587 283.455L120.031 286.003L121.489 283.455H122.882L120.841 286.727L122.899 290H121.506L120.031 287.554L118.561 290H117.164L119.2 286.727L117.189 283.455H118.587Z" fill="black"/>
<g clip-path="url(#clip2_2016_7599)">
<path d="M54 315H47C45.6193 315 44.5 316.119 44.5 317.5V322.5C44.5 323.881 45.6193 325 47 325H54C55.3807 325 56.5 323.881 56.5 322.5V317.5C56.5 316.119 55.3807 315 54 315Z" stroke="#5C5E63" stroke-width="1.1"/>
<path d="M47 318.25H54M47.7 314V315.75M53.3 314V315.75" stroke="#5C5E63" stroke-width="1.1" stroke-linecap="round" stroke-linejoin="round"/>
</g>
<path d="M69.3192 324H66.494V315.273H69.4087C70.2638 315.273 70.9982 315.447 71.6119 315.797C72.2255 316.143 72.6957 316.642 73.0224 317.293C73.3519 317.94 73.5167 318.717 73.5167 319.624C73.5167 320.533 73.3505 321.314 73.0181 321.967C72.6886 322.621 72.2113 323.124 71.5863 323.476C70.9613 323.825 70.2056 324 69.3192 324ZM67.8107 322.849H69.2468C69.9116 322.849 70.4641 322.724 70.9045 322.474C71.3448 322.222 71.6744 321.857 71.8931 321.379C72.1119 320.899 72.2212 320.314 72.2212 319.624C72.2212 318.939 72.1119 318.358 71.8931 317.881C71.6772 317.403 71.3548 317.041 70.9258 316.794C70.4968 316.547 69.9641 316.423 69.3278 316.423H67.8107V322.849ZM76.9567 324.145C76.5419 324.145 76.1669 324.068 75.8317 323.915C75.4964 323.759 75.2308 323.533 75.0348 323.237C74.8416 322.942 74.745 322.58 74.745 322.151C74.745 321.781 74.8161 321.477 74.9581 321.239C75.1001 321 75.2919 320.811 75.5334 320.672C75.7749 320.533 76.0447 320.428 76.343 320.357C76.6413 320.286 76.9453 320.232 77.255 320.195C77.647 320.149 77.9652 320.112 78.2095 320.084C78.4538 320.053 78.6314 320.003 78.7422 319.935C78.853 319.866 78.9084 319.756 78.9084 319.602V319.572C78.9084 319.2 78.8033 318.912 78.593 318.707C78.3857 318.503 78.076 318.401 77.6641 318.401C77.2351 318.401 76.897 318.496 76.6499 318.686C76.4055 318.874 76.2365 319.082 76.1428 319.312L74.9453 319.04C75.0874 318.642 75.2947 318.321 75.5675 318.077C75.843 317.83 76.1598 317.651 76.5178 317.54C76.8757 317.426 77.2521 317.369 77.647 317.369C77.9084 317.369 78.1854 317.401 78.478 317.463C78.7734 317.523 79.049 317.634 79.3047 317.795C79.5632 317.957 79.7749 318.189 79.9396 318.49C80.1044 318.788 80.1868 319.176 80.1868 319.653V324H78.9425V323.105H78.8913C78.8089 323.27 78.6854 323.432 78.5206 323.591C78.3558 323.75 78.1442 323.882 77.8857 323.987C77.6271 324.092 77.3175 324.145 76.9567 324.145ZM77.2337 323.122C77.5859 323.122 77.8871 323.053 78.1371 322.913C78.3899 322.774 78.5817 322.592 78.7124 322.368C78.8459 322.141 78.9126 321.898 78.9126 321.639V320.795C78.8672 320.841 78.7791 320.884 78.6484 320.923C78.5206 320.96 78.3743 320.993 78.2095 321.021C78.0447 321.047 77.8842 321.071 77.728 321.094C77.5717 321.114 77.4411 321.131 77.3359 321.145C77.0888 321.176 76.8629 321.229 76.6584 321.303C76.4567 321.376 76.2947 321.483 76.1726 321.622C76.0533 321.759 75.9936 321.94 75.9936 322.168C75.9936 322.483 76.1101 322.722 76.343 322.884C76.576 323.043 76.8729 323.122 77.2337 323.122ZM84.9393 317.455V318.477H81.364V317.455H84.9393ZM82.3228 315.886H83.5969V322.078C83.5969 322.325 83.6339 322.511 83.7077 322.636C83.7816 322.759 83.8768 322.842 83.9933 322.888C84.1126 322.93 84.2418 322.952 84.381 322.952C84.4833 322.952 84.5728 322.945 84.6495 322.93C84.7262 322.916 84.7859 322.905 84.8285 322.896L85.0586 323.949C84.9847 323.977 84.8796 324.006 84.7433 324.034C84.6069 324.065 84.4364 324.082 84.2319 324.085C83.8967 324.091 83.5842 324.031 83.2944 323.906C83.0046 323.781 82.7702 323.588 82.5913 323.327C82.4123 323.065 82.3228 322.737 82.3228 322.342V315.886ZM89.0994 324.132C88.4545 324.132 87.8991 323.994 87.4332 323.719C86.9702 323.44 86.6122 323.05 86.3594 322.547C86.1094 322.041 85.9844 321.449 85.9844 320.77C85.9844 320.099 86.1094 319.509 86.3594 318.997C86.6122 318.486 86.9645 318.087 87.4162 317.8C87.8707 317.513 88.402 317.369 89.0099 317.369C89.3793 317.369 89.7372 317.43 90.0838 317.553C90.4304 317.675 90.7415 317.866 91.017 318.128C91.2926 318.389 91.5099 318.729 91.669 319.146C91.8281 319.561 91.9077 320.065 91.9077 320.659V321.111H86.7045V320.156H90.6591C90.6591 319.821 90.5909 319.524 90.4545 319.266C90.3182 319.004 90.1264 318.798 89.8793 318.648C89.6349 318.497 89.348 318.422 89.0185 318.422C88.6605 318.422 88.348 318.51 88.081 318.686C87.8168 318.859 87.6122 319.087 87.4673 319.368C87.3253 319.646 87.2543 319.949 87.2543 320.276V321.021C87.2543 321.459 87.331 321.831 87.4844 322.138C87.6406 322.445 87.858 322.679 88.1364 322.841C88.4148 323 88.7401 323.08 89.1122 323.08C89.3537 323.08 89.5739 323.045 89.7727 322.977C89.9716 322.906 90.1435 322.801 90.2884 322.662C90.4332 322.523 90.544 322.351 90.6207 322.146L91.8267 322.364C91.7301 322.719 91.5568 323.03 91.3068 323.297C91.0597 323.561 90.7486 323.767 90.3736 323.915C90.0014 324.06 89.5767 324.132 89.0994 324.132Z" fill="black"/>
<g clip-path="url(#clip3_2016_7599)">
<mask id="mask1_2016_7599" style="mask-type:luminance" maskUnits="userSpaceOnUse" x="43" y="347" width="15" height="14">
<path d="M43.5 347H57.5V361H43.5V347Z" fill="white"/>
</mask>
<g mask="url(#mask1_2016_7599)">
<path d="M49.9327 348.38C49.9735 348.262 50.0501 348.16 50.1517 348.087C50.2533 348.015 50.375 347.976 50.4997 347.976C50.6245 347.976 50.7461 348.015 50.8477 348.087C50.9494 348.16 51.0259 348.262 51.0667 348.38L52.0667 351.26C52.1071 351.375 52.182 351.476 52.2812 351.548C52.3804 351.62 52.4992 351.659 52.6217 351.662L55.6687 351.724C55.7933 351.726 55.914 351.768 56.014 351.842C56.114 351.916 56.1884 352.02 56.2269 352.138C56.2654 352.257 56.266 352.384 56.2287 352.503C56.1914 352.622 56.118 352.727 56.0187 352.802L53.5907 354.644C53.493 354.718 53.4203 354.82 53.3824 354.937C53.3445 355.053 53.3432 355.179 53.3787 355.296L54.2617 358.213C54.2977 358.332 54.2957 358.46 54.256 358.578C54.2162 358.696 54.1407 358.799 54.0399 358.872C53.9391 358.945 53.818 358.985 53.6934 358.986C53.5689 358.988 53.447 358.95 53.3447 358.879L50.8427 357.139C50.7421 357.069 50.6224 357.031 50.4997 357.031C50.3771 357.031 50.2573 357.069 50.1567 357.139L47.6547 358.879C47.5524 358.95 47.4306 358.988 47.306 358.986C47.1814 358.985 47.0603 358.945 46.9595 358.872C46.8587 358.799 46.7832 358.696 46.7434 358.578C46.7037 358.46 46.7017 358.332 46.7377 358.213L47.6207 355.296C47.6562 355.179 47.6549 355.053 47.617 354.937C47.5791 354.82 47.5064 354.718 47.4087 354.644L44.9797 352.802C44.8804 352.727 44.807 352.622 44.7697 352.503C44.7324 352.384 44.733 352.257 44.7715 352.138C44.81 352.02 44.8844 351.916 44.9844 351.842C45.0845 351.768 45.2051 351.726 45.3297 351.724L48.3777 351.662C48.5003 351.659 48.6192 351.62 48.7185 351.547C48.8177 351.475 48.8925 351.375 48.9327 351.259L49.9327 348.38Z" stroke="#5C5E63" stroke-width="1.1" stroke-linecap="round" stroke-linejoin="round"/>
</g>
</g>
<path d="M66.66 358V349.273H69.7708C70.4469 349.273 71.008 349.389 71.454 349.622C71.9029 349.855 72.2381 350.178 72.4597 350.589C72.6813 350.999 72.7921 351.472 72.7921 352.009C72.7921 352.543 72.6799 353.013 72.4554 353.419C72.2338 353.822 71.8986 354.136 71.4498 354.361C71.0037 354.585 70.4426 354.697 69.7665 354.697H67.41V353.564H69.6472C70.0733 353.564 70.4199 353.503 70.687 353.381C70.9569 353.259 71.1543 353.081 71.2793 352.848C71.4043 352.615 71.4668 352.335 71.4668 352.009C71.4668 351.679 71.4029 351.393 71.275 351.152C71.15 350.911 70.9526 350.726 70.6827 350.598C70.4157 350.467 70.0648 350.402 69.6301 350.402H67.9767V358H66.66ZM70.9682 354.062L73.1245 358H71.6245L69.5108 354.062H70.9682ZM76.1969 358.145C75.7821 358.145 75.4071 358.068 75.0719 357.915C74.7367 357.759 74.4711 357.533 74.275 357.237C74.0819 356.942 73.9853 356.58 73.9853 356.151C73.9853 355.781 74.0563 355.477 74.1983 355.239C74.3404 355 74.5321 354.811 74.7736 354.672C75.0151 354.533 75.285 354.428 75.5833 354.357C75.8816 354.286 76.1855 354.232 76.4952 354.195C76.8873 354.149 77.2054 354.112 77.4498 354.084C77.6941 354.053 77.8716 354.003 77.9824 353.935C78.0932 353.866 78.1486 353.756 78.1486 353.602V353.572C78.1486 353.2 78.0435 352.912 77.8333 352.707C77.6259 352.503 77.3162 352.401 76.9043 352.401C76.4753 352.401 76.1373 352.496 75.8901 352.686C75.6458 352.874 75.4767 353.082 75.383 353.312L74.1855 353.04C74.3276 352.642 74.535 352.321 74.8077 352.077C75.0833 351.83 75.4 351.651 75.758 351.54C76.1159 351.426 76.4924 351.369 76.8873 351.369C77.1486 351.369 77.4256 351.401 77.7182 351.463C78.0137 351.523 78.2892 351.634 78.5449 351.795C78.8034 351.957 79.0151 352.189 79.1799 352.49C79.3446 352.788 79.427 353.176 79.427 353.653V358H78.1827V357.105H78.1316C78.0492 357.27 77.9256 357.432 77.7608 357.591C77.5961 357.75 77.3844 357.882 77.1259 357.987C76.8674 358.092 76.5577 358.145 76.1969 358.145ZM76.4739 357.122C76.8262 357.122 77.1273 357.053 77.3773 356.913C77.6301 356.774 77.8219 356.592 77.9526 356.368C78.0861 356.141 78.1529 355.898 78.1529 355.639V354.795C78.1074 354.841 78.0194 354.884 77.8887 354.923C77.7608 354.96 77.6145 354.993 77.4498 355.021C77.285 355.047 77.1245 355.071 76.9682 355.094C76.812 355.114 76.6813 355.131 76.5762 355.145C76.329 355.176 76.1032 355.229 75.8986 355.303C75.6969 355.376 75.535 355.483 75.4128 355.622C75.2935 355.759 75.2338 355.94 75.2338 356.168C75.2338 356.483 75.3503 356.722 75.5833 356.884C75.8162 357.043 76.1131 357.122 76.4739 357.122ZM84.1795 351.455V352.477H80.6042V351.455H84.1795ZM81.563 349.886H82.8372V356.078C82.8372 356.325 82.8741 356.511 82.948 356.636C83.0218 356.759 83.117 356.842 83.2335 356.888C83.3528 356.93 83.4821 356.952 83.6213 356.952C83.7235 356.952 83.813 356.945 83.8897 356.93C83.9664 356.916 84.0261 356.905 84.0687 356.896L84.2988 357.949C84.225 357.977 84.1199 358.006 83.9835 358.034C83.8471 358.065 83.6767 358.082 83.4721 358.085C83.1369 358.091 82.8244 358.031 82.5346 357.906C82.2449 357.781 82.0105 357.588 81.8315 357.327C81.6525 357.065 81.563 356.737 81.563 356.342V349.886ZM85.589 358V351.455H86.8631V358H85.589ZM86.2324 350.445C86.0108 350.445 85.8205 350.371 85.6614 350.223C85.5051 350.072 85.427 349.893 85.427 349.686C85.427 349.476 85.5051 349.297 85.6614 349.149C85.8205 348.999 86.0108 348.923 86.2324 348.923C86.454 348.923 86.6429 348.999 86.7992 349.149C86.9583 349.297 87.0378 349.476 87.0378 349.686C87.0378 349.893 86.9583 350.072 86.7992 350.223C86.6429 350.371 86.454 350.445 86.2324 350.445ZM89.8514 354.114V358H88.5772V351.455H89.8002V352.52H89.8812C90.0318 352.173 90.2676 351.895 90.5886 351.685C90.9125 351.474 91.3201 351.369 91.8116 351.369C92.2576 351.369 92.6483 351.463 92.9835 351.651C93.3187 351.835 93.5787 352.111 93.7633 352.477C93.948 352.844 94.0403 353.297 94.0403 353.837V358H92.7662V353.99C92.7662 353.516 92.6426 353.145 92.3954 352.878C92.1483 352.608 91.8088 352.473 91.377 352.473C91.0815 352.473 90.8187 352.537 90.5886 352.665C90.3613 352.793 90.1809 352.98 90.0474 353.227C89.9167 353.472 89.8514 353.767 89.8514 354.114ZM98.4934 360.591C97.9735 360.591 97.5261 360.523 97.1511 360.386C96.7789 360.25 96.475 360.07 96.2392 359.845C96.0034 359.621 95.8272 359.375 95.7108 359.108L96.8059 358.656C96.8826 358.781 96.9849 358.913 97.1127 359.053C97.2434 359.195 97.4196 359.315 97.6412 359.415C97.8656 359.514 98.1539 359.564 98.5062 359.564C98.9892 359.564 99.3883 359.446 99.7037 359.21C100.019 358.977 100.177 358.605 100.177 358.094V356.807H100.096C100.019 356.946 99.9082 357.101 99.7633 357.271C99.6213 357.442 99.4252 357.589 99.1752 357.714C98.9252 357.839 98.6 357.902 98.1994 357.902C97.6824 357.902 97.2164 357.781 96.8017 357.54C96.3897 357.295 96.063 356.936 95.8216 356.462C95.5829 355.984 95.4636 355.398 95.4636 354.702C95.4636 354.006 95.5815 353.409 95.8173 352.912C96.0559 352.415 96.3826 352.034 96.7974 351.77C97.2122 351.503 97.6824 351.369 98.2079 351.369C98.6142 351.369 98.9423 351.438 99.1923 351.574C99.4423 351.707 99.6369 351.864 99.7761 352.043C99.9181 352.222 100.028 352.379 100.104 352.516H100.198V351.455H101.447V358.145C101.447 358.707 101.316 359.169 101.055 359.53C100.793 359.891 100.439 360.158 99.9934 360.331C99.5502 360.504 99.0502 360.591 98.4934 360.591ZM98.4806 356.845C98.8471 356.845 99.1568 356.76 99.4096 356.589C99.6653 356.416 99.8585 356.169 99.9892 355.848C100.123 355.524 100.189 355.136 100.189 354.685C100.189 354.244 100.124 353.857 99.9934 353.521C99.8627 353.186 99.671 352.925 99.4181 352.737C99.1653 352.547 98.8528 352.452 98.4806 352.452C98.0971 352.452 97.7775 352.551 97.5218 352.75C97.2662 352.946 97.073 353.213 96.9423 353.551C96.8145 353.889 96.7505 354.267 96.7505 354.685C96.7505 355.114 96.8159 355.49 96.9466 355.814C97.0772 356.138 97.2704 356.391 97.5261 356.572C97.7846 356.754 98.1028 356.845 98.4806 356.845Z" fill="black"/>
<g clip-path="url(#clip4_2016_7599)">
<mask id="mask2_2016_7599" style="mask-type:luminance" maskUnits="userSpaceOnUse" x="43" y="381" width="15" height="14">
<path d="M43.5 381H57.5V395H43.5V381Z" fill="white"/>
</mask>
<g mask="url(#mask2_2016_7599)">
<path d="M50.5 393.75C53.6756 393.75 56.25 391.176 56.25 388C56.25 384.824 53.6756 382.25 50.5 382.25C47.3244 382.25 44.75 384.824 44.75 388C44.75 391.176 47.3244 393.75 50.5 393.75Z" stroke="#5C5E63" stroke-width="1.1" stroke-linejoin="round"/>
<path d="M50.5664 384.904V387.019C50.5664 387.253 50.4733 387.478 50.3075 387.644C50.1418 387.81 49.9169 387.904 49.6824 387.904H48.0664" stroke="#5C5E63" stroke-width="1.1" stroke-linecap="round" stroke-linejoin="round"/>
</g>
</g>
<path d="M66.4308 384.406V383.273H73.185V384.406H70.462V392H69.1495V384.406H66.4308ZM74.5753 392V385.455H75.8494V392H74.5753ZM75.2188 384.445C74.9972 384.445 74.8068 384.371 74.6477 384.223C74.4915 384.072 74.4134 383.893 74.4134 383.686C74.4134 383.476 74.4915 383.297 74.6477 383.149C74.8068 382.999 74.9972 382.923 75.2188 382.923C75.4403 382.923 75.6293 382.999 75.7855 383.149C75.9446 383.297 76.0241 383.476 76.0241 383.686C76.0241 383.893 75.9446 384.072 75.7855 384.223C75.6293 384.371 75.4403 384.445 75.2188 384.445ZM77.5636 392V385.455H78.7866V386.52H78.8675C79.0039 386.159 79.2269 385.878 79.5366 385.676C79.8462 385.472 80.217 385.369 80.6488 385.369C81.0863 385.369 81.4528 385.472 81.7482 385.676C82.0465 385.881 82.2667 386.162 82.4087 386.52H82.4769C82.6332 386.17 82.8817 385.892 83.2227 385.685C83.5636 385.474 83.9698 385.369 84.4414 385.369C85.0352 385.369 85.5195 385.555 85.8945 385.928C86.2724 386.3 86.4613 386.861 86.4613 387.611V392H85.1871V387.73C85.1871 387.287 85.0664 386.966 84.8249 386.767C84.5835 386.568 84.2951 386.469 83.9599 386.469C83.5451 386.469 83.2227 386.597 82.9925 386.852C82.7624 387.105 82.6474 387.43 82.6474 387.828V392H81.3775V387.649C81.3775 387.294 81.2667 387.009 81.0451 386.793C80.8235 386.577 80.5352 386.469 80.18 386.469C79.9386 386.469 79.7156 386.533 79.511 386.661C79.3093 386.786 79.146 386.96 79.021 387.185C78.8988 387.409 78.8377 387.669 78.8377 387.964V392H77.5636ZM90.9901 392.132C90.3452 392.132 89.7898 391.994 89.3239 391.719C88.8608 391.44 88.5028 391.05 88.25 390.547C88 390.041 87.875 389.449 87.875 388.77C87.875 388.099 88 387.509 88.25 386.997C88.5028 386.486 88.8551 386.087 89.3068 385.8C89.7614 385.513 90.2926 385.369 90.9006 385.369C91.2699 385.369 91.6278 385.43 91.9744 385.553C92.321 385.675 92.6321 385.866 92.9077 386.128C93.1832 386.389 93.4006 386.729 93.5597 387.146C93.7188 387.561 93.7983 388.065 93.7983 388.659V389.111H88.5952V388.156H92.5497C92.5497 387.821 92.4815 387.524 92.3452 387.266C92.2088 387.004 92.017 386.798 91.7699 386.648C91.5256 386.497 91.2386 386.422 90.9091 386.422C90.5511 386.422 90.2386 386.51 89.9716 386.686C89.7074 386.859 89.5028 387.087 89.358 387.368C89.2159 387.646 89.1449 387.949 89.1449 388.276V389.021C89.1449 389.459 89.2216 389.831 89.375 390.138C89.5312 390.445 89.7486 390.679 90.027 390.841C90.3054 391 90.6307 391.08 91.0028 391.08C91.2443 391.08 91.4645 391.045 91.6634 390.977C91.8622 390.906 92.0341 390.801 92.179 390.662C92.3239 390.523 92.4347 390.351 92.5114 390.146L93.7173 390.364C93.6207 390.719 93.4474 391.03 93.1974 391.297C92.9503 391.561 92.6392 391.767 92.2642 391.915C91.892 392.06 91.4673 392.132 90.9901 392.132ZM100.117 387.053L98.962 387.257C98.9137 387.109 98.837 386.969 98.7319 386.835C98.6296 386.702 98.4904 386.592 98.3143 386.507C98.1381 386.422 97.918 386.379 97.6538 386.379C97.293 386.379 96.9918 386.46 96.7504 386.622C96.5089 386.781 96.3881 386.987 96.3881 387.24C96.3881 387.459 96.4691 387.635 96.631 387.768C96.793 387.902 97.0543 388.011 97.4151 388.097L98.4549 388.335C99.0572 388.474 99.506 388.689 99.8015 388.979C100.097 389.268 100.245 389.645 100.245 390.108C100.245 390.5 100.131 390.849 99.9038 391.156C99.6793 391.46 99.3654 391.699 98.962 391.872C98.5614 392.045 98.0969 392.132 97.5685 392.132C96.8356 392.132 96.2376 391.976 95.7745 391.663C95.3114 391.348 95.0273 390.901 94.9222 390.321L96.1538 390.134C96.2305 390.455 96.3881 390.697 96.6268 390.862C96.8654 391.024 97.1765 391.105 97.56 391.105C97.9776 391.105 98.3114 391.018 98.5614 390.845C98.8114 390.669 98.9364 390.455 98.9364 390.202C98.9364 389.997 98.8597 389.825 98.7063 389.686C98.5558 389.547 98.3242 389.442 98.0117 389.371L96.9038 389.128C96.293 388.989 95.8413 388.767 95.5487 388.463C95.2589 388.159 95.114 387.774 95.114 387.308C95.114 386.922 95.2219 386.584 95.4379 386.294C95.6538 386.004 95.9521 385.778 96.3327 385.616C96.7134 385.452 97.1495 385.369 97.641 385.369C98.3484 385.369 98.9052 385.523 99.3114 385.83C99.7177 386.134 99.9862 386.541 100.117 387.053ZM104.701 385.455V386.477H101.126V385.455H104.701ZM102.085 383.886H103.359V390.078C103.359 390.325 103.396 390.511 103.469 390.636C103.543 390.759 103.638 390.842 103.755 390.888C103.874 390.93 104.004 390.952 104.143 390.952C104.245 390.952 104.335 390.945 104.411 390.93C104.488 390.916 104.548 390.905 104.59 390.896L104.82 391.949C104.746 391.977 104.641 392.006 104.505 392.034C104.369 392.065 104.198 392.082 103.994 392.085C103.658 392.091 103.346 392.031 103.056 391.906C102.766 391.781 102.532 391.588 102.353 391.327C102.174 391.065 102.085 390.737 102.085 390.342V383.886ZM108.015 392.145C107.6 392.145 107.225 392.068 106.89 391.915C106.555 391.759 106.289 391.533 106.093 391.237C105.9 390.942 105.804 390.58 105.804 390.151C105.804 389.781 105.875 389.477 106.017 389.239C106.159 389 106.35 388.811 106.592 388.672C106.833 388.533 107.103 388.428 107.402 388.357C107.7 388.286 108.004 388.232 108.314 388.195C108.706 388.149 109.024 388.112 109.268 388.084C109.512 388.053 109.69 388.003 109.801 387.935C109.912 387.866 109.967 387.756 109.967 387.602V387.572C109.967 387.2 109.862 386.912 109.652 386.707C109.444 386.503 109.135 386.401 108.723 386.401C108.294 386.401 107.956 386.496 107.708 386.686C107.464 386.874 107.295 387.082 107.201 387.312L106.004 387.04C106.146 386.642 106.353 386.321 106.626 386.077C106.902 385.83 107.218 385.651 107.576 385.54C107.934 385.426 108.311 385.369 108.706 385.369C108.967 385.369 109.244 385.401 109.537 385.463C109.832 385.523 110.108 385.634 110.363 385.795C110.622 385.957 110.833 386.189 110.998 386.49C111.163 386.788 111.245 387.176 111.245 387.653V392H110.001V391.105H109.95C109.868 391.27 109.744 391.432 109.579 391.591C109.414 391.75 109.203 391.882 108.944 391.987C108.686 392.092 108.376 392.145 108.015 392.145ZM108.292 391.122C108.645 391.122 108.946 391.053 109.196 390.913C109.449 390.774 109.64 390.592 109.771 390.368C109.904 390.141 109.971 389.898 109.971 389.639V388.795C109.926 388.841 109.838 388.884 109.707 388.923C109.579 388.96 109.433 388.993 109.268 389.021C109.103 389.047 108.943 389.071 108.787 389.094C108.63 389.114 108.5 389.131 108.395 389.145C108.147 389.176 107.922 389.229 107.717 389.303C107.515 389.376 107.353 389.483 107.231 389.622C107.112 389.759 107.052 389.94 107.052 390.168C107.052 390.483 107.169 390.722 107.402 390.884C107.635 391.043 107.931 391.122 108.292 391.122ZM112.942 392V385.455H114.165V386.52H114.246C114.383 386.159 114.606 385.878 114.915 385.676C115.225 385.472 115.596 385.369 116.028 385.369C116.465 385.369 116.832 385.472 117.127 385.676C117.425 385.881 117.646 386.162 117.788 386.52H117.856C118.012 386.17 118.261 385.892 118.602 385.685C118.942 385.474 119.349 385.369 119.82 385.369C120.414 385.369 120.898 385.555 121.273 385.928C121.651 386.3 121.84 386.861 121.84 387.611V392H120.566V387.73C120.566 387.287 120.445 386.966 120.204 386.767C119.962 386.568 119.674 386.469 119.339 386.469C118.924 386.469 118.602 386.597 118.371 386.852C118.141 387.105 118.026 387.43 118.026 387.828V392H116.756V387.649C116.756 387.294 116.646 387.009 116.424 386.793C116.202 386.577 115.914 386.469 115.559 386.469C115.317 386.469 115.094 386.533 114.89 386.661C114.688 386.786 114.525 386.96 114.4 387.185C114.278 387.409 114.217 387.669 114.217 387.964V392H112.942ZM123.548 394.455V385.455H124.792V386.516H124.899C124.973 386.379 125.079 386.222 125.218 386.043C125.358 385.864 125.551 385.707 125.798 385.574C126.045 385.438 126.372 385.369 126.778 385.369C127.306 385.369 127.778 385.503 128.193 385.77C128.608 386.037 128.933 386.422 129.169 386.925C129.407 387.428 129.527 388.033 129.527 388.74C129.527 389.447 129.409 390.054 129.173 390.56C128.937 391.062 128.613 391.45 128.201 391.723C127.789 391.993 127.319 392.128 126.791 392.128C126.393 392.128 126.068 392.061 125.815 391.928C125.565 391.794 125.369 391.638 125.227 391.459C125.085 391.28 124.975 391.121 124.899 390.982H124.822V394.455H123.548ZM124.797 388.727C124.797 389.187 124.863 389.591 124.997 389.938C125.13 390.284 125.324 390.555 125.576 390.751C125.829 390.945 126.139 391.041 126.505 391.041C126.886 391.041 127.204 390.94 127.46 390.739C127.716 390.534 127.909 390.257 128.039 389.908C128.173 389.558 128.24 389.165 128.24 388.727C128.24 388.295 128.174 387.908 128.044 387.564C127.916 387.22 127.723 386.949 127.464 386.75C127.208 386.551 126.889 386.452 126.505 386.452C126.136 386.452 125.824 386.547 125.568 386.737C125.315 386.928 125.123 387.193 124.993 387.534C124.862 387.875 124.797 388.273 124.797 388.727Z" fill="black"/>
<rect x="305.5" y="201" width="8" height="100" rx="4" fill="#D9D9D9"/>
</g>
<defs>
<filter id="filter0_d_2016_7599" x="16.5" y="189" width="316" height="230" filterUnits="userSpaceOnUse" color-interpolation-filters="sRGB">
<feFlood flood-opacity="0" result="BackgroundImageFix"/>
<feColorMatrix in="SourceAlpha" type="matrix" values="0 0 0 0 0 0 0 0 0 0 0 0 0 0 0 0 0 0 127 0" result="hardAlpha"/>
<feOffset dy="1"/>
<feGaussianBlur stdDeviation="3.5"/>
<feComposite in2="hardAlpha" operator="out"/>
<feColorMatrix type="matrix" values="0 0 0 0 0 0 0 0 0 0 0 0 0 0 0 0 0 0 0.12 0"/>
<feBlend mode="normal" in2="BackgroundImageFix" result="effect1_dropShadow_2016_7599"/>
<feBlend mode="normal" in="SourceGraphic" in2="effect1_dropShadow_2016_7599" result="shape"/>
</filter>
<clipPath id="clip0_2016_7599">
<rect width="14" height="14" fill="white" transform="translate(43.5 211)"/>
</clipPath>
<clipPath id="clip1_2016_7599">
<rect width="14" height="14" fill="white" transform="translate(43.5 279)"/>
</clipPath>
<clipPath id="clip2_2016_7599">
<rect width="14" height="14" fill="white" transform="translate(43.5 313)"/>
</clipPath>
<clipPath id="clip3_2016_7599">
<rect width="14" height="14" fill="white" transform="translate(43.5 347)"/>
</clipPath>
<clipPath id="clip4_2016_7599">
<rect width="14" height="14" fill="white" transform="translate(43.5 381)"/>
</clipPath>
</defs>
</svg>
