<svg width="650" height="362" viewBox="0 0 650 362" fill="none" xmlns="http://www.w3.org/2000/svg">
<path d="M22.3672 -2.09277V477.086" stroke="#4B8BFF" stroke-width="1.0452" stroke-miterlimit="10"/>
<path d="M273.215 242.729H649.486" stroke="#4B8BFF" stroke-width="1.0452" stroke-miterlimit="10"/>
<path d="M273.215 326.428H649.486" stroke="#4B8BFF" stroke-width="1.0452" stroke-miterlimit="10"/>
<path d="M273.215 284.578H649.486" stroke="#4B8BFF" stroke-width="1.0452" stroke-miterlimit="10"/>
<path d="M273.215 200.878H649.486" stroke="#4B8BFF" stroke-width="1.0452" stroke-miterlimit="10"/>
<path d="M273.215 200.941V416.405" stroke="#4B8BFF" stroke-width="1.0452" stroke-miterlimit="10"/>
<path d="M398.638 200.941V416.405" stroke="#4B8BFF" stroke-width="1.0452" stroke-miterlimit="10"/>
<path d="M524.062 200.941V416.405" stroke="#4B8BFF" stroke-width="1.0452" stroke-miterlimit="10"/>
<path d="M524.062 -2.09277V200.878" stroke="#4B8BFF" stroke-width="1.0452" stroke-miterlimit="10"/>
<path d="M215.729 254.759C215.729 195.533 167.529 147.52 108.073 147.52C48.6173 147.52 0.417969 195.533 0.417969 254.759C0.417969 313.986 48.6173 361.999 108.073 361.999C167.529 361.999 215.729 313.986 215.729 254.759Z" fill="#266DF0" stroke="#6B9FFF" stroke-width="0.836158" stroke-miterlimit="10"/>
<path d="M343.243 338.895H183.327C169.473 338.895 158.243 350.137 158.243 364.004V405.854C158.243 419.722 169.473 430.964 183.327 430.964H343.243C357.097 430.964 368.327 419.722 368.327 405.854V364.004C368.327 350.137 357.097 338.895 343.243 338.895Z" fill="#266DF0" stroke="#6B9FFF" stroke-width="0.836158" stroke-miterlimit="10"/>
<path d="M195.844 30.4607L122.985 58.1153C116.176 60.7002 112.749 68.3217 115.33 75.1383L142.957 148.069C145.54 154.886 153.154 158.317 159.963 155.732L232.822 128.077C239.631 125.492 243.059 117.871 240.476 111.054L212.849 38.1233C210.268 31.3065 202.653 27.8759 195.844 30.4607Z" fill="#266DF0" stroke="#6B9FFF" stroke-width="0.836158" stroke-miterlimit="10"/>
<path d="M614.809 52.7229C619.829 52.7229 623.899 48.6493 623.899 43.6241C623.899 38.599 619.829 34.5254 614.809 34.5254C609.789 34.5254 605.72 38.599 605.72 43.6241C605.72 48.6493 609.789 52.7229 614.809 52.7229Z" fill="#266DF0" stroke="#6B9FFF" stroke-width="0.836158" stroke-miterlimit="10"/>
<path d="M584.954 52.7229C589.974 52.7229 594.044 48.6493 594.044 43.6241C594.044 38.599 589.974 34.5254 584.954 34.5254C579.934 34.5254 575.864 38.599 575.864 43.6241C575.864 48.6493 579.934 52.7229 584.954 52.7229Z" fill="#266DF0" stroke="#6B9FFF" stroke-width="0.836158" stroke-miterlimit="10"/>
<path d="M555.101 52.7229C560.121 52.7229 564.19 48.6493 564.19 43.6241C564.19 38.599 560.121 34.5254 555.101 34.5254C550.081 34.5254 546.011 38.599 546.011 43.6241C546.011 48.6493 550.081 52.7229 555.101 52.7229Z" fill="#266DF0" stroke="#6B9FFF" stroke-width="0.836158" stroke-miterlimit="10"/>
<path d="M491.284 234.702C491.303 231.191 494.754 228.208 498.582 229.398L580.948 255.296C583.853 256.202 584.983 259.108 584.286 261.544L581.25 281.4C580.835 283.987 579.081 286.158 576.649 287.101L564.015 292.008L548.308 298.106C547.251 298.521 546.422 299.314 545.951 300.333L535.277 323.814C532.58 328.722 525.528 328.684 522.869 323.757L491.925 257.636C490.983 255.636 490.549 253.427 490.624 251.218L491.284 234.702Z" fill="#266DF0" stroke="#8FB7FF" stroke-width="1.88136" stroke-miterlimit="10" stroke-linejoin="round"/>
<path d="M546.761 277.946L536.352 296.822C533.656 301.73 526.603 301.692 523.945 296.765L491.963 237.42C489.568 232.984 493.773 227.888 498.582 229.398L580.949 255.295C585.587 256.749 585.681 263.298 581.081 264.903L549.118 275.964C548.119 276.304 547.271 277.021 546.743 277.965L546.761 277.946Z" fill="#266DF0" stroke="#8FB7FF" stroke-width="1.88136" stroke-miterlimit="10" stroke-linejoin="round"/>
<path d="M546.534 299.407L548.193 276.398" stroke="#8FB7FF" stroke-width="1.0452" stroke-miterlimit="10" stroke-linejoin="round"/>
<path d="M535.296 323.794L538.558 292.688" stroke="#8FB7FF" stroke-width="1.0452" stroke-miterlimit="10" stroke-linejoin="round"/>
<path d="M522.888 323.738L522.152 293.669" stroke="#8FB7FF" stroke-width="1.0452" stroke-miterlimit="10" stroke-linejoin="round"/>
<path d="M537.752 149.756L510.164 193.486C507.254 198.146 502.152 200.984 496.647 200.984H439.8C434.294 200.998 429.192 198.146 426.282 193.486L398.978 149.756C395.74 144.574 395.74 138.017 398.964 132.849L426.55 89.1189C429.475 84.4442 434.563 81.6064 440.053 81.6064H496.915C502.42 81.6064 507.523 84.4442 510.433 89.089L537.737 132.849C540.975 138.017 540.975 144.588 537.752 149.756Z" fill="#266DF0" stroke="#8FB7FF" stroke-width="1.88136" stroke-miterlimit="10"/>
<path d="M499.853 97.8406C500.823 96.3023 502.435 96.123 503.077 96.123C503.733 96.123 505.329 96.2873 506.299 97.8406L508.134 100.798V100.738L529.828 135.492C532.037 139.032 532.037 143.603 529.828 147.126L519.638 163.361L506.016 184.957C505.046 186.496 503.554 186.675 502.957 186.661C502.345 186.661 500.839 186.496 499.869 184.943L476.339 147.231C474.131 143.706 474.116 139.152 476.28 135.597L499.853 97.8406Z" fill="#266DF0" stroke="#8FB7FF" stroke-width="1.0452" stroke-miterlimit="10"/>
<path d="M157.212 262.143C157.06 258.151 158.125 254.128 160.317 250.608L292.216 39.2989C295.99 33.2497 302.597 29.5928 309.721 29.5928H383.365C390.489 29.5928 397.11 33.2649 400.885 39.2989L403.656 43.7481L404.645 45.3328L418.619 67.701L436.261 95.9508C438.346 99.303 439.397 103.097 439.397 106.907C439.397 110.7 438.346 114.51 436.261 117.862L325.384 295.467L307.179 324.631L307.118 324.738L304.378 329.156C300.603 335.191 293.981 338.862 286.857 338.862H213.198C206.074 338.862 199.453 335.175 195.677 329.156L176.665 298.697L160.317 272.489C158.338 269.32 157.287 265.755 157.212 262.143Z" fill="#266DF0" stroke="#8FB7FF" stroke-width="1.88136" stroke-linejoin="round"/>
<path d="M297.178 317.836C296.371 317.836 294.347 317.607 293.053 315.55L277.161 290.089L265.044 271.118L262.792 267.522C261.391 265.282 260.615 262.707 260.554 260.117C260.462 257.146 261.239 254.281 262.792 251.783L322.05 156.855L388.038 51.0626C389.332 48.9903 391.372 48.7617 392.178 48.7617C392.985 48.7617 395.025 48.9903 396.319 51.0626L397.278 52.6015L426.626 99.0598C429.61 103.844 429.61 110.03 426.626 114.815L301.349 315.443L301.288 315.55C299.994 317.607 297.985 317.836 297.163 317.836H297.178Z" fill="#266DF0" stroke="#8FB7FF" stroke-width="1.0452" stroke-miterlimit="10" stroke-linejoin="round"/>
</svg>
