<svg width="291" height="116" viewBox="0 0 291 116" fill="none" xmlns="http://www.w3.org/2000/svg">
<path d="M286.208 15H4.29199V103H286.208V15Z" stroke="#505967" stroke-width="0.5" stroke-linecap="round" stroke-dasharray="4 4"/>
<path d="M7.32317 10H2.27091C1.15479 10 0.25 10.8954 0.25 12V17C0.25 18.1046 1.15479 19 2.27091 19H7.32317C8.43929 19 9.34408 18.1046 9.34408 17V12C9.34408 10.8954 8.43929 10 7.32317 10Z" fill="#26282D" stroke="#505967" stroke-width="0.5"/>
<path d="M288.229 10H283.177C282.061 10 281.156 10.8954 281.156 12V17C281.156 18.1046 282.061 19 283.177 19H288.229C289.345 19 290.25 18.1046 290.25 17V12C290.25 10.8954 289.345 10 288.229 10Z" fill="#26282D" stroke="#505967" stroke-width="0.5"/>
<path d="M7.32317 98H2.27091C1.15479 98 0.25 98.8954 0.25 100V105C0.25 106.105 1.15479 107 2.27091 107H7.32317C8.43929 107 9.34408 106.105 9.34408 105V100C9.34408 98.8954 8.43929 98 7.32317 98Z" fill="#26282D" stroke="#505967" stroke-width="0.5"/>
<path d="M288.229 98H283.177C282.061 98 281.156 98.8954 281.156 100V105C281.156 106.105 282.061 107 283.177 107H288.229C289.345 107 290.25 106.105 290.25 105V100C290.25 98.8954 289.345 98 288.229 98Z" fill="#26282D" stroke="#505967" stroke-width="0.5"/>
<path d="M231.644 0H58.8562C55.5078 0 52.7935 2.68629 52.7935 6V28C52.7935 31.3137 55.5078 34 58.8562 34H231.644C234.992 34 237.706 31.3137 237.706 28V6C237.706 2.68629 234.992 0 231.644 0Z" fill="#26282D"/>
<path d="M231.644 0.25H58.8565C55.6477 0.25 53.0464 2.82436 53.0464 6V28C53.0464 31.1756 55.6477 33.75 58.8565 33.75H231.644C234.853 33.75 237.454 31.1756 237.454 28V6C237.454 2.82436 234.853 0.25 231.644 0.25Z" stroke="#505967" stroke-width="0.5"/>
<path d="M114.431 14H86.1383C84.4641 14 83.1069 15.3431 83.1069 17C83.1069 18.6569 84.4641 20 86.1383 20H114.431C116.105 20 117.462 18.6569 117.462 17C117.462 15.3431 116.105 14 114.431 14Z" fill="#505967"/>
<path fill-rule="evenodd" clip-rule="evenodd" d="M63.7361 13.6702C63.6314 13.8835 63.5732 14.1202 63.5732 14.3694V19.6313C63.5732 20.5715 64.4026 21.3337 65.4257 21.3337H72.4989C73.522 21.3337 74.3513 20.5715 74.3513 19.6313V14.3694C74.3513 14.1202 74.2931 13.8835 74.1885 13.6702L69.3016 17.5522C69.109 17.7051 68.8156 17.7051 68.623 17.5522L63.7361 13.6702ZM73.5602 12.9739C73.2596 12.7805 72.8937 12.667 72.4989 12.667H65.4257C65.0309 12.667 64.6649 12.7805 64.3644 12.9739L68.9623 16.6263L73.5602 12.9739Z" fill="#6B9FFF"/>
<path d="M220.781 12.0625C220.781 14.1336 219.654 16 217.56 16C219.654 16 220.781 17.8664 220.781 19.9375C220.781 17.8664 221.909 16 224.002 16C221.909 16 220.781 14.1336 220.781 12.0625Z" fill="#505967"/>
<path d="M215.477 18.0625C215.477 19.3051 214.269 20.5 213.013 20.5C214.269 20.5 215.477 21.6949 215.477 22.9375C215.477 21.6949 216.684 20.5 217.939 20.5C216.684 20.5 215.477 19.3051 215.477 18.0625Z" fill="#505967"/>
<path d="M220.781 12.0625C220.781 14.1336 219.654 16 217.56 16C219.654 16 220.781 17.8664 220.781 19.9375C220.781 17.8664 221.909 16 224.002 16C221.909 16 220.781 14.1336 220.781 12.0625Z" stroke="#505967" stroke-width="1.35" stroke-linecap="round" stroke-linejoin="round"/>
<path d="M215.477 18.0625C215.477 19.3051 214.269 20.5 213.013 20.5C214.269 20.5 215.477 21.6949 215.477 22.9375C215.477 21.6949 216.684 20.5 217.939 20.5C216.684 20.5 215.477 19.3051 215.477 18.0625Z" stroke="#505967" stroke-width="1.35" stroke-linecap="round" stroke-linejoin="round"/>
<path d="M231.644 82H58.8562C55.5078 82 52.7935 84.6863 52.7935 88V110C52.7935 113.314 55.5078 116 58.8562 116H231.644C234.992 116 237.706 113.314 237.706 110V88C237.706 84.6863 234.992 82 231.644 82Z" fill="#26282D"/>
<path d="M231.644 82.25H58.8565C55.6477 82.25 53.0464 84.8244 53.0464 88V110C53.0464 113.176 55.6477 115.75 58.8565 115.75H231.644C234.853 115.75 237.454 113.176 237.454 110V88C237.454 84.8244 234.853 82.25 231.644 82.25Z" stroke="#505967" stroke-width="0.5"/>
<path d="M124.536 96H86.1383C84.4641 96 83.1069 97.3431 83.1069 99C83.1069 100.657 84.4641 102 86.1383 102H124.536C126.21 102 127.567 100.657 127.567 99C127.567 97.3431 126.21 96 124.536 96Z" fill="#505967"/>
<path fill-rule="evenodd" clip-rule="evenodd" d="M68.6753 104.246C68.6754 104.247 68.6755 104.247 68.9596 103.833L68.6753 104.246ZM69.2443 104.246L69.2482 104.244L69.2587 104.236L69.297 104.21C69.33 104.187 69.3773 104.154 69.4373 104.111C69.557 104.025 69.7268 103.9 69.9299 103.742C70.3353 103.426 70.8777 102.975 71.422 102.437C71.9646 101.9 72.5205 101.264 72.9433 100.578C73.3639 99.895 73.6751 99.127 73.6751 98.333C73.6751 95.714 71.4611 93.667 68.9596 93.667C66.4581 93.667 64.2441 95.714 64.2441 98.333C64.2441 99.127 64.5554 99.895 64.9759 100.578C65.3988 101.264 65.9546 101.9 66.4972 102.437C67.0416 102.975 67.584 103.426 67.9894 103.742C68.1925 103.9 68.3622 104.025 68.482 104.111C68.5419 104.154 68.5893 104.187 68.6222 104.21L68.6605 104.236L68.671 104.244L68.6741 104.246H68.6753C68.8468 104.362 69.0728 104.362 69.2443 104.246ZM68.9596 103.833L69.2443 104.246C69.2442 104.246 69.2438 104.247 68.9596 103.833ZM67.1078 98.333C67.1078 97.32 67.9371 96.5 68.9602 96.5C69.9834 96.5 70.8128 97.32 70.8128 98.333C70.8128 99.345 69.9834 100.166 68.9602 100.166C67.9371 100.166 67.1078 99.345 67.1078 98.333Z" fill="#6B9FFF"/>
<path d="M220.781 94.0615C220.781 96.1335 219.654 97.9995 217.56 97.9995C219.654 97.9995 220.781 99.8655 220.781 101.937C220.781 99.8655 221.909 97.9995 224.002 97.9995C221.909 97.9995 220.781 96.1335 220.781 94.0615Z" fill="#505967"/>
<path d="M215.477 100.062C215.477 101.305 214.269 102.5 213.013 102.5C214.269 102.5 215.477 103.695 215.477 104.937C215.477 103.695 216.684 102.5 217.939 102.5C216.684 102.5 215.477 101.305 215.477 100.062Z" fill="#505967"/>
<path d="M220.781 94.0615C220.781 96.1335 219.654 97.9995 217.56 97.9995C219.654 97.9995 220.781 99.8655 220.781 101.937C220.781 99.8655 221.909 97.9995 224.002 97.9995C221.909 97.9995 220.781 96.1335 220.781 94.0615Z" stroke="#505967" stroke-width="1.35" stroke-linecap="round" stroke-linejoin="round"/>
<path d="M215.477 100.062C215.477 101.305 214.269 102.5 213.013 102.5C214.269 102.5 215.477 103.695 215.477 104.937C215.477 103.695 216.684 102.5 217.939 102.5C216.684 102.5 215.477 101.305 215.477 100.062Z" stroke="#505967" stroke-width="1.35" stroke-linecap="round" stroke-linejoin="round"/>
<path d="M231.644 41H58.8562C55.5078 41 52.7935 43.6863 52.7935 47V69C52.7935 72.3137 55.5078 75 58.8562 75H231.644C234.992 75 237.706 72.3137 237.706 69V47C237.706 43.6863 234.992 41 231.644 41Z" fill="#26282D"/>
<path d="M231.644 41.25H58.8565C55.6477 41.25 53.0464 43.8244 53.0464 47V69C53.0464 72.1756 55.6477 74.75 58.8565 74.75H231.644C234.853 74.75 237.454 72.1756 237.454 69V47C237.454 43.8244 234.853 41.25 231.644 41.25Z" stroke="#505967" stroke-width="0.5"/>
<path d="M136.661 55H86.1383C84.4641 55 83.1069 56.3431 83.1069 58C83.1069 59.6569 84.4641 61 86.1383 61H136.661C138.335 61 139.692 59.6569 139.692 58C139.692 56.3431 138.335 55 136.661 55Z" fill="#505967"/>
<path d="M64.0781 62.8332L66.941 62.1666L73.2011 55.9713C73.4641 55.711 73.4641 55.2888 73.2011 55.0285L71.9644 53.8046C71.7014 53.5443 71.2748 53.5443 71.0118 53.8046L64.7517 59.9999L64.0781 62.8332Z" fill="#6F7988" stroke="#6F7988" stroke-width="1.2" stroke-linecap="round" stroke-linejoin="round"/>
<path d="M73.846 62.833H70.1411" stroke="#6F7988" stroke-width="1.2" stroke-linecap="round" stroke-linejoin="round"/>
<path d="M220.781 53.0625C220.781 55.1336 219.654 57 217.56 57C219.654 57 220.781 58.8664 220.781 60.9375C220.781 58.8664 221.909 57 224.002 57C221.909 57 220.781 55.1336 220.781 53.0625Z" fill="#9098A0"/>
<path d="M215.477 59.0625C215.477 60.3051 214.269 61.5 213.013 61.5C214.269 61.5 215.477 62.6949 215.477 63.9375C215.477 62.6949 216.684 61.5 217.939 61.5C216.684 61.5 215.477 60.3051 215.477 59.0625Z" fill="#9098A0"/>
<path d="M220.781 53.0625C220.781 55.1336 219.654 57 217.56 57C219.654 57 220.781 58.8664 220.781 60.9375C220.781 58.8664 221.909 57 224.002 57C221.909 57 220.781 55.1336 220.781 53.0625Z" stroke="#9098A0" stroke-width="1.35" stroke-linecap="round" stroke-linejoin="round"/>
<path d="M215.477 59.0625C215.477 60.3051 214.269 61.5 213.013 61.5C214.269 61.5 215.477 62.6949 215.477 63.9375C215.477 62.6949 216.684 61.5 217.939 61.5C216.684 61.5 215.477 60.3051 215.477 59.0625Z" stroke="#9098A0" stroke-width="1.35" stroke-linecap="round" stroke-linejoin="round"/>
</svg>
