<svg width="291" height="117" viewBox="0 0 291 117" fill="none" xmlns="http://www.w3.org/2000/svg">
<path d="M286.208 15H4.29199V103H286.208V15Z" stroke="#505967" stroke-width="0.5" stroke-linecap="round" stroke-dasharray="4 4"/>
<path d="M7.32317 10H2.27091C1.15479 10 0.25 10.8954 0.25 12V17C0.25 18.1046 1.15479 19 2.27091 19H7.32317C8.43929 19 9.34408 18.1046 9.34408 17V12C9.34408 10.8954 8.43929 10 7.32317 10Z" fill="#26282D" stroke="#505967" stroke-width="0.5"/>
<path d="M288.229 10H283.177C282.061 10 281.156 10.8954 281.156 12V17C281.156 18.1046 282.061 19 283.177 19H288.229C289.345 19 290.25 18.1046 290.25 17V12C290.25 10.8954 289.345 10 288.229 10Z" fill="#26282D" stroke="#505967" stroke-width="0.5"/>
<path d="M7.32317 98H2.27091C1.15479 98 0.25 98.8954 0.25 100V105C0.25 106.105 1.15479 107 2.27091 107H7.32317C8.43929 107 9.34408 106.105 9.34408 105V100C9.34408 98.8954 8.43929 98 7.32317 98Z" fill="#26282D" stroke="#505967" stroke-width="0.5"/>
<path d="M288.229 98H283.177C282.061 98 281.156 98.8954 281.156 100V105C281.156 106.105 282.061 107 283.177 107H288.229C289.345 107 290.25 106.105 290.25 105V100C290.25 98.8954 289.345 98 288.229 98Z" fill="#26282D" stroke="#505967" stroke-width="0.5"/>
<path d="M232.316 0H59.529C56.1807 0 53.4663 2.68629 53.4663 6V28C53.4663 31.3137 56.1807 34 59.529 34H232.316C235.665 34 238.379 31.3137 238.379 28V6C238.379 2.68629 235.665 0 232.316 0Z" fill="#26282D"/>
<path d="M232.317 0.25H59.5293C56.3205 0.25 53.7192 2.82436 53.7192 6V28C53.7192 31.1756 56.3205 33.75 59.5293 33.75H232.317C235.526 33.75 238.127 31.1756 238.127 28V6C238.127 2.82436 235.526 0.25 232.317 0.25Z" stroke="#505967" stroke-width="0.5"/>
<path d="M64.5817 20C66.2558 20 67.613 18.6569 67.613 17C67.613 15.3431 66.2558 14 64.5817 14C62.9075 14 61.5503 15.3431 61.5503 17C61.5503 18.6569 62.9075 20 64.5817 20Z" fill="#505967"/>
<path d="M74.6861 20C76.3603 20 77.7175 18.6569 77.7175 17C77.7175 15.3431 76.3603 14 74.6861 14C73.012 14 71.6548 15.3431 71.6548 17C71.6548 18.6569 73.012 20 74.6861 20Z" fill="#505967"/>
<path d="M84.7906 20C86.4648 20 87.822 18.6569 87.822 17C87.822 15.3431 86.4648 14 84.7906 14C83.1165 14 81.7593 15.3431 81.7593 17C81.7593 18.6569 83.1165 20 84.7906 20Z" fill="#505967"/>
<path d="M223.222 24.5C227.408 24.5 230.801 21.1421 230.801 17C230.801 12.8579 227.408 9.5 223.222 9.5C219.037 9.5 215.644 12.8579 215.644 17C215.644 21.1421 219.037 24.5 223.222 24.5Z" fill="#505967" stroke="#26282D"/>
<path d="M214.129 24.5C218.314 24.5 221.707 21.1421 221.707 17C221.707 12.8579 218.314 9.5 214.129 9.5C209.943 9.5 206.55 12.8579 206.55 17C206.55 21.1421 209.943 24.5 214.129 24.5Z" fill="#6F7988" stroke="#26282D"/>
<path d="M205.034 24.5C209.22 24.5 212.613 21.1421 212.613 17C212.613 12.8579 209.22 9.5 205.034 9.5C200.849 9.5 197.456 12.8579 197.456 17C197.456 21.1421 200.849 24.5 205.034 24.5Z" fill="#505967" stroke="#26282D"/>
<path d="M93.2119 41H59.8669C56.5186 41 53.8042 43.6863 53.8042 47V111C53.8042 114.314 56.5186 117 59.8669 117H93.2119C96.5602 117 99.2746 114.314 99.2746 111V47C99.2746 43.6863 96.5602 41 93.2119 41Z" fill="#26282D"/>
<path d="M93.2117 41.25H59.8667C56.6579 41.25 54.0566 43.8244 54.0566 47V111C54.0566 114.176 56.6579 116.75 59.8667 116.75H93.2117C96.4205 116.75 99.0218 114.176 99.0218 111V47C99.0218 43.8244 96.4205 41.25 93.2117 41.25Z" stroke="#505967" stroke-width="0.5"/>
<path d="M232.654 41H114.431C111.083 41 108.369 43.6863 108.369 47V111C108.369 114.314 111.083 117 114.431 117H232.654C236.003 117 238.717 114.314 238.717 111V47C238.717 43.6863 236.003 41 232.654 41Z" fill="#26282D"/>
<path d="M232.654 41.25H114.431C111.222 41.25 108.621 43.8244 108.621 47V111C108.621 114.176 111.222 116.75 114.431 116.75H232.654C235.863 116.75 238.464 114.176 238.464 111V47C238.464 43.8244 235.863 41.25 232.654 41.25Z" stroke="#505967" stroke-width="0.5"/>
<path d="M210.087 99H143.397C141.723 99 140.366 100.343 140.366 102C140.366 103.657 141.723 105 143.397 105H210.087C211.761 105 213.118 103.657 213.118 102C213.118 100.343 211.761 99 210.087 99Z" fill="#505967"/>
<path d="M119.146 102.537L123.941 97.167V101.463H127.056L121.92 106.834V102.537H119.146Z" fill="#6B9FFF" stroke="#6B9FFF" stroke-width="1.2" stroke-linecap="round" stroke-linejoin="round"/>
<path d="M166.638 76H143.397C141.723 76 140.366 77.3431 140.366 79C140.366 80.6569 141.723 82 143.397 82H166.638C168.312 82 169.669 80.6569 169.669 79C169.669 77.3431 168.312 76 166.638 76Z" fill="#505967"/>
<path d="M118.305 83.8332L121.168 83.1666L127.429 76.9713C127.691 76.711 127.691 76.2888 127.429 76.0285L126.192 74.8046C125.928 74.5443 125.502 74.5443 125.239 74.8046L118.979 80.9999L118.305 83.8332Z" fill="#9098A0" stroke="#9098A0" stroke-width="1.2" stroke-linecap="round" stroke-linejoin="round"/>
<path d="M128.073 83.833H124.368" stroke="#9098A0" stroke-width="1.2" stroke-linecap="round" stroke-linejoin="round"/>
<path d="M182.805 53H143.397C141.723 53 140.366 54.3431 140.366 56C140.366 57.6569 141.723 59 143.397 59H182.805C184.479 59 185.836 57.6569 185.836 56C185.836 54.3431 184.479 53 182.805 53Z" fill="#505967"/>
<path d="M125.376 53.3337C125.376 54.5303 124.396 55.5003 123.187 55.5003C121.978 55.5003 120.998 54.5303 120.998 53.3337C120.998 52.137 121.978 51.167 123.187 51.167C124.396 51.167 125.376 52.137 125.376 53.3337Z" fill="#6B9FFF" stroke="#6B9FFF" stroke-width="1.2" stroke-linecap="round" stroke-linejoin="round"/>
<path d="M119.716 60.833H126.658C127.427 60.833 128.019 60.1784 127.66 59.5053C127.132 58.515 125.927 57.333 123.187 57.333C120.447 57.333 119.241 58.515 118.713 59.5053C118.354 60.1784 118.946 60.833 119.716 60.833Z" fill="#6B9FFF" stroke="#6B9FFF" stroke-width="1.2" stroke-linecap="round" stroke-linejoin="round"/>
</svg>
