<svg width="292" height="116" viewBox="0 0 292 116" fill="none" xmlns="http://www.w3.org/2000/svg">
<path d="M287.198 15H4.30566V103H287.198V15Z" stroke="#505967" stroke-width="0.5" stroke-linecap="round" stroke-dasharray="4 4"/>
<path d="M7.34765 10H2.2779C1.15792 10 0.25 10.8954 0.25 12V17C0.25 18.1046 1.15792 19 2.2779 19H7.34765C8.46762 19 9.37554 18.1046 9.37554 17V12C9.37554 10.8954 8.46762 10 7.34765 10Z" fill="#26282D" stroke="#505967" stroke-width="0.5"/>
<path d="M289.226 10H284.156C283.036 10 282.128 10.8954 282.128 12V17C282.128 18.1046 283.036 19 284.156 19H289.226C290.346 19 291.253 18.1046 291.253 17V12C291.253 10.8954 290.346 10 289.226 10Z" fill="#26282D" stroke="#505967" stroke-width="0.5"/>
<path d="M7.34765 98H2.2779C1.15792 98 0.25 98.8954 0.25 100V105C0.25 106.105 1.15792 107 2.2779 107H7.34765C8.46762 107 9.37554 106.105 9.37554 105V100C9.37554 98.8954 8.46762 98 7.34765 98Z" fill="#26282D" stroke="#505967" stroke-width="0.5"/>
<path d="M289.226 98H284.156C283.036 98 282.128 98.8954 282.128 100V105C282.128 106.105 283.036 107 284.156 107H289.226C290.346 107 291.253 106.105 291.253 105V100C291.253 98.8954 290.346 98 289.226 98Z" fill="#26282D" stroke="#505967" stroke-width="0.5"/>
<path d="M216.221 0H76.2961C72.9362 0 70.2124 2.68629 70.2124 6V28C70.2124 31.3137 72.9362 34 76.2961 34H216.221C219.581 34 222.305 31.3137 222.305 28V6C222.305 2.68629 219.581 0 216.221 0Z" fill="#26282D"/>
<path d="M216.221 0.25H76.296C73.0761 0.25 70.4658 2.82436 70.4658 6V28C70.4658 31.1756 73.0761 33.75 76.296 33.75H216.221C219.441 33.75 222.051 31.1756 222.051 28V6C222.051 2.82436 219.441 0.25 216.221 0.25Z" stroke="#505967" stroke-width="0.5"/>
<path d="M159.44 17.5374L164.251 12.167V16.4633H167.377L162.223 21.8337V17.5374H159.44Z" fill="#4B8BFF" stroke="#4B8BFF" stroke-width="1.2" stroke-linecap="round" stroke-linejoin="round"/>
<path d="M196.956 14H177.691C176.011 14 174.649 15.3431 174.649 17C174.649 18.6569 176.011 20 177.691 20H196.956C198.636 20 199.998 18.6569 199.998 17C199.998 15.3431 198.636 14 196.956 14Z" fill="#4B8BFF"/>
<path d="M216.221 41H76.2961C72.9362 41 70.2124 43.6863 70.2124 47V110C70.2124 113.314 72.9362 116 76.2961 116H216.221C219.581 116 222.305 113.314 222.305 110V47C222.305 43.6863 219.581 41 216.221 41Z" fill="#26282D"/>
<path d="M216.221 41.25H76.296C73.0761 41.25 70.4658 43.8244 70.4658 47V110C70.4658 113.176 73.0761 115.75 76.296 115.75H216.221C219.441 115.75 222.051 113.176 222.051 110V47C222.051 43.8244 219.441 41.25 216.221 41.25Z" stroke="#505967" stroke-width="0.5"/>
<path d="M170.593 41V116" stroke="#505967" stroke-width="0.5"/>
<path d="M90.6595 14.3337C90.6595 15.5303 89.6758 16.5003 88.4626 16.5003C87.2493 16.5003 86.2656 15.5303 86.2656 14.3337C86.2656 13.137 87.2493 12.167 88.4626 12.167C89.6758 12.167 90.6595 13.137 90.6595 14.3337Z" fill="#6F7988" stroke="#6F7988" stroke-width="1.2" stroke-linecap="round" stroke-linejoin="round"/>
<path d="M84.9793 21.833H91.9451C92.717 21.833 93.3116 21.1784 92.9511 20.5053C92.4208 19.515 91.212 18.333 88.4622 18.333C85.7123 18.333 84.5035 19.515 83.9732 20.5053C83.6128 21.1784 84.2073 21.833 84.9793 21.833Z" fill="#6F7988" stroke="#6F7988" stroke-width="1.2" stroke-linecap="round" stroke-linejoin="round"/>
<path d="M150.314 14H103.673C101.993 14 100.631 15.3431 100.631 17C100.631 18.6569 101.993 20 103.673 20H150.314C151.994 20 153.356 18.6569 153.356 17C153.356 15.3431 151.994 14 150.314 14Z" fill="#505967"/>
<path d="M141.189 52H103.673C101.993 52 100.631 53.3431 100.631 55C100.631 56.6569 101.993 58 103.673 58H141.189C142.869 58 144.231 56.6569 144.231 55C144.231 53.3431 142.869 52 141.189 52Z" fill="#505967"/>
<path d="M90.5098 50.1719C90.5098 52.0161 89.5019 53.6781 87.6318 53.6781C89.5019 53.6781 90.5098 55.3401 90.5098 57.1844C90.5098 55.3401 91.5179 53.6781 93.3878 53.6781C91.5179 53.6781 90.5098 52.0161 90.5098 50.1719Z" fill="#6B9FFF" stroke="#6B9FFF"/>
<path d="M85.7691 55.5146C85.7691 56.6212 84.6903 57.6852 83.5684 57.6852C84.6903 57.6852 85.7691 58.7492 85.7691 59.8558C85.7691 58.7492 86.848 57.6852 87.9699 57.6852C86.848 57.6852 85.7691 56.6212 85.7691 55.5146Z" fill="#6B9FFF" stroke="#6B9FFF"/>
<path d="M90.5098 50.1719C90.5098 52.0161 89.5019 53.6781 87.6318 53.6781C89.5019 53.6781 90.5098 55.3401 90.5098 57.1844C90.5098 55.3401 91.5179 53.6781 93.3878 53.6781C91.5179 53.6781 90.5098 52.0161 90.5098 50.1719Z" stroke="#6B9FFF" stroke-width="1.20214" stroke-linecap="round" stroke-linejoin="round"/>
<path d="M85.7691 55.5146C85.7691 56.6212 84.6903 57.6852 83.5684 57.6852C84.6903 57.6852 85.7691 58.7492 85.7691 59.8558C85.7691 58.7492 86.848 57.6852 87.9699 57.6852C86.848 57.6852 85.7691 56.6212 85.7691 55.5146Z" stroke="#6B9FFF" stroke-width="1.20214" stroke-linecap="round" stroke-linejoin="round"/>
<path d="M128.007 75H103.673C101.993 75 100.631 76.3431 100.631 78C100.631 79.6569 101.993 81 103.673 81H128.007C129.687 81 131.049 79.6569 131.049 78C131.049 76.3431 129.687 75 128.007 75Z" fill="#505967"/>
<path fill-rule="evenodd" clip-rule="evenodd" d="M83.0545 74.4029C82.9554 74.604 82.9004 74.8272 82.9004 75.0621V80.0233C82.9004 80.9098 83.6851 81.6284 84.653 81.6284H91.3451C92.3131 81.6284 93.0978 80.9098 93.0978 80.0233V75.0621C93.0978 74.8272 93.0426 74.604 92.9437 74.4029L88.3201 78.063C88.1379 78.2072 87.8602 78.2072 87.6781 78.063L83.0545 74.4029ZM92.3493 73.7464C92.0649 73.564 91.7186 73.457 91.3451 73.457H84.653C84.2796 73.457 83.9333 73.564 83.6489 73.7464L87.999 77.1901L92.3493 73.7464Z" fill="#6F7988"/>
<path d="M156.398 98H103.673C101.993 98 100.631 99.3431 100.631 101C100.631 102.657 101.993 104 103.673 104H156.398C158.078 104 159.44 102.657 159.44 101C159.44 99.3431 158.078 98 156.398 98Z" fill="#505967"/>
<path fill-rule="evenodd" clip-rule="evenodd" d="M87.7305 104.491C87.7306 104.491 87.7307 104.491 87.9995 104.101L87.7305 104.491ZM88.2688 104.491L88.2697 104.49L88.2725 104.488L88.2825 104.482L88.3187 104.457C88.3498 104.435 88.3947 104.404 88.4514 104.363C88.5646 104.282 88.7252 104.164 88.9174 104.015C89.301 103.718 89.8141 103.293 90.3291 102.785C90.8425 102.278 91.3684 101.679 91.7685 101.032C92.1664 100.389 92.4608 99.6636 92.4608 98.9156C92.4608 96.4456 90.3661 94.5156 87.9995 94.5156C85.6328 94.5156 83.5381 96.4456 83.5381 98.9156C83.5381 99.6636 83.8324 100.389 84.2303 101.032C84.6304 101.679 85.1564 102.278 85.6697 102.785C86.1848 103.293 86.698 103.718 87.0815 104.015C87.2737 104.164 87.4343 104.282 87.5475 104.363C87.6042 104.404 87.649 104.435 87.6803 104.457L87.7165 104.482L87.7264 104.488L87.7292 104.49L87.7305 104.491C87.8927 104.6 88.1065 104.6 88.2688 104.491ZM87.9995 104.101L88.2688 104.491C88.2687 104.491 88.2683 104.491 87.9995 104.101ZM86.2484 98.9156C86.2484 97.9606 87.0331 97.1866 88.001 97.1866C88.969 97.1866 89.7537 97.9606 89.7537 98.9156C89.7537 99.8696 88.969 100.644 88.001 100.644C87.0331 100.644 86.2484 99.8696 86.2484 98.9156Z" fill="#6B9FFF"/>
<path d="M217.235 52H179.719C178.039 52 176.677 53.3431 176.677 55C176.677 56.6569 178.039 58 179.719 58H217.235C218.915 58 220.277 56.6569 220.277 55C220.277 53.3431 218.915 52 217.235 52Z" fill="#505967"/>
<path d="M210.138 82H179.719C178.039 82 176.677 83.3431 176.677 85C176.677 86.6569 178.039 88 179.719 88H210.138C211.818 88 213.179 86.6569 213.179 85C213.179 83.3431 211.818 82 210.138 82Z" fill="#505967"/>
<path d="M193.914 97H179.719C178.039 97 176.677 98.3431 176.677 100C176.677 101.657 178.039 103 179.719 103H193.914C195.594 103 196.956 101.657 196.956 100C196.956 98.3431 195.594 97 193.914 97Z" fill="#4B8BFF"/>
<path d="M204.054 67H179.719C178.039 67 176.677 68.3431 176.677 70C176.677 71.6569 178.039 73 179.719 73H204.054C205.734 73 207.096 71.6569 207.096 70C207.096 68.3431 205.734 67 204.054 67Z" fill="#505967"/>
</svg>
