<svg width="291" height="116" viewBox="0 0 291 116" fill="none" xmlns="http://www.w3.org/2000/svg">
<path d="M286.208 15H4.29199V103H286.208V15Z" stroke="#505967" stroke-width="0.5" stroke-linecap="round" stroke-dasharray="4 4"/>
<path d="M7.32317 10H2.27091C1.15479 10 0.25 10.8954 0.25 12V17C0.25 18.1046 1.15479 19 2.27091 19H7.32317C8.43929 19 9.34408 18.1046 9.34408 17V12C9.34408 10.8954 8.43929 10 7.32317 10Z" fill="#26282D" stroke="#505967" stroke-width="0.5"/>
<path d="M288.229 10H283.177C282.061 10 281.156 10.8954 281.156 12V17C281.156 18.1046 282.061 19 283.177 19H288.229C289.345 19 290.25 18.1046 290.25 17V12C290.25 10.8954 289.345 10 288.229 10Z" fill="#26282D" stroke="#505967" stroke-width="0.5"/>
<path d="M7.32317 98H2.27091C1.15479 98 0.25 98.8954 0.25 100V105C0.25 106.105 1.15479 107 2.27091 107H7.32317C8.43929 107 9.34408 106.105 9.34408 105V100C9.34408 98.8954 8.43929 98 7.32317 98Z" fill="#26282D" stroke="#505967" stroke-width="0.5"/>
<path d="M288.229 98H283.177C282.061 98 281.156 98.8954 281.156 100V105C281.156 106.105 282.061 107 283.177 107H288.229C289.345 107 290.25 106.105 290.25 105V100C290.25 98.8954 289.345 98 288.229 98Z" fill="#26282D" stroke="#505967" stroke-width="0.5"/>
<path d="M231.981 82H59.1936C55.8452 82 53.1309 84.6863 53.1309 88V110C53.1309 113.314 55.8452 116 59.1936 116H231.981C235.329 116 238.044 113.314 238.044 110V88C238.044 84.6863 235.329 82 231.981 82Z" fill="#26282D"/>
<path d="M231.981 82.25H59.1939C55.9851 82.25 53.3838 84.8244 53.3838 88V110C53.3838 113.176 55.9851 115.75 59.1939 115.75H231.981C235.19 115.75 237.791 113.176 237.791 110V88C237.791 84.8244 235.19 82.25 231.981 82.25Z" stroke="#505967" stroke-width="0.5"/>
<path d="M227.396 95.9805L220.846 102.462" stroke="#6B9FFF" stroke-width="0.933332" stroke-linecap="round" stroke-linejoin="round"/>
<path d="M220.846 95.9805L227.396 102.462" stroke="#6B9FFF" stroke-width="0.933332" stroke-linecap="round" stroke-linejoin="round"/>
<path d="M172.365 96H86.4762C84.802 96 83.4448 97.3431 83.4448 99C83.4448 100.657 84.802 102 86.4762 102H172.365C174.039 102 175.396 100.657 175.396 99C175.396 97.3431 174.039 96 172.365 96Z" fill="#505967"/>
<path fill-rule="evenodd" clip-rule="evenodd" d="M69.3 105C72.6484 105 75.3627 102.314 75.3627 99C75.3627 95.686 72.6484 93 69.3 93C65.9517 93 63.2373 95.686 63.2373 99C63.2373 102.314 65.9517 105 69.3 105ZM72.7367 97.444C72.9847 97.222 73.0035 96.842 72.7786 96.597C72.5537 96.351 72.1703 96.333 71.9222 96.556L67.8853 100.178L66.6885 99.031C66.448 98.8 66.0642 98.806 65.8312 99.044C65.5983 99.282 65.6044 99.662 65.8449 99.893L67.4498 101.431C67.6793 101.651 68.042 101.657 68.2788 101.444L72.7367 97.444Z" fill="#6F7988"/>
<path d="M231.981 0H177.417C174.068 0 171.354 2.68629 171.354 6V28C171.354 31.3137 174.068 34 177.417 34H231.981C235.33 34 238.044 31.3137 238.044 28V6C238.044 2.68629 235.33 0 231.981 0Z" fill="#26282D"/>
<path d="M231.981 0.25H177.417C174.208 0.25 171.606 2.82436 171.606 6V28C171.606 31.1756 174.208 33.75 177.417 33.75H231.981C235.19 33.75 237.791 31.1756 237.791 28V6C237.791 2.82436 235.19 0.25 231.981 0.25Z" stroke="#505967" stroke-width="0.5"/>
<path d="M226.554 16.0186L224.122 18.426L221.688 16.0186" stroke="#6B9FFF" stroke-width="1.08333" stroke-linecap="round" stroke-linejoin="round"/>
<path d="M206.72 14H184.49C182.816 14 181.458 15.3431 181.458 17C181.458 18.6569 182.816 20 184.49 20H206.72C208.394 20 209.751 18.6569 209.751 17C209.751 15.3431 208.394 14 206.72 14Z" fill="#505967"/>
<path d="M158.218 0H59.1936C55.8452 0 53.1309 2.68629 53.1309 6V28C53.1309 31.3137 55.8452 34 59.1936 34H158.218C161.566 34 164.281 31.3137 164.281 28V6C164.281 2.68629 161.566 0 158.218 0Z" fill="#26282D"/>
<path d="M158.218 0.25H59.1939C55.9851 0.25 53.3838 2.82436 53.3838 6V28C53.3838 31.1756 55.9851 33.75 59.1939 33.75H158.218C161.427 33.75 164.028 31.1756 164.028 28V6C164.028 2.82436 161.427 0.25 158.218 0.25Z" stroke="#505967" stroke-width="0.5"/>
<path d="M147.739 16.0186L145.307 18.426L142.874 16.0186" stroke="#6B9FFF" stroke-width="1.08333" stroke-linecap="round" stroke-linejoin="round"/>
<path d="M65.2563 17.5374L70.0506 12.167V16.4633H73.1662L68.0297 21.8337V17.5374H65.2563Z" fill="#6F7988" stroke="#6F7988" stroke-width="1.2" stroke-linecap="round" stroke-linejoin="round"/>
<path d="M113.758 41H59.1936C55.8452 41 53.1309 43.6863 53.1309 47V69C53.1309 72.3137 55.8452 75 59.1936 75H113.758C117.106 75 119.821 72.3137 119.821 69V47C119.821 43.6863 117.106 41 113.758 41Z" fill="#26282D"/>
<path d="M113.758 41.25H59.1939C55.9851 41.25 53.3838 43.8244 53.3838 47V69C53.3838 72.1756 55.9851 74.75 59.1939 74.75H113.758C116.967 74.75 119.568 72.1756 119.568 69V47C119.568 43.8244 116.967 41.25 113.758 41.25Z" stroke="#505967" stroke-width="0.5"/>
<path d="M66.7732 57.5003L64.4155 55.3337L66.7732 53.167" stroke="#6B9FFF" stroke-width="1.2" stroke-linecap="round" stroke-linejoin="round"/>
<path d="M64.4155 55.333H71.4887" stroke="#6B9FFF" stroke-width="1.2" stroke-linecap="round" stroke-linejoin="round"/>
<path d="M71.8242 58.5L74.1819 60.6667L71.8242 62.8333" stroke="#6B9FFF" stroke-width="1.2" stroke-linecap="round" stroke-linejoin="round"/>
<path d="M74.1806 60.667H67.1074" stroke="#6B9FFF" stroke-width="1.2" stroke-linecap="round" stroke-linejoin="round"/>
<path d="M102.643 55H86.4762C84.802 55 83.4448 56.3431 83.4448 58C83.4448 59.6569 84.802 61 86.4762 61H102.643C104.318 61 105.675 59.6569 105.675 58C105.675 56.3431 104.318 55 102.643 55Z" fill="#505967"/>
<path d="M231.981 41H132.957C129.608 41 126.894 43.6863 126.894 47V69C126.894 72.3137 129.608 75 132.957 75H231.981C235.329 75 238.044 72.3137 238.044 69V47C238.044 43.6863 235.329 41 231.981 41Z" fill="#26282D"/>
<path d="M231.981 41.25H132.957C129.748 41.25 127.146 43.8244 127.146 47V69C127.146 72.1756 129.748 74.75 132.957 74.75H231.981C235.19 74.75 237.791 72.1756 237.791 69V47C237.791 43.8244 235.19 41.25 231.981 41.25Z" stroke="#505967" stroke-width="0.5"/>
<path d="M226.554 57.0186L224.122 59.426L221.688 57.0186" stroke="#6B9FFF" stroke-width="1.08333" stroke-linecap="round" stroke-linejoin="round"/>
<path d="M196.615 55H159.229C157.554 55 156.197 56.3431 156.197 58C156.197 59.6569 157.554 61 159.229 61H196.615C198.29 61 199.647 59.6569 199.647 58C199.647 56.3431 198.29 55 196.615 55Z" fill="#505967"/>
<path d="M144.239 55.3337C144.239 56.5303 143.258 57.5003 142.05 57.5003C140.84 57.5003 139.86 56.5303 139.86 55.3337C139.86 54.137 140.84 53.167 142.05 53.167C143.258 53.167 144.239 54.137 144.239 55.3337Z" fill="#6F7988" stroke="#6F7988" stroke-width="1.2" stroke-linecap="round" stroke-linejoin="round"/>
<path d="M138.579 62.833H145.52C146.29 62.833 146.882 62.1784 146.523 61.5053C145.995 60.515 144.789 59.333 142.05 59.333C139.31 59.333 138.104 60.515 137.576 61.5053C137.217 62.1784 137.809 62.833 138.579 62.833Z" fill="#6F7988" stroke="#6F7988" stroke-width="1.2" stroke-linecap="round" stroke-linejoin="round"/>
</svg>
