<svg width="291" height="116" viewBox="0 0 291 116" fill="none" xmlns="http://www.w3.org/2000/svg">
<path d="M286.208 15H4.29199V103H286.208V15Z" stroke="#505967" stroke-width="0.5" stroke-linecap="round" stroke-dasharray="4 4"/>
<path d="M7.32317 10H2.27091C1.15479 10 0.25 10.8954 0.25 12V17C0.25 18.1046 1.15479 19 2.27091 19H7.32317C8.43929 19 9.34408 18.1046 9.34408 17V12C9.34408 10.8954 8.43929 10 7.32317 10Z" fill="#26282D" stroke="#505967" stroke-width="0.5"/>
<path d="M288.229 10H283.177C282.061 10 281.156 10.8954 281.156 12V17C281.156 18.1046 282.061 19 283.177 19H288.229C289.345 19 290.25 18.1046 290.25 17V12C290.25 10.8954 289.345 10 288.229 10Z" fill="#26282D" stroke="#505967" stroke-width="0.5"/>
<path d="M7.32317 98H2.27091C1.15479 98 0.25 98.8954 0.25 100V105C0.25 106.105 1.15479 107 2.27091 107H7.32317C8.43929 107 9.34408 106.105 9.34408 105V100C9.34408 98.8954 8.43929 98 7.32317 98Z" fill="#26282D" stroke="#505967" stroke-width="0.5"/>
<path d="M288.229 98H283.177C282.061 98 281.156 98.8954 281.156 100V105C281.156 106.105 282.061 107 283.177 107H288.229C289.345 107 290.25 106.105 290.25 105V100C290.25 98.8954 289.345 98 288.229 98Z" fill="#26282D" stroke="#505967" stroke-width="0.5"/>
<path d="M232.316 0H59.529C56.1807 0 53.4663 2.68629 53.4663 6V28C53.4663 31.3137 56.1807 34 59.529 34H232.316C235.665 34 238.379 31.3137 238.379 28V6C238.379 2.68629 235.665 0 232.316 0Z" fill="#26282D"/>
<path d="M232.317 0.25H59.5293C56.3205 0.25 53.7192 2.82436 53.7192 6V28C53.7192 31.1756 56.3205 33.75 59.5293 33.75H232.317C235.526 33.75 238.127 31.1756 238.127 28V6C238.127 2.82436 235.526 0.25 232.317 0.25Z" stroke="#505967" stroke-width="0.5"/>
<path d="M125.209 14H86.8116C85.1375 14 83.7803 15.3431 83.7803 17C83.7803 18.6569 85.1375 20 86.8116 20H125.209C126.883 20 128.24 18.6569 128.24 17C128.24 15.3431 126.883 14 125.209 14Z" fill="#505967"/>
<path d="M71.8221 14.3337C71.8221 15.5303 70.8418 16.5003 69.6327 16.5003C68.4236 16.5003 67.4434 15.5303 67.4434 14.3337C67.4434 13.137 68.4236 12.167 69.6327 12.167C70.8418 12.167 71.8221 13.137 71.8221 14.3337Z" fill="#6B9FFF" stroke="#6B9FFF" stroke-width="1.2" stroke-linecap="round" stroke-linejoin="round"/>
<path d="M66.1614 21.833H73.1032C73.8725 21.833 74.465 21.1784 74.1058 20.5053C73.5774 19.515 72.3726 18.333 69.6323 18.333C66.8919 18.333 65.6873 19.515 65.1589 20.5053C64.7996 21.1784 65.3922 21.833 66.1614 21.833Z" fill="#6B9FFF" stroke="#6B9FFF" stroke-width="1.2" stroke-linecap="round" stroke-linejoin="round"/>
<path d="M202.003 14H180.784C179.11 14 177.752 15.3431 177.752 17C177.752 18.6569 179.11 20 180.784 20H202.003C203.677 20 205.035 18.6569 205.035 17C205.035 15.3431 203.677 14 202.003 14Z" fill="#505967"/>
<path d="M163.606 14.834L160.069 19.1673H167.143L163.606 14.834Z" fill="#6F7988" stroke="#6F7988" stroke-width="1.2" stroke-linecap="round" stroke-linejoin="round"/>
<path d="M146.428 4V30" stroke="#505967" stroke-width="0.5"/>
<path d="M232.316 82H59.529C56.1807 82 53.4663 84.6863 53.4663 88V110C53.4663 113.314 56.1807 116 59.529 116H232.316C235.665 116 238.379 113.314 238.379 110V88C238.379 84.6863 235.665 82 232.316 82Z" fill="#26282D"/>
<path d="M232.317 82.25H59.5293C56.3205 82.25 53.7192 84.8244 53.7192 88V110C53.7192 113.176 56.3205 115.75 59.5293 115.75H232.317C235.526 115.75 238.127 113.176 238.127 110V88C238.127 84.8244 235.526 82.25 232.317 82.25Z" stroke="#505967" stroke-width="0.5"/>
<path d="M120.157 96H86.8116C85.1375 96 83.7803 97.3431 83.7803 99C83.7803 100.657 85.1375 102 86.8116 102H120.157C121.831 102 123.188 100.657 123.188 99C123.188 97.3431 121.831 96 120.157 96Z" fill="#505967"/>
<path d="M72.2871 94.3652C72.2871 96.3212 71.2217 98.0832 69.2451 98.0832C71.2217 98.0832 72.2871 99.8462 72.2871 101.802C72.2871 99.8462 73.3525 98.0832 75.329 98.0832C73.3525 98.0832 72.2871 96.3212 72.2871 94.3652Z" fill="#6B9FFF"/>
<path d="M67.2768 100.031C67.2768 101.205 66.1367 102.333 64.9507 102.333C66.1367 102.333 67.2768 103.462 67.2768 104.636C67.2768 103.462 68.4171 102.333 69.603 102.333C68.4171 102.333 67.2768 101.205 67.2768 100.031Z" fill="#6B9FFF"/>
<path d="M72.2871 94.3652C72.2871 96.3212 71.2217 98.0832 69.2451 98.0832C71.2217 98.0832 72.2871 99.8462 72.2871 101.802C72.2871 99.8462 73.3525 98.0832 75.329 98.0832C73.3525 98.0832 72.2871 96.3212 72.2871 94.3652Z" stroke="#6B9FFF" stroke-width="1.275" stroke-linecap="round" stroke-linejoin="round"/>
<path d="M67.2768 100.031C67.2768 101.205 66.1367 102.333 64.9507 102.333C66.1367 102.333 67.2768 103.462 67.2768 104.636C67.2768 103.462 68.4171 102.333 69.603 102.333C68.4171 102.333 67.2768 101.205 67.2768 100.031Z" stroke="#6B9FFF" stroke-width="1.275" stroke-linecap="round" stroke-linejoin="round"/>
<path d="M212.108 96H180.784C179.11 96 177.752 97.3431 177.752 99C177.752 100.657 179.11 102 180.784 102H212.108C213.782 102 215.139 100.657 215.139 99C215.139 97.3431 213.782 96 212.108 96Z" fill="#505967"/>
<path d="M163.606 96.834L160.069 101.167H167.143L163.606 96.834Z" fill="#6F7988" stroke="#6F7988" stroke-width="1.2" stroke-linecap="round" stroke-linejoin="round"/>
<path d="M146.428 86V112" stroke="#505967" stroke-width="0.5"/>
<path d="M232.316 41H59.529C56.1807 41 53.4663 43.6863 53.4663 47V69C53.4663 72.3137 56.1807 75 59.529 75H232.316C235.665 75 238.379 72.3137 238.379 69V47C238.379 43.6863 235.665 41 232.316 41Z" fill="#26282D"/>
<path d="M232.317 41.25H59.5293C56.3205 41.25 53.7192 43.8244 53.7192 47V69C53.7192 72.1756 56.3205 74.75 59.5293 74.75H232.317C235.526 74.75 238.127 72.1756 238.127 69V47C238.127 43.8244 235.526 41.25 232.317 41.25Z" stroke="#505967" stroke-width="0.5"/>
<path d="M106.01 55H86.8116C85.1375 55 83.7803 56.3431 83.7803 58C83.7803 59.6569 85.1375 61 86.8116 61H106.01C107.684 61 109.042 59.6569 109.042 58C109.042 56.3431 107.684 55 106.01 55Z" fill="#505967"/>
<path d="M65.5918 58.5374L70.3861 53.167V57.4633H73.5016L68.3652 62.8337V58.5374H65.5918Z" fill="#6F7988" stroke="#6F7988" stroke-width="1.2" stroke-linecap="round" stroke-linejoin="round"/>
<path d="M218.171 55H180.784C179.11 55 177.752 56.3431 177.752 58C177.752 59.6569 179.11 61 180.784 61H218.171C219.845 61 221.202 59.6569 221.202 58C221.202 56.3431 219.845 55 218.171 55Z" fill="#505967"/>
<path d="M163.606 60.1663L167.143 55.833H160.069L163.606 60.1663Z" fill="#6B9FFF" stroke="#6B9FFF" stroke-width="1.2" stroke-linecap="round" stroke-linejoin="round"/>
<path d="M146.428 45V71" stroke="#505967" stroke-width="0.5"/>
</svg>
