<svg width="292" height="150" viewBox="0 0 292 150" fill="none" xmlns="http://www.w3.org/2000/svg">
<path d="M287.198 31.5508H4.30566V120.471H287.198V31.5508Z" stroke="#505967" stroke-width="0.5" stroke-linecap="round" stroke-dasharray="4 4"/>
<path d="M7.34765 26.4985H2.2779C1.15792 26.4985 0.25 27.4033 0.25 28.5194V33.5717C0.25 34.6878 1.15792 35.5926 2.2779 35.5926H7.34765C8.46762 35.5926 9.37554 34.6878 9.37554 33.5717V28.5194C9.37554 27.4033 8.46762 26.4985 7.34765 26.4985Z" fill="#26282D" stroke="#505967" stroke-width="0.5"/>
<path d="M289.226 26.4985H284.156C283.036 26.4985 282.128 27.4033 282.128 28.5194V33.5717C282.128 34.6878 283.036 35.5926 284.156 35.5926H289.226C290.346 35.5926 291.253 34.6878 291.253 33.5717V28.5194C291.253 27.4033 290.346 26.4985 289.226 26.4985Z" fill="#26282D" stroke="#505967" stroke-width="0.5"/>
<path d="M7.34765 115.418H2.2779C1.15792 115.418 0.25 116.323 0.25 117.439V122.491C0.25 123.607 1.15792 124.512 2.2779 124.512H7.34765C8.46762 124.512 9.37554 123.607 9.37554 122.491V117.439C9.37554 116.323 8.46762 115.418 7.34765 115.418Z" fill="#26282D" stroke="#505967" stroke-width="0.5"/>
<path d="M289.226 115.418H284.156C283.036 115.418 282.128 116.323 282.128 117.439V122.491C282.128 123.607 283.036 124.512 284.156 124.512H289.226C290.346 124.512 291.253 123.607 291.253 122.491V117.439C291.253 116.323 290.346 115.418 289.226 115.418Z" fill="#26282D" stroke="#505967" stroke-width="0.5"/>
<path d="M155.385 99.251H116.855C113.495 99.251 110.771 101.965 110.771 105.314V127.544C110.771 130.892 113.495 133.606 116.855 133.606H155.385C158.745 133.606 161.468 130.892 161.468 127.544V105.314C161.468 101.965 158.745 99.251 155.385 99.251Z" fill="#26282D"/>
<path d="M155.385 99.5039H116.855C113.635 99.5039 111.024 102.105 111.024 105.314V127.544C111.024 130.753 113.635 133.354 116.855 133.354H155.385C158.605 133.354 161.215 130.753 161.215 127.544V105.314C161.215 102.105 158.605 99.5039 155.385 99.5039Z" stroke="#383E47" stroke-width="0.5"/>
<path d="M132.064 124.513H117.868C116.748 124.513 115.84 125.417 115.84 126.534C115.84 127.65 116.748 128.555 117.868 128.555H132.064C133.184 128.555 134.091 127.65 134.091 126.534C134.091 125.417 133.184 124.513 132.064 124.513Z" fill="#383E47"/>
<path d="M97.5894 99.251H59.0593C55.6993 99.251 52.9756 101.965 52.9756 105.314V127.544C52.9756 130.892 55.6993 133.606 59.0593 133.606H97.5894C100.949 133.606 103.673 130.892 103.673 127.544V105.314C103.673 101.965 100.949 99.251 97.5894 99.251Z" fill="#26282D"/>
<path d="M97.5893 99.5039H59.0592C55.8393 99.5039 53.229 102.105 53.229 105.314V127.544C53.229 130.753 55.8393 133.354 59.0592 133.354H97.5893C100.809 133.354 103.419 130.753 103.419 127.544V105.314C103.419 102.105 100.809 99.5039 97.5893 99.5039Z" stroke="#383E47" stroke-width="0.5"/>
<path d="M73.2547 124.513H60.0733C58.9533 124.513 58.0454 125.417 58.0454 126.534C58.0454 127.65 58.9533 128.555 60.0733 128.555H73.2547C74.3746 128.555 75.2826 127.65 75.2826 126.534C75.2826 125.417 74.3746 124.513 73.2547 124.513Z" fill="#383E47"/>
<path d="M90.4912 57.8223H59.0588C55.6989 57.8223 52.9751 60.5366 52.9751 63.885V86.1149C52.9751 89.4633 55.6989 92.1777 59.0588 92.1777H90.4912C93.8512 92.1777 96.5749 89.4633 96.5749 86.1149V63.885C96.5749 60.5366 93.8512 57.8223 90.4912 57.8223Z" fill="#26282D"/>
<path d="M90.4912 58.0752H59.0587C55.8388 58.0752 53.2285 60.6765 53.2285 63.8853V86.1153C53.2285 89.3241 55.8388 91.9254 59.0587 91.9254H90.4912C93.7111 91.9254 96.3214 89.3241 96.3214 86.1153V63.8853C96.3214 60.6765 93.7111 58.0752 90.4912 58.0752Z" stroke="#383E47" stroke-width="0.5"/>
<path d="M73.2542 83.083H60.0728C58.9528 83.083 58.0449 83.9878 58.0449 85.1039C58.0449 86.22 58.9528 87.1248 60.0728 87.1248H73.2542C74.3741 87.1248 75.2821 86.22 75.2821 85.1039C75.2821 83.9878 74.3741 83.083 73.2542 83.083Z" fill="#383E47"/>
<path d="M111.785 16.394H59.0593C55.6993 16.394 52.9756 19.1084 52.9756 22.4568V44.6867C52.9756 48.0351 55.6993 50.7494 59.0593 50.7494H111.785C115.145 50.7494 117.868 48.0351 117.868 44.6867V22.4568C117.868 19.1084 115.145 16.394 111.785 16.394Z" fill="#26282D"/>
<path d="M111.785 16.6465H59.0592C55.8393 16.6465 53.229 19.2478 53.229 22.4566V44.6866C53.229 47.8954 55.8393 50.4967 59.0592 50.4967H111.785C115.005 50.4967 117.615 47.8954 117.615 44.6866V22.4566C117.615 19.2478 115.005 16.6465 111.785 16.6465Z" stroke="#383E47" stroke-width="0.5"/>
<path d="M73.2547 41.6553H60.0733C58.9533 41.6553 58.0454 42.5601 58.0454 43.6762C58.0454 44.7923 58.9533 45.6971 60.0733 45.6971H73.2547C74.3746 45.6971 75.2826 44.7923 75.2826 43.6762C75.2826 42.5601 74.3746 41.6553 73.2547 41.6553Z" fill="#383E47"/>
<path d="M62.1012 23.4672C62.1012 22.3511 61.1933 21.4463 60.0733 21.4463C58.9533 21.4463 58.0454 22.3511 58.0454 23.4672C58.0454 24.5833 58.9533 25.4881 60.0733 25.4881C61.1933 25.4881 62.1012 24.5833 62.1012 23.4672Z" fill="#383E47"/>
<path d="M232.444 99.251H174.649C171.289 99.251 168.565 101.965 168.565 105.314V127.544C168.565 130.892 171.289 133.606 174.649 133.606H232.444C235.804 133.606 238.528 130.892 238.528 127.544V105.314C238.528 101.965 235.804 99.251 232.444 99.251Z" fill="#26282D"/>
<path d="M232.444 99.5039H174.649C171.429 99.5039 168.819 102.105 168.819 105.314V127.544C168.819 130.753 171.429 133.354 174.649 133.354H232.444C235.664 133.354 238.274 130.753 238.274 127.544V105.314C238.274 102.105 235.664 99.5039 232.444 99.5039Z" stroke="#383E47" stroke-width="0.5"/>
<path d="M190.872 124.513H175.663C174.543 124.513 173.635 125.417 173.635 126.534C173.635 127.65 174.543 128.555 175.663 128.555H190.872C191.992 128.555 192.9 127.65 192.9 126.534C192.9 125.417 191.992 124.513 190.872 124.513Z" fill="#383E47"/>
<path d="M223.304 106.41C223.304 105.796 223.804 105.299 224.42 105.299C225.036 105.299 225.535 105.796 225.535 106.41V107.522H224.42C223.804 107.522 223.304 107.024 223.304 106.41Z" stroke="#6F7988" stroke-width="1.13143" stroke-linecap="round" stroke-linejoin="round"/>
<path d="M230.315 106.41C230.315 105.796 230.815 105.299 231.43 105.299C232.047 105.299 232.546 105.796 232.546 106.41C232.546 107.024 232.047 107.522 231.43 107.522H230.315V106.41Z" stroke="#6F7988" stroke-width="1.13143" stroke-linecap="round" stroke-linejoin="round"/>
<path d="M230.315 112.286H231.43C232.047 112.286 232.546 112.783 232.546 113.398C232.546 114.011 232.047 114.509 231.43 114.509C230.815 114.509 230.315 114.011 230.315 113.398V112.286Z" stroke="#6F7988" stroke-width="1.13143" stroke-linecap="round" stroke-linejoin="round"/>
<path d="M223.304 113.398C223.304 112.783 223.804 112.286 224.42 112.286H225.535V113.398C225.535 114.011 225.036 114.509 224.42 114.509C223.804 114.509 223.304 114.011 223.304 113.398Z" stroke="#6F7988" stroke-width="1.13143" stroke-linecap="round" stroke-linejoin="round"/>
<path d="M225.535 107.522H230.315V112.286H225.535V107.522Z" stroke="#6F7988" stroke-width="1.13143" stroke-linecap="round" stroke-linejoin="round"/>
<path d="M132.063 57.8223H109.757C106.397 57.8223 103.673 60.5366 103.673 63.885V86.1149C103.673 89.4633 106.397 92.1777 109.757 92.1777H132.063C135.423 92.1777 138.147 89.4633 138.147 86.1149V63.885C138.147 60.5366 135.423 57.8223 132.063 57.8223Z" fill="#26282D"/>
<path d="M132.063 58.0752H109.756C106.537 58.0752 103.926 60.6765 103.926 63.8853V86.1153C103.926 89.3241 106.537 91.9254 109.756 91.9254H132.063C135.283 91.9254 137.894 89.3241 137.894 86.1153V63.8853C137.894 60.6765 135.283 58.0752 132.063 58.0752Z" stroke="#383E47" stroke-width="0.5"/>
<path d="M117.528 80.0519V78.9453L121.944 72.7706H117.519V71.2334H124.294V72.34L119.874 78.5147H124.303V80.0519H117.528Z" fill="#9098A0"/>
<path d="M173.635 57.8223H151.328C147.968 57.8223 145.245 60.5366 145.245 63.885V86.1149C145.245 89.4633 147.968 92.1777 151.328 92.1777H173.635C176.995 92.1777 179.719 89.4633 179.719 86.1149V63.885C179.719 60.5366 176.995 57.8223 173.635 57.8223Z" fill="#26282D"/>
<path d="M173.636 58.0752H151.329C148.109 58.0752 145.499 60.6765 145.499 63.8853V86.1153C145.499 89.3241 148.109 91.9254 151.329 91.9254H173.636C176.856 91.9254 179.466 89.3241 179.466 86.1153V63.8853C179.466 60.6765 176.856 58.0752 173.636 58.0752Z" stroke="#383E47" stroke-width="0.5"/>
<path d="M160.638 71.2334L162.587 74.4629H162.656L164.613 71.2334H166.441L163.715 75.6427L166.484 80.0519H164.626L162.656 76.844H162.587L160.617 80.0519H158.768L161.563 75.6427L158.802 71.2334H160.638Z" fill="#6B9FFF"/>
<path d="M153.356 16.394H131.05C127.69 16.394 124.966 19.1084 124.966 22.4568V44.6867C124.966 48.0351 127.69 50.7494 131.05 50.7494H153.356C156.716 50.7494 159.44 48.0351 159.44 44.6867V22.4568C159.44 19.1084 156.716 16.394 153.356 16.394Z" fill="#26282D"/>
<path d="M153.356 16.6465H131.049C127.83 16.6465 125.219 19.2478 125.219 22.4566V44.6866C125.219 47.8954 127.83 50.4967 131.049 50.4967H153.356C156.576 50.4967 159.187 47.8954 159.187 44.6866V22.4566C159.187 19.2478 156.576 16.6465 153.356 16.6465Z" stroke="#383E47" stroke-width="0.5"/>
<path d="M140.157 38.6237H138.445L141.56 29.8052H143.539L146.659 38.6237H144.948L142.584 31.6137H142.515L140.157 38.6237ZM140.213 35.166H144.879V36.4492H140.213V35.166Z" fill="#6B9FFF"/>
<path d="M194.928 16.394H172.621C169.261 16.394 166.538 19.1084 166.538 22.4568V44.6867C166.538 48.0351 169.261 50.7494 172.621 50.7494H194.928C198.288 50.7494 201.012 48.0351 201.012 44.6867V22.4568C201.012 19.1084 198.288 16.394 194.928 16.394Z" fill="#26282D"/>
<path d="M194.928 16.6465H172.621C169.401 16.6465 166.791 19.2478 166.791 22.4566V44.6866C166.791 47.8954 169.401 50.4967 172.621 50.4967H194.928C198.148 50.4967 200.758 47.8954 200.758 44.6866V22.4566C200.758 19.2478 198.148 16.6465 194.928 16.6465Z" stroke="#383E47" stroke-width="0.5"/>
<path d="M185.401 32.2299C185.361 31.8538 185.19 31.561 184.891 31.3515C184.594 31.1419 184.209 31.0371 183.733 31.0371C183.399 31.0371 183.113 31.0874 182.873 31.1878C182.634 31.2883 182.451 31.4247 182.325 31.5969C182.198 31.7691 182.133 31.9658 182.13 32.1868C182.13 32.3705 182.172 32.5298 182.255 32.6648C182.342 32.7997 182.459 32.9145 182.606 33.0092C182.752 33.1011 182.915 33.1786 183.093 33.2418C183.272 33.3049 183.452 33.3581 183.634 33.4011L184.463 33.6077C184.798 33.6852 185.118 33.79 185.426 33.9221C185.738 34.0542 186.016 34.2206 186.261 34.4216C186.508 34.6225 186.704 34.865 186.848 35.1493C186.992 35.4334 187.064 35.7665 187.064 36.1482C187.064 36.665 186.932 37.12 186.666 37.5132C186.402 37.9036 186.019 38.2093 185.518 38.4303C185.019 38.6485 184.415 38.7576 183.707 38.7576C183.018 38.7576 182.421 38.6514 181.914 38.439C181.41 38.2265 181.015 37.9165 180.73 37.5089C180.448 37.1013 180.295 36.6046 180.271 36.0191H181.849C181.873 36.3263 181.967 36.5817 182.134 36.7855C182.301 36.9893 182.518 37.1415 182.787 37.2419C183.058 37.3424 183.36 37.3926 183.694 37.3926C184.042 37.3926 184.348 37.341 184.61 37.2376C184.875 37.1314 185.083 36.985 185.233 36.7984C185.382 36.609 185.459 36.3879 185.461 36.1353C185.459 35.9057 185.391 35.7162 185.258 35.5669C185.125 35.4148 184.94 35.2885 184.7 35.188C184.464 35.0847 184.188 34.9928 183.871 34.9124L182.864 34.6541C182.136 34.4675 181.559 34.1847 181.136 33.8058C180.716 33.424 180.506 32.9174 180.506 32.2859C180.506 31.7663 180.647 31.3113 180.929 30.9208C181.213 30.5305 181.602 30.2276 182.091 30.0123C182.58 29.7942 183.135 29.6851 183.754 29.6851C184.382 29.6851 184.933 29.7942 185.405 30.0123C185.881 30.2276 186.254 30.5276 186.525 30.9123C186.795 31.294 186.934 31.7332 186.943 32.2299H185.401Z" fill="#6B9FFF"/>
</svg>
