<svg width="40" height="36" viewBox="0 0 40 36" fill="none" xmlns="http://www.w3.org/2000/svg">
<path d="M40 18.0286L31.0789 1.95068C30.7555 1.36273 30.2851 0.87252 29.7156 0.529894C29.146 0.187268 28.4977 0.00444113 27.8363 0H12.1637C11.5023 0.00444113 10.854 0.187268 10.2844 0.529894C9.71489 0.87252 9.24453 1.36273 8.92115 1.95068L7.7957 3.98417H27.81L25.5854 7.96956H5.57348L3.34886 11.9817H23.3608L21.1374 15.9659H1.12545L0 18.0286L1.09916 19.9793H21.1111L23.3094 23.9635H3.29391L5.51732 27.9476H25.5317L27.7551 31.933H7.74313L8.92115 34.0505C9.24468 34.6383 9.71511 35.1282 10.2846 35.4706C10.8542 35.813 11.5025 35.9957 12.1637 36H27.8363C28.4975 35.9957 29.1458 35.813 29.7154 35.4706C30.2849 35.1282 30.7553 34.6383 31.0789 34.0505L40 18.0286Z" fill="#EF54AC"/>
</svg>
