<svg width="30" height="22" viewBox="0 0 30 22" fill="none" xmlns="http://www.w3.org/2000/svg">
<path d="M2.04675 21.9998H6.81911V10.6698L0 5.6709V20.0002C0 21.1051 0.916318 21.9998 2.04675 21.9998Z" fill="#4285F4"/>
<path d="M23.1822 21.9998H27.9545C28.2232 21.9999 28.4893 21.9483 28.7376 21.8478C28.9858 21.7474 29.2114 21.6001 29.4014 21.4144C29.5914 21.2287 29.742 21.0082 29.8448 20.7655C29.9476 20.5229 30.0004 20.2628 30.0003 20.0002V5.6709L23.1812 10.6698L23.1822 21.9998Z" fill="#34A853"/>
<path d="M23.1821 2.00412V10.6689L30.0002 5.67V3.00589C30.0002 0.534191 27.1143 -0.877215 25.0909 0.605604L23.1821 2.0061V2.00412Z" fill="#FBBC04"/>
<path d="M6.81885 10.6692V2.00439L15.0008 8.00213L23.1827 2.00439V10.6682L15.0008 16.666L6.81885 10.6682V10.6692Z" fill="#EA4335"/>
<path d="M0.00101467 3.00503V5.67014L6.82012 10.6691V2.00425L4.90935 0.605739C2.88594 -0.878072 0.00101467 0.533334 0.00101467 3.00503Z" fill="#C5221F"/>
</svg>
