<svg width="34" height="30" viewBox="0 0 34 30" fill="none" xmlns="http://www.w3.org/2000/svg">
<path d="M33.9949 15.752C33.9958 15.628 33.963 15.506 33.8997 15.3975C33.8364 15.2891 33.7446 15.198 33.6333 15.1331H33.629L33.6151 15.125L21.8333 8.51059C21.5723 8.34391 21.2648 8.25488 20.9502 8.25488C20.6356 8.25488 20.3281 8.34391 20.0672 8.51059L8.2864 15.126L8.27249 15.1331C8.16026 15.1994 8.06799 15.2921 8.00461 15.4022C7.94123 15.5123 7.90889 15.636 7.91072 15.7614C7.91255 15.8868 7.94848 16.0097 8.01505 16.1181C8.08162 16.2264 8.17655 16.3167 8.29068 16.38L20.0714 22.9944C20.3324 23.1611 20.6399 23.2501 20.9545 23.2501C21.2691 23.2501 21.5766 23.1611 21.8375 22.9944L33.6183 16.379C33.7339 16.3151 33.8296 16.2234 33.8957 16.1131C33.9619 16.0028 33.9961 15.8789 33.9949 15.752Z" fill="#0A2767"/>
<path d="M9.66168 11.3324H17.3925V18.0543H9.66168V11.3324ZM32.4156 4.49988V1.42555C32.4248 1.05623 32.2789 0.698564 32.0101 0.431227C31.7413 0.163891 31.3715 0.00877641 30.9822 0H10.9197C10.5303 0.00877641 10.1605 0.163891 9.89172 0.431227C9.62291 0.698564 9.47706 1.05623 9.48625 1.42555V4.49988L21.3462 7.49912L32.4156 4.49988Z" fill="#0364B8"/>
<path d="M9.48975 4.49951H17.3971V11.2488H9.48975V4.49951Z" fill="#0078D4"/>
<path d="M25.3017 4.49951H17.3965V11.2488L25.3017 17.9981H32.4185V11.2488L25.3027 4.49951H25.3017Z" fill="#28A8EA"/>
<path d="M17.3965 11.251H25.3038V18.0003H17.3965V11.251Z" fill="#0078D4"/>
<path d="M17.3965 17.9985H25.3038V24.7478H17.3965V17.9985Z" fill="#0364B8"/>
<path d="M9.6665 18.0532H17.3973V24.1633H9.6665V18.0542V18.0532Z" fill="#14447D"/>
<path d="M25.3027 17.9985H32.4185V24.7478H25.3027V17.9985Z" fill="#0078D4"/>
<path d="M33.6366 16.338L33.6216 16.3451L21.8408 22.6297C21.6008 22.7712 21.3263 22.8516 21.0439 22.863L20.3999 22.5069C20.3465 22.4805 20.293 22.4521 20.2416 22.4207L8.3036 15.9575H8.29718L7.90674 15.7505V28.4729C7.91316 29.3212 8.6427 30.005 9.53805 29.9999H32.3925C32.4064 29.9999 32.4182 29.9939 32.4321 29.9939C32.6214 29.9827 32.8076 29.9452 32.9862 29.8843C33.0632 29.8538 33.137 29.8163 33.2087 29.7747C33.4487 29.6418 33.648 29.4519 33.7868 29.2236C33.9257 28.9952 33.9992 28.7365 34.0003 28.4729V15.7505C33.9982 15.994 33.8602 16.2182 33.6366 16.338Z" fill="url(#paint0_linear_2016_11487)"/>
<path opacity="0.5" d="M33.3654 15.697V16.4773L21.0466 24.5212L8.29348 15.9598L8.29325 15.9568L8.2917 15.9541L8.28913 15.9523L8.28599 15.9517L7.11572 15.2841V14.7219L7.59709 14.7148L8.6176 15.2698L8.64114 15.2769L8.72885 15.3297C8.72885 15.3297 20.715 21.8162 20.7471 21.8315L21.2049 22.0861C21.2465 22.07 21.2886 22.0551 21.3312 22.0415C21.3558 22.0263 33.2317 15.6899 33.2317 15.6899L33.3654 15.697Z" fill="#0A2767"/>
<path d="M33.6366 16.338L33.6216 16.3461L21.8408 22.6307C21.5766 22.7892 21.2704 22.8734 20.9578 22.8734C20.6452 22.8734 20.3389 22.7892 20.0747 22.6307L8.29291 16.3461L8.279 16.338C8.16728 16.2805 8.07383 16.1957 8.00837 16.0924C7.9429 15.9891 7.90781 15.871 7.90674 15.7505V28.4729C7.91209 29.3212 8.6427 30.005 9.53698 29.9999H32.3679C32.5808 30.0014 32.7918 29.9631 32.9891 29.8871C33.1863 29.8111 33.3658 29.699 33.5173 29.5572C33.6688 29.4154 33.7894 29.2466 33.8721 29.0606C33.9547 28.8745 33.998 28.6748 33.9992 28.4729V15.7505C33.9992 15.994 33.8602 16.2182 33.6366 16.338Z" fill="#1490DF"/>
<path opacity="0.1" d="M22.0091 22.5371L21.8326 22.6315C21.5983 22.7731 21.33 22.8558 21.0527 22.8719L25.5348 27.8994L33.3545 29.6862C33.5684 29.534 33.7395 29.3311 33.8497 29.0997L22.008 22.5371H22.0091Z" fill="black"/>
<path opacity="0.05" d="M22.8071 22.1079L21.8326 22.6274C21.5983 22.7689 21.33 22.8517 21.0527 22.8679L23.1526 28.3601L33.3566 29.6811C33.7588 29.395 33.9952 28.9455 33.9952 28.4686V28.3043L22.8071 22.1079Z" fill="black"/>
<path d="M9.55945 29.9999H32.3658C32.7166 30.001 33.0589 29.8964 33.3424 29.6996L20.3989 22.5079C20.3454 22.4826 20.2919 22.4541 20.2416 22.4217L8.30253 15.9585H8.29611L7.90674 15.7505V28.4293C7.90674 29.2958 8.64484 29.9989 9.55945 29.9999Z" fill="#28A8EA"/>
<path opacity="0.1" d="M18.9761 7.37433V23.372C18.9755 23.6462 18.8886 23.9141 18.7267 24.1413C18.5647 24.3684 18.335 24.5447 18.0669 24.6474C17.8968 24.7164 17.7139 24.7519 17.5288 24.7519H7.90674V6.75034H9.48778V5.99951H17.5288C17.9126 6.00085 18.2802 6.14619 18.5514 6.40379C18.8226 6.66139 18.9753 7.01031 18.9761 7.37433Z" fill="black"/>
<path opacity="0.2" d="M18.1856 8.12634V24.122C18.1878 24.3036 18.1471 24.4832 18.0669 24.6476C17.9594 24.8985 17.7757 25.1135 17.5392 25.2652C17.3026 25.417 17.0239 25.4986 16.7383 25.4998H7.90674V6.75152H16.7383C16.9683 6.74949 17.194 6.80327 17.3951 6.90879C17.8797 7.14012 18.1856 7.61091 18.1856 8.12634Z" fill="black"/>
<path opacity="0.2" d="M18.1856 8.12634V22.6224C18.1839 22.9864 18.0311 23.3352 17.7602 23.5931C17.4893 23.851 17.1221 23.9973 16.7383 24.0002H7.90674V6.75152H16.7383C16.9683 6.74949 17.194 6.80327 17.3951 6.90879C17.8797 7.14012 18.1856 7.61091 18.1856 8.12634Z" fill="black"/>
<path opacity="0.2" d="M17.3951 8.12629V22.6223C17.3945 22.9867 17.2421 23.3361 16.9709 23.5942C16.6997 23.8524 16.332 23.9983 15.9478 24.0002H7.90674V6.75146H15.9478C16.7479 6.75146 17.3951 7.36734 17.3951 8.12527V8.12629Z" fill="black"/>
<path d="M1.45053 6.75146H15.9452C16.7464 6.75146 17.3946 7.36633 17.3946 8.12629V21.8745C17.3946 22.6355 16.7464 23.2504 15.9462 23.2504H1.44946C1.06504 23.2504 0.696365 23.1055 0.424538 22.8477C0.152711 22.5898 0 22.2402 0 21.8755V8.12629C0 7.36633 0.650386 6.75146 1.45053 6.75146Z" fill="url(#paint1_linear_2016_11487)"/>
<path d="M4.52941 12.5144C4.8866 11.7923 5.46328 11.1881 6.18533 10.7793C6.98478 10.3453 7.89501 10.1291 8.81576 10.1543C9.66923 10.1365 10.5115 10.3415 11.2504 10.7469C11.9447 11.1405 12.5041 11.7158 12.8603 12.4048C13.2487 13.1637 13.4423 13.9977 13.4252 14.8419C13.4441 15.7232 13.2451 16.5964 12.8443 17.3917C12.4791 18.105 11.9016 18.7011 11.183 19.1064C10.4159 19.5242 9.54284 19.7347 8.65851 19.7152C7.78697 19.7356 6.92628 19.5285 6.17035 19.1165C5.46937 18.7231 4.90266 18.1464 4.53797 17.4556C4.14732 16.7075 3.95144 15.8815 3.96674 15.0469C3.95075 14.1733 4.14309 13.3075 4.52941 12.5144ZM6.29444 16.5861C6.48485 17.0426 6.8079 17.4384 7.22509 17.7275C7.65084 18.0096 8.16109 18.1557 8.6799 18.1435C9.23304 18.1642 9.77825 18.0136 10.2331 17.7143C10.6456 17.4259 10.9599 17.029 11.137 16.5729C11.3355 16.0632 11.4334 15.5232 11.4259 14.9799C11.4321 14.4318 11.3402 13.8866 11.1542 13.3677C10.9897 12.8992 10.6854 12.486 10.2781 12.1785C9.8346 11.8655 9.29104 11.7067 8.73874 11.729C8.20817 11.7159 7.68687 11.8626 7.2497 12.1481C6.82456 12.4387 6.49545 12.8382 6.30086 13.2997C5.86928 14.3569 5.86699 15.5274 6.29444 16.5861Z" fill="white"/>
<path d="M25.3027 4.49951H32.4185V11.2488H25.3027V4.49951Z" fill="#50D9FF"/>
<defs>
<linearGradient id="paint0_linear_2016_11487" x1="20.953" y1="15.7505" x2="20.953" y2="29.9999" gradientUnits="userSpaceOnUse">
<stop stop-color="#35B8F1"/>
<stop offset="1" stop-color="#28A8EA"/>
</linearGradient>
<linearGradient id="paint1_linear_2016_11487" x1="3.02194" y1="5.67697" x2="13.4965" y2="24.8046" gradientUnits="userSpaceOnUse">
<stop stop-color="#1784D9"/>
<stop offset="0.5" stop-color="#107AD5"/>
<stop offset="1" stop-color="#0A63C9"/>
</linearGradient>
</defs>
</svg>
