<svg width="32" height="32" viewBox="0 0 32 32" fill="none" xmlns="http://www.w3.org/2000/svg">
<path d="M10.5635 0H31.4349C31.7476 0 32.0001 0.25369 32.0001 0.567143V21.4368C32.0001 21.7503 31.7476 22.0027 31.4349 22.0027H9.99707V0.567143C9.99707 0.254909 10.2508 0 10.5635 0Z" fill="#CAF23A"/>
<path d="M0.565261 22.0024H9.9979V31.4341C9.9979 31.7476 9.74534 32 9.43144 32H0.565261C0.491503 32.0005 0.418374 31.9862 0.350049 31.9581C0.281724 31.9299 0.219542 31.8883 0.167052 31.8358C0.114562 31.7832 0.0727939 31.7207 0.044131 31.6518C0.0154681 31.5829 0.000472296 31.5089 0 31.4341V22.5696C0 22.2561 0.252563 22.0024 0.565261 22.0024Z" fill="#4FC26B"/>
</svg>
