<svg width="32" height="32" viewBox="0 0 32 32" fill="none" xmlns="http://www.w3.org/2000/svg">
<path d="M5.49506 24.9042C5.01689 24.9205 4.56382 25.1186 4.2314 25.4568C3.89897 25.795 3.71317 26.2469 3.71317 26.7172C3.71317 27.1875 3.89897 27.6394 4.2314 27.9776C4.56382 28.3158 5.01689 28.5139 5.49506 28.5302C5.97322 28.5139 6.42629 28.3158 6.75871 27.9776C7.09114 27.6394 7.27694 27.1875 7.27694 26.7172C7.27694 26.2469 7.09114 25.795 6.75871 25.4568C6.42629 25.1186 5.97322 24.9205 5.49506 24.9042ZM25.8389 2.99492C25.4737 2.99449 25.1165 3.1005 24.8126 3.29955C24.5087 3.49859 24.2717 3.78174 24.1315 4.11318C23.9913 4.44463 23.9542 4.80949 24.0249 5.16164C24.0957 5.5138 24.271 5.83743 24.5289 6.09163C24.7867 6.34582 25.1155 6.51917 25.4736 6.58975C25.8316 6.66033 26.203 6.62497 26.5406 6.48815C26.8782 6.35133 27.167 6.11919 27.3704 5.82107C27.5738 5.52295 27.6828 5.17225 27.6834 4.8133V4.8068C27.6834 3.8067 26.8564 2.99492 25.8389 2.99492ZM12.4778 10.3193V12.5447C12.4778 12.8759 12.751 13.1508 13.0945 13.1508H31.3725C31.536 13.1508 31.6929 13.0869 31.8085 12.9733C31.9242 12.8596 31.9891 12.7054 31.9891 12.5447V10.3193C31.988 10.1589 31.9227 10.0054 31.8073 9.89197C31.6919 9.77854 31.5357 9.71432 31.3725 9.71318H13.0945C12.9314 9.71459 12.7754 9.77891 12.6601 9.89227C12.5447 10.0056 12.4793 10.159 12.4778 10.3193ZM19.5113 20.5769V18.3581C19.5113 18.1973 19.4463 18.0431 19.3307 17.9295C19.215 17.8158 19.0582 17.7519 18.8946 17.7519H0.616679C0.453126 17.7519 0.296271 17.8158 0.180621 17.9295C0.0649713 18.0431 0 18.1973 0 18.3581V20.5769C0 20.9081 0.273101 21.183 0.616679 21.183H18.8946C19.2382 21.183 19.5113 20.9146 19.5113 20.5769ZM31.8493 17.5896C31.8 17.5273 31.7386 17.4753 31.6686 17.4367C31.5987 17.398 31.5216 17.3735 31.4418 17.3644L29.1976 17.1393C29.0384 17.1218 28.8786 17.1665 28.7525 17.2636C28.6265 17.3608 28.5443 17.5027 28.5236 17.6589C27.5821 24.547 21.1268 29.3852 14.1187 28.4533C13.1452 28.3224 12.1915 28.0853 11.2753 27.7476C11.2019 27.7187 11.1233 27.7042 11.0442 27.7052C10.9651 27.7062 10.887 27.7226 10.8143 27.7534C10.7416 27.7841 10.6759 27.8287 10.6208 27.8846C10.5658 27.9405 10.5225 28.0065 10.4935 28.0788L9.63452 30.1223C9.60301 30.1974 9.58709 30.2779 9.5877 30.3592C9.5883 30.4404 9.60542 30.5206 9.63805 30.5953C9.67067 30.6699 9.71815 30.7374 9.77768 30.7937C9.83721 30.85 9.9076 30.8941 9.9847 30.9233C18.3726 34.1044 27.8045 29.9979 31.0421 21.7524C31.5114 20.5591 31.8316 19.3143 31.9958 18.0453C32.0058 17.9634 31.9979 17.8804 31.9727 17.8018C31.9474 17.7233 31.9054 17.6509 31.8493 17.5896ZM0.134348 12.4884C0.0903229 12.4205 0.0612995 12.3443 0.0491585 12.2647C0.0370175 12.185 0.0420296 12.1038 0.0638702 12.0262C0.959869 8.58436 2.99657 5.53382 5.85249 3.35612C8.7084 1.17842 12.2209 -0.00241825 15.8354 3.71828e-06C17.6547 3.71828e-06 19.4673 0.294408 21.184 0.887546C21.5023 0.988207 21.6796 1.32591 21.5783 1.63763C21.5717 1.65062 21.5662 1.6701 21.5596 1.68092L20.7513 3.75691C20.6975 3.90445 20.5863 4.02496 20.4422 4.09194C20.298 4.15892 20.1327 4.16689 19.9826 4.11409C18.6454 3.66531 17.2419 3.4371 15.8288 3.43869C12.9047 3.4253 10.0663 4.4083 7.79659 6.22038C5.66873 7.91467 4.14518 10.231 3.4468 12.8337C3.41272 12.9624 3.33621 13.0764 3.22921 13.1579C3.12222 13.2393 2.99079 13.2837 2.85545 13.2839C2.80904 13.2901 2.762 13.2901 2.71559 13.2839L0.515368 12.7893C0.353407 12.7415 0.21649 12.6341 0.133247 12.4895L0.134348 12.4884Z" fill="#25C365"/>
</svg>
