<svg width="22" height="36" viewBox="0 0 22 36" fill="none" xmlns="http://www.w3.org/2000/svg">
<path d="M2.95803 36H6.00788C6.28645 36 6.4701 35.782 6.4701 35.4557V35.2365L3.9743 27.2731C3.931 27.1728 3.86471 27.089 3.78299 27.0311C3.70126 26.9731 3.60739 26.9435 3.51208 26.9455H0.462224C0.184683 27.0551 0 27.2743 0 27.491V27.7102L2.4958 35.6737C2.58866 35.8916 2.77334 36 2.95803 36ZM15.5289 0.655099L18.0257 8.61857C18.1175 8.83775 18.3022 8.94612 18.4869 8.94612H21.5378C21.8143 8.94612 22 8.72694 22 8.40061V8.18143L19.5032 0.217961C19.3769 0.0817378 19.213 0.00428128 19.042 0H15.9911C15.7135 0 15.5289 0.219178 15.5289 0.54551V0.655099ZM8.59551 36H11.6464C11.925 36 12.1086 35.782 12.1086 35.4557V35.2365L6.8405 18.3282C6.79735 18.2277 6.73112 18.1436 6.64938 18.0855C6.56764 18.0273 6.4737 17.9975 6.37828 17.9994H3.32739C3.04985 17.9994 2.86517 18.2186 2.86517 18.5461V18.7641L8.13431 35.6737C8.22717 35.8916 8.41082 36 8.59551 36ZM14.6044 36H17.6553C17.9328 36 18.1175 35.782 18.1175 35.4557V35.3461L7.20987 0.32755C7.20987 0.108371 7.02415 0 6.8405 0H3.69676C3.51104 0 3.32636 0.219178 3.32636 0.54551V0.764688L14.234 35.6737C14.3269 35.8916 14.4208 36 14.6044 36ZM15.1595 18.0006H18.2093C18.4879 18.0006 18.6716 17.7814 18.6716 17.4551V17.2359L13.4035 0.328767C13.3602 0.228538 13.2939 0.144685 13.2121 0.0867713C13.1304 0.0288572 13.0365 -0.000787344 12.9412 0.00121786H9.89035C9.61281 0.00121786 9.42813 0.220396 9.42813 0.546728V0.765906L14.7891 17.6743C14.882 17.8935 14.9748 18.0018 15.1595 18.0018V18.0006Z" fill="#244AE5"/>
</svg>
