<svg width="33" height="24" viewBox="0 0 33 24" fill="none" xmlns="http://www.w3.org/2000/svg">
<path d="M23.661 7.10645C24.0968 6.47973 24.0968 5.67375 23.661 5.05065L20.9987 1.23205L20.7768 0.910717C20.3787 0.34086 19.6934 0 18.9406 0H12.9308C12.1801 0 11.4947 0.34086 11.0946 0.912494L0.332778 16.3484C0.116869 16.6574 0 17.0142 0 17.3763C0 17.7385 0.114888 18.0953 0.330798 18.4024L3.21687 22.5441C3.615 23.1158 4.30038 23.4548 5.0511 23.4548H11.0609C11.8156 23.4548 12.501 23.114 12.8971 22.5423L13.1171 22.2299C13.1171 22.2299 13.1171 22.2299 13.1171 22.2264L13.121 22.2192L15.2662 19.1445L21.6246 10.0249L23.657 7.10816L23.661 7.10645ZM23.0331 6.07855C23.0331 6.27558 22.9717 6.47441 22.8468 6.65016L12.3049 21.7719C12.2098 21.9086 12.0573 21.9245 11.9959 21.9245C11.9344 21.9245 11.7839 21.9086 11.6869 21.7719L9.02267 17.9462C8.781 17.6001 8.781 17.1544 9.02267 16.8047L19.5646 1.68651C19.6597 1.54803 19.8122 1.53207 19.8736 1.53207C19.935 1.53207 20.0875 1.54803 20.1846 1.68828L22.8468 5.50693C22.9717 5.68268 23.0331 5.88142 23.0331 6.07855Z" fill="#1D1F20"/>
<path d="M31.7136 16.1692L29.0514 12.3506C29.0514 12.3506 29.0415 12.3346 29.0356 12.3275L28.8256 12.0275C28.4294 11.4576 27.7441 11.1168 26.9953 11.115L22.7068 11.1025L22.4077 11.5322L17.2833 18.8818L17 19.2883L19.1472 22.3631C19.5435 22.9348 20.2288 23.2756 20.9835 23.2756H26.9934C27.7342 23.2756 28.4354 22.9259 28.8276 22.3649L29.0395 22.0614C29.0395 22.0614 29.0474 22.0524 29.0494 22.0489L31.7156 18.225C32.1533 17.6001 32.1533 16.7923 31.7156 16.1692H31.7136ZM30.9015 17.7687L28.2353 21.5926C28.2234 21.6104 28.2095 21.6245 28.1976 21.6388C28.1046 21.7328 27.9837 21.7453 27.9303 21.7453C27.8688 21.7453 27.7183 21.7293 27.6212 21.5908L24.9551 17.767C24.9253 17.7243 24.8995 17.68 24.8758 17.632C24.8521 17.5858 24.8342 17.5397 24.8183 17.4918C24.759 17.3001 24.759 17.0941 24.8183 16.9024C24.8481 16.8083 24.8936 16.7142 24.9531 16.629L27.6153 12.8086C27.6153 12.8086 27.6193 12.8033 27.6212 12.7997C27.6846 12.7145 27.7639 12.6755 27.8332 12.663C27.861 12.656 27.8847 12.6542 27.9045 12.6507C27.9144 12.6507 27.9243 12.6507 27.9342 12.6507C27.9956 12.6507 28.1481 12.6683 28.2432 12.8068L30.9054 16.6255C31.1491 16.9733 31.1491 17.4208 30.9054 17.7687H30.9015Z" fill="#1D1F20"/>
</svg>
