<svg width="151" height="40" viewBox="0 0 151 40" fill="none" xmlns="http://www.w3.org/2000/svg">
<mask id="mask0_2003_10487" style="mask-type:luminance" maskUnits="userSpaceOnUse" x="0" y="0" width="151" height="40">
<path d="M150.993 0H0V40H150.993V0Z" fill="white"/>
</mask>
<g mask="url(#mask0_2003_10487)">
<path d="M12.2524 19.6774C16.6162 19.6774 20.1538 16.1605 20.1538 11.8224C20.1538 7.48412 16.6162 3.96729 12.2524 3.96729C7.88863 3.96729 4.35107 7.48412 4.35107 11.8224C4.35107 16.1605 7.88863 19.6774 12.2524 19.6774Z" fill="#31373D"/>
<path d="M26.4517 14.6684C28.6442 14.6684 30.4216 12.9015 30.4216 10.7219C30.4216 8.54231 28.6442 6.77539 26.4517 6.77539C24.2593 6.77539 22.4819 8.54231 22.4819 10.7219C22.4819 12.9015 24.2593 14.6684 26.4517 14.6684Z" fill="#31373D"/>
<path d="M3.96976 26.3181C6.16218 26.3181 7.93952 24.5512 7.93952 22.3715C7.93952 20.1919 6.16218 18.425 3.96976 18.425C1.77733 18.425 0 20.1919 0 22.3715C0 24.5512 1.77733 26.3181 3.96976 26.3181Z" fill="#31373D"/>
<path d="M25.4598 33.1868C30.0133 33.1868 33.7046 29.517 33.7046 24.9901C33.7046 20.4633 30.0133 16.7935 25.4598 16.7935C20.9062 16.7935 17.2148 20.4633 17.2148 24.9901C17.2148 29.517 20.9062 33.1868 25.4598 33.1868Z" fill="#31373D"/>
<path d="M11.3754 36.0328C14.1158 36.0328 16.3375 33.8241 16.3375 31.0996C16.3375 28.3751 14.1158 26.1665 11.3754 26.1665C8.63474 26.1665 6.41309 28.3751 6.41309 31.0996C6.41309 33.8241 8.63474 36.0328 11.3754 36.0328Z" fill="#31373D"/>
<path d="M54.2383 19.6006C55.2965 19.8247 56.1466 20.3503 56.7885 21.1775C57.4304 21.9875 57.7513 22.9182 57.7513 23.9695C57.7513 25.4862 57.2134 26.6925 56.1379 27.5887C55.0796 28.4676 53.5963 28.9071 51.688 28.9071H43.1787V10.7595H51.4018C53.2581 10.7595 54.7067 11.1818 55.7475 12.0262C56.8058 12.8707 57.3349 14.0168 57.3349 15.4644C57.3349 16.5329 57.0487 17.4205 56.4762 18.1271C55.921 18.8337 55.175 19.3249 54.2383 19.6006ZM47.6286 18.1013H50.5431C51.2717 18.1013 51.8268 17.9461 52.2085 17.636C52.6075 17.3085 52.807 16.8345 52.807 16.2142C52.807 15.5937 52.6075 15.1197 52.2085 14.7923C51.8268 14.4649 51.2717 14.3012 50.5431 14.3012H47.6286V18.1013ZM50.9074 25.3396C51.6534 25.3396 52.2258 25.1759 52.6248 24.8484C53.0412 24.5038 53.2494 24.0126 53.2494 23.3749C53.2494 22.7373 53.0325 22.2375 52.5988 21.8756C52.1824 21.5136 51.6013 21.3327 50.8553 21.3327H47.6286V25.3396H50.9074ZM73.2393 21.4619C73.2393 21.8756 73.2133 22.3064 73.1613 22.7545H63.0905C63.16 23.6507 63.4463 24.3401 63.9493 24.8226C64.4697 25.2879 65.1029 25.5206 65.849 25.5206C66.9593 25.5206 67.7312 25.0552 68.1649 24.1246H72.9011C72.6582 25.0725 72.2157 25.9256 71.5739 26.6839C70.9493 27.4422 70.16 28.0368 69.2058 28.4676C68.2517 28.8985 67.1848 29.1139 66.0051 29.1139C64.5825 29.1139 63.316 28.8123 62.2058 28.2091C61.0955 27.606 60.2281 26.7442 59.6036 25.6239C58.979 24.5038 58.6668 23.194 58.6668 21.6946C58.6668 20.1953 58.9704 18.8855 59.5775 17.7652C60.202 16.645 61.0695 15.7833 62.1797 15.1801C63.29 14.5769 64.5652 14.2753 66.0051 14.2753C67.4103 14.2753 68.6593 14.5683 69.7523 15.1542C70.8452 15.7402 71.6953 16.576 72.3024 17.6618C72.927 18.7476 73.2393 20.0143 73.2393 21.4619ZM68.6853 20.2987C68.6853 19.5403 68.4252 18.9371 67.9047 18.489C67.3842 18.041 66.7337 17.8169 65.953 17.8169C65.207 17.8169 64.5738 18.0324 64.0534 18.4632C63.5503 18.894 63.238 19.5059 63.1166 20.2987H68.6853ZM73.9214 21.6688C73.9214 20.1866 74.199 18.8855 74.754 17.7652C75.3266 16.645 76.0986 15.7833 77.0701 15.1801C78.0417 14.5769 79.1259 14.2753 80.3229 14.2753C81.3464 14.2753 82.2399 14.4821 83.0032 14.8957C83.7839 15.3094 84.3824 15.8523 84.7987 16.5244V14.4821H89.2486V28.9071H84.7987V26.8649C84.3651 27.537 83.7579 28.0799 82.9771 28.4935C82.2138 28.9071 81.3204 29.1139 80.2969 29.1139C79.1173 29.1139 78.0417 28.8123 77.0701 28.2091C76.0986 27.5887 75.3266 26.7184 74.754 25.5981C74.199 24.4607 73.9214 23.1509 73.9214 21.6688ZM84.7987 21.6946C84.7987 20.5916 84.4865 19.7213 83.862 19.0837C83.2548 18.446 82.5088 18.1271 81.624 18.1271C80.7392 18.1271 79.9846 18.446 79.3601 19.0837C78.753 19.704 78.4494 20.5658 78.4494 21.6688C78.4494 22.7717 78.753 23.6507 79.3601 24.3056C79.9846 24.9433 80.7392 25.2621 81.624 25.2621C82.5088 25.2621 83.2548 24.9433 83.862 24.3056C84.4865 23.668 84.7987 22.7976 84.7987 21.6946ZM90.802 21.6946C90.802 20.1953 91.106 18.8855 91.713 17.7652C92.3379 16.645 93.1969 15.7833 94.2899 15.1801C95.3999 14.5769 96.6659 14.2753 98.0888 14.2753C99.9108 14.2753 101.429 14.7492 102.643 15.6971C103.875 16.645 104.68 17.9806 105.063 19.704H100.326C99.9279 18.6011 99.1558 18.0495 98.0108 18.0495C97.1949 18.0495 96.5448 18.3684 96.0589 19.0061C95.5729 19.6265 95.3299 20.5227 95.3299 21.6946C95.3299 22.8665 95.5729 23.7713 96.0589 24.409C96.5448 25.0294 97.1949 25.3396 98.0108 25.3396C99.1558 25.3396 99.9279 24.7881 100.326 23.6851H105.063C104.68 25.3741 103.875 26.7011 102.643 27.6663C101.411 28.6313 99.8926 29.1139 98.0888 29.1139C96.6659 29.1139 95.3999 28.8123 94.2899 28.2091C93.1969 27.606 92.3379 26.7442 91.713 25.6239C91.106 24.5038 90.802 23.194 90.802 21.6946ZM113.272 29.1139C111.849 29.1139 110.566 28.8123 109.421 28.2091C108.293 27.606 107.4 26.7442 106.74 25.6239C106.098 24.5038 105.777 23.194 105.777 21.6946C105.777 20.2125 106.108 18.9113 106.766 17.7911C107.426 16.6536 108.328 15.7833 109.473 15.1801C110.618 14.5769 111.902 14.2753 113.324 14.2753C114.746 14.2753 116.031 14.5769 117.175 15.1801C118.321 15.7833 119.223 16.6536 119.882 17.7911C120.54 18.9113 120.871 20.2125 120.871 21.6946C120.871 23.1767 120.532 24.4865 119.856 25.6239C119.197 26.7442 118.286 27.606 117.124 28.2091C115.978 28.8123 114.695 29.1139 113.272 29.1139ZM113.272 25.2879C114.122 25.2879 114.842 24.9777 115.432 24.3573C116.039 23.7368 116.343 22.8493 116.343 21.6946C116.343 20.5399 116.048 19.6524 115.458 19.0319C114.886 18.4115 114.174 18.1013 113.324 18.1013C112.457 18.1013 111.737 18.4115 111.164 19.0319C110.592 19.6351 110.305 20.5227 110.305 21.6946C110.305 22.8493 110.583 23.7368 111.138 24.3573C111.711 24.9777 112.422 25.2879 113.272 25.2879ZM131.298 14.327C132.998 14.327 134.351 14.8784 135.358 15.9815C136.381 17.0672 136.893 18.5666 136.893 20.4796V28.9071H132.469V21.0742C132.469 20.109 132.218 19.3593 131.714 18.8251C131.212 18.2908 130.535 18.0237 129.686 18.0237C128.835 18.0237 128.159 18.2908 127.655 18.8251C127.152 19.3593 126.9 20.109 126.9 21.0742V28.9071H122.45V14.4821H126.9V16.3951C127.351 15.7574 127.958 15.2576 128.722 14.8957C129.485 14.5166 130.344 14.327 131.298 14.327ZM145.111 29.1139C143.846 29.1139 142.717 28.8985 141.729 28.4676C140.739 28.0368 139.959 27.4508 139.386 26.7097C138.815 25.9515 138.494 25.107 138.423 24.1763H142.821C142.873 24.6761 143.108 25.0811 143.525 25.3913C143.94 25.7015 144.453 25.8567 145.06 25.8567C145.615 25.8567 146.04 25.7533 146.334 25.5465C146.647 25.3224 146.803 25.038 146.803 24.6933C146.803 24.2797 146.586 23.9781 146.152 23.7886C145.719 23.5817 145.016 23.3577 144.044 23.1164C143.004 22.8751 142.137 22.6252 141.442 22.3667C140.748 22.091 140.15 21.6688 139.647 21.1C139.144 20.514 138.892 19.7299 138.892 18.7476C138.892 17.9203 139.118 17.1706 139.569 16.4985C140.038 15.8091 140.713 15.2663 141.598 14.8699C142.5 14.4734 143.567 14.2753 144.799 14.2753C146.621 14.2753 148.052 14.7234 149.093 15.6195C150.151 16.5157 150.758 17.7049 150.915 19.1871H146.803C146.734 18.6872 146.508 18.2908 146.126 17.9979C145.762 17.7049 145.276 17.5584 144.669 17.5584C144.149 17.5584 143.75 17.6618 143.472 17.8686C143.195 18.0582 143.057 18.3253 143.057 18.67C143.057 19.0837 143.272 19.3938 143.706 19.6006C144.157 19.8074 144.851 20.0143 145.789 20.2211C146.865 20.4969 147.74 20.7725 148.416 21.0483C149.093 21.3069 149.683 21.7377 150.187 22.3409C150.706 22.9269 150.975 23.7196 150.993 24.7192C150.993 25.5636 150.75 26.322 150.264 26.9941C149.796 27.649 149.11 28.166 148.208 28.5452C147.324 28.9243 146.291 29.1139 145.111 29.1139Z" fill="#31373D"/>
</g>
</svg>
