<svg width="160" height="40" viewBox="0 0 160 40" fill="none" xmlns="http://www.w3.org/2000/svg">
<g clip-path="url(#clip0_816_41594)">
<path fill-rule="evenodd" clip-rule="evenodd" d="M39.2547 13.2505C42.5095 13.2505 44.5385 14.6665 44.5385 16.9491C44.5385 18.5342 43.5663 19.7812 41.9812 20.2039C43.9045 20.5632 45.0669 22.0004 45.0669 23.9448C45.0669 26.481 42.9111 28.045 39.4872 28.045H32.4492V13.2505H39.2547ZM39.0856 19.2106C40.3538 19.2106 41.1146 18.5976 41.1146 17.562C41.1146 16.5475 40.3538 15.9557 39.0856 15.9769H35.7886V19.2106H39.0856ZM39.0856 25.3186C40.6496 25.3186 41.6219 24.6634 41.6219 23.5221C41.6219 22.4442 40.6496 21.789 39.0856 21.8102H35.7886V25.3186H39.0856ZM63.8914 28.045H60.1082L57.7622 23.818H54.3594V28.045H51.0201V13.2505H57.4452C61.3129 13.2505 63.511 15.1103 63.511 18.3863C63.511 20.6689 62.5387 22.3174 60.7422 23.1628L63.8914 28.045ZM54.3593 16.0192V21.0282H57.4452C59.2839 21.0282 60.3407 20.1828 60.3407 18.492C60.3407 16.8434 59.2839 16.0192 57.4452 16.0192H54.3593ZM80.7712 28.045L79.6087 25.1707H72.7609L71.5985 28.045H68.1535L74.5786 13.2505H78.0236L84.343 28.045H80.7712ZM73.8601 22.4865H78.531L76.2061 16.7378L73.8601 22.4865ZM86.661 13.2505L92.4731 28.045H95.9181L101.794 13.2505H98.3487L94.2907 24.4098L90.2539 13.2505H86.661ZM116.75 28.045L115.588 25.1707H108.74L107.578 28.045H104.133L110.558 13.2505H114.003L120.322 28.045H116.75ZM109.839 22.4865H114.51L112.185 16.7378L109.839 22.4865ZM131.665 13.2505C136.252 13.2505 139.443 16.2728 139.443 20.6477C139.443 25.0016 136.209 28.045 131.538 28.045H125.388V13.2505H131.665ZM131.749 25.2341C134.222 25.2341 136.04 23.3742 136.04 20.6689C136.04 17.9425 134.137 16.0614 131.601 16.0614H128.727V25.2341H131.749ZM152.054 13.1448C156.577 13.1448 160 16.3573 160 20.6478C160 24.917 156.577 28.193 152.054 28.193C147.531 28.193 144.107 24.9382 144.107 20.6478C144.107 16.3362 147.531 13.1448 152.054 13.1448ZM152.096 16.0614C149.602 16.0614 147.531 18.0481 147.531 20.6478C147.531 23.2474 149.623 25.2763 152.096 25.2763C154.569 25.2763 156.577 23.2474 156.577 20.6478C156.577 18.0481 154.569 16.0614 152.096 16.0614Z" fill="#31373D"/>
<path d="M18.7864 11.6064V14.7766C18.7864 15.1289 18.7863 15.3637 18.669 15.716C18.3167 17.0075 17.0252 17.9469 15.7336 17.9469H3.17021C1.76123 17.9469 0.587078 17.0075 0.23484 15.716C1.3411e-07 15.3637 0 15.0115 0 14.7766V11.6064H3.17021V13.4851C3.17021 14.1896 3.75728 14.7766 4.46177 14.7766H14.4421C15.1465 14.7766 15.7336 14.1896 15.7336 13.4851V11.6064H18.7864Z" fill="#31373D"/>
<path d="M13.6201 21.0002L10.2151 27.2233H9.3932H8.57129L5.16626 21.0002H0L1.76123 24.1705H3.28762L6.69266 30.3934H9.3932H12.0937L15.4987 24.1705H17.0252L18.7864 21.0002H13.6201Z" fill="#31373D"/>
</g>
<defs>
<clipPath id="clip0_816_41594">
<rect width="160" height="40" fill="white"/>
</clipPath>
</defs>
</svg>
