<svg width="146" height="39" viewBox="0 0 146 39" fill="none" xmlns="http://www.w3.org/2000/svg">
<mask id="mask0_2003_7671" style="mask-type:luminance" maskUnits="userSpaceOnUse" x="0" y="0" width="146" height="39">
<path d="M145.134 0H0V38.1159H145.134V0Z" fill="white"/>
</mask>
<g mask="url(#mask0_2003_7671)">
<path d="M55.8223 24.351C53.2552 24.351 51.4012 22.2892 51.4012 19.4912C51.4012 16.6931 53.2552 14.6314 55.8223 14.6314C57.9616 14.6314 59.6159 16.0451 60.1009 18.1657H63.1528C62.5823 14.4252 59.673 11.8333 55.8223 11.8333C51.5438 11.8333 48.4062 15.0732 48.4062 19.4912C48.4062 23.9092 51.5438 27.1489 55.8223 27.1489C59.673 27.1489 62.5823 24.5571 63.1528 20.8165H60.1009C59.6159 22.9077 57.9616 24.351 55.8223 24.351Z" fill="#31373D"/>
<path d="M67.1757 26.8544L68.3452 23.909H75.8754L77.0448 26.8544H80.1254L74.278 12.1277H69.9996L64.1523 26.8544H67.1757ZM69.4006 21.2583L71.9677 14.7786H72.2529L74.82 21.2583H69.4006Z" fill="#31373D"/>
<path d="M88.8185 24.3508C86.5082 24.3508 84.8251 22.4364 84.8251 19.7856V12.1277H81.9727V19.7856C81.9727 24.0268 84.8824 27.1488 88.8185 27.1488C92.7548 27.1488 95.6642 24.0268 95.6642 19.7856V12.1277H92.8118V19.7856C92.8118 22.4364 91.1289 24.3508 88.8185 24.3508Z" fill="#31373D"/>
<path d="M105.789 24.4982C103.393 24.4982 101.796 23.6734 101.796 22.4365H98.9434C98.9434 25.2639 101.682 27.1489 105.789 27.1489C110.239 27.1489 112.635 25.4701 112.635 22.3481C112.635 19.3438 110.638 18.0185 105.932 18.0185C103.222 18.0185 102.081 17.5767 102.081 16.4575C102.081 15.1616 103.365 14.484 105.789 14.484C108.014 14.484 109.497 15.3088 109.497 16.5458H112.349C112.349 13.7183 109.725 11.8333 105.789 11.8333C101.511 11.8333 99.2287 13.4533 99.2287 16.4575C99.2287 19.4322 101.168 20.6693 105.675 20.6693C108.527 20.6693 109.782 21.1699 109.782 22.3481C109.782 23.7324 108.385 24.4982 105.789 24.4982Z" fill="#31373D"/>
<path d="M117.515 26.8544L118.686 23.909H126.215L127.384 26.8544H130.466L124.617 12.1277H120.34L114.492 26.8544H117.515ZM119.741 21.2583L122.308 14.7786H122.593L125.16 21.2583H119.741Z" fill="#31373D"/>
<path d="M133.178 26.8544H144.588V24.2036H136.031V12.1277H133.178V26.8544Z" fill="#31373D"/>
<path opacity="0.8" fill-rule="evenodd" clip-rule="evenodd" d="M18.4563 38.116C28.6495 38.116 36.9126 29.5835 36.9126 19.058C36.9126 8.53253 28.6495 0 18.4563 0C8.26317 0 0 8.53253 0 19.058C0 29.5835 8.26317 38.116 18.4563 38.116ZM18.4563 30.9915C24.8388 30.9915 30.013 25.6487 30.013 19.058C30.013 12.4673 24.8388 7.12448 18.4563 7.12448C12.0737 7.12448 6.89955 12.4673 6.89955 19.058C6.89955 25.6487 12.0737 30.9915 18.4563 30.9915Z" fill="#555E67"/>
</g>
</svg>
