<svg width="110" height="40" viewBox="0 0 110 40" fill="none" xmlns="http://www.w3.org/2000/svg">
<mask id="mask0_816_41257" style="mask-type:luminance" maskUnits="userSpaceOnUse" x="0" y="1" width="110" height="38">
<path d="M110 1.66675H0V38.3334H110V1.66675Z" fill="white"/>
</mask>
<g mask="url(#mask0_816_41257)">
<path d="M42.1128 33.5637C38.0398 30.933 32.5124 30.4717 23.5979 32.9508C14.0944 35.1902 10.9263 36.6261 6.76486 33.7443C5.1662 32.3289 4.59352 30.0497 5.02113 26.7666C6.01355 21.4142 8.69627 16.2637 13.461 10.5504C16.1207 7.5784 18.5877 5.02789 21.8454 4.00377C24.3422 3.36132 24.109 5.32878 23.8069 5.61005C23.4879 5.61005 22.9526 5.6604 22.5387 5.93143C22.2027 6.19309 21.2803 7.03604 21.2313 8.1708C21.1598 9.90762 22.9526 9.54615 23.7258 8.59257C24.5591 7.51781 25.7906 5.4599 24.8221 3.54191C24.4158 2.85906 23.7141 2.38754 22.8428 2.22656C19.86 2.05592 17.0819 3.48161 14.5179 5.05775C8.91081 8.9637 4.42539 14.3761 1.88745 20.3005C0.42393 23.8751 -0.899189 28.9951 1.08476 33.1621C2.6192 36.0536 5.80514 37.5897 9.60549 37.2689C12.271 36.9876 15.4943 36.1239 17.6624 35.602C19.8308 35.0799 30.9281 31.2544 34.5743 37.9122C34.5743 37.9122 35.7868 35.5523 38.8171 35.5016C41.3084 35.2713 44.9024 36.2254 47.5194 38.1528C46.6473 36.8378 44.1753 34.8998 42.1128 33.5637Z" fill="#31373D"/>
<path d="M24.7315 11.2236C22.6559 9.85796 18.4843 12.4685 15.1427 16.9466C12.087 20.9635 10.768 25.6322 12.2037 27.7908C14.3395 30.3307 18.3045 26.6367 19.991 24.6587L20.2087 24.4272C21.3552 23.1923 22.2411 21.706 23.0984 20.2803C23.0984 20.2803 23.8862 18.9749 23.9238 18.9147C24.4113 18.8245 24.998 18.684 25.6588 18.4932C25.6495 18.5233 23.1293 22.7708 23.3865 24.8791C23.4665 25.5221 23.4052 27.8721 25.693 28.5845C28.742 29.0967 31.1766 26.7265 33.3243 24.6177C33.3243 24.6177 33.6906 24.2668 33.8976 24.0666C33.845 24.2764 33.7767 24.5574 33.7767 24.5574C32.8841 27.6705 34.0873 28.3232 34.8404 28.5638C37.115 29.2273 39.8325 25.9129 39.8413 25.9129C39.7709 26.9569 39.5651 27.8206 40.6623 28.5134C41.6979 28.8851 42.7461 28.3185 43.5429 27.7864C46.4128 25.758 48.7245 22.5844 50.592 19.8401H49.4008C49.3868 19.8401 46.4618 24.0915 44.5619 25.0155C44.559 25.0155 44.2134 25.1937 44.0143 25.0527C43.7677 24.8416 43.8649 24.4032 44.0173 24.0926C44.0269 24.073 51.3518 11.334 51.3518 11.334H47.8932C47.8932 11.334 47.5152 11.9469 47.4849 11.9867C47.4615 11.9671 47.4061 11.8614 47.3678 11.8108C45.2251 8.83881 40.3731 13.4103 36.7201 18.7118C35.3135 20.7504 33.5228 23.0454 31.6664 24.702C31.6664 24.702 28.916 27.2309 27.7405 25.4141C27.3109 24.6511 27.4431 23.5345 27.6857 22.8022C29.054 18.8962 31.4119 15.3514 34.0949 13.2122C34.8523 12.6206 35.6757 12.4494 36.0838 12.7003C36.4729 12.9315 36.5359 13.5031 36.2896 13.895C35.6647 13.8754 35.1644 14.0654 34.7572 14.4871C33.9554 15.3307 33.6766 16.144 33.9314 16.9074C35.1699 18.6744 37.6398 15.1805 37.5202 13.0518C37.4776 12.2884 37.0713 11.5655 36.4656 11.214C35.5622 10.6719 34.1848 10.8124 33.2931 11.2444C32.0993 11.696 30.2099 13.2722 29.1069 14.4974C27.7181 16.034 25.3369 17.7407 24.5923 17.5495C24.8363 16.8963 26.8474 12.7693 24.7315 11.2236ZM41.4046 17.3283C42.0774 16.3946 44.0356 13.8947 44.5123 13.473C46.1177 12.0569 46.7595 12.6801 46.8153 13.1211C45.317 15.8118 43.5488 18.8948 41.8856 21.6662C41.8894 21.6563 41.3652 22.4594 41.3652 22.4594C40.6311 23.5839 39.8915 24.5478 38.6854 25.2207C38.5138 25.271 38.23 25.2909 38.0415 25.1504C37.8147 24.9994 37.7248 24.7485 37.7502 24.4872C37.8229 23.6237 38.6997 20.9834 41.4046 17.3283ZM22.5911 18.9448C22.5911 18.9448 22.5607 19.0355 22.5461 19.0654C22.5423 19.0654 21.0383 21.5254 21.0383 21.5254C20.1308 22.7398 18.9971 24.2665 17.5806 24.9994C17.1608 25.1396 16.58 25.2303 16.2846 24.8592C15.6579 24.1058 15.9808 23.0612 16.2434 22.2182L16.336 21.9171C17.089 19.8691 18.2834 18.0618 19.4457 16.3849C19.4606 16.375 19.4927 16.365 19.5047 16.365C19.5073 16.3753 19.5117 16.3753 19.514 16.3952C20.2437 17.8007 21.6115 18.4531 22.634 18.7551C22.6401 18.7551 22.6471 18.7651 22.6471 18.7856C22.6477 18.8143 22.6308 18.8547 22.5911 18.9448ZM24.0158 16.0434C24.0097 16.0633 23.3462 17.5894 23.3462 17.5894C23.2502 17.6696 23.0984 17.6297 22.925 17.5894L22.6273 17.539C21.6921 17.2481 20.9869 16.6255 20.7697 15.8827C20.47 14.4371 21.7017 13.3023 22.2443 12.8905C22.7651 12.5287 23.575 12.3379 24.0447 12.7096C24.3345 13.0512 24.4446 13.4929 24.4446 13.9749C24.4446 14.6273 24.2437 15.3605 24.0158 16.0434Z" fill="#31373D"/>
<path d="M67.735 20.7018C67.4008 19.9788 66.6101 19.5173 65.7662 19.5673C63.0266 19.8182 60.3471 22.0774 58.9399 25.3204C58.2017 26.9867 57.7986 28.3629 57.5348 30.5517C58.3865 29.5682 60.1241 27.9511 62.0958 27.0675C62.0958 27.0675 62.3643 24.9692 63.7324 23.1018C64.2499 22.3277 65.2864 21.0834 66.4498 21.4142C67.4662 21.7561 67.1089 24.5779 65.7584 27.3081C64.7584 29.3162 63.2289 31.3256 61.6807 32.7109C60.3123 33.8755 58.2878 35.281 56.5169 34.1966C55.4016 33.5339 54.8325 32.1483 54.9527 30.3611C55.486 25.2906 57.7872 20.9728 61.0815 16.0527C64.4781 11.4844 68.2222 6.79519 73.2657 4.29474C74.294 3.77258 75.2473 3.652 76.0704 3.97366C76.0704 3.97366 71.3357 6.58416 69.0788 11.4138C68.5047 12.6393 67.7061 14.2954 68.5105 15.7615C68.9303 16.5242 69.6769 16.5848 70.2776 16.5444C73.0441 15.9017 74.8316 13.3114 76.2916 10.9417C77.1384 9.14433 77.8909 7.35716 77.8909 5.36921C77.8909 5.12832 77.8786 4.80695 77.8579 4.56607C79.1799 3.86332 81.8897 5.10813 81.8897 5.10813C84.0077 5.81117 88.5167 9.27574 90.0383 9.9381C90.7803 9.07467 91.9998 7.76956 92.686 7.11657L91.6924 6.50397C90.1014 5.52989 88.4192 4.60617 86.7634 3.69268C83.0039 1.63448 79.944 2.35713 78.3862 2.91939C77.7736 3.14037 77.2143 3.33121 77.2143 3.33121C76.0581 2.06591 74.1626 2.1862 72.7662 2.52777C67.7426 3.97337 63.0791 7.49765 58.0791 13.6128C54.4031 18.4024 52.1226 22.5393 50.9075 26.6258C49.9705 29.3765 49.6856 33.4233 51.9723 35.823C53.9165 37.861 56.4942 37.4194 58.3147 36.6871C62.2589 34.7386 65.8036 30.5417 67.5695 25.7118C67.9957 24.2767 68.4688 22.2484 67.735 20.7018ZM76.8042 5.57058C76.282 11.5751 71.6279 15.0997 70.4758 15.3807C69.7779 15.5209 68.587 15.2097 69.6498 12.69C71.2157 9.29594 73.8885 6.4147 76.7572 4.93837C76.827 5.1892 76.8249 5.34931 76.8042 5.57058Z" fill="#31373D"/>
<path d="M104.414 6.33339C101.911 7.75967 99.3151 8.68311 96.1732 8.36174C95.3028 9.34605 94.4549 10.3599 93.6738 11.4043C98.0831 12.5288 102.758 10.0286 105.365 7.64933C108.123 5.24956 109.538 2.22754 109.538 2.22754C109.538 2.22754 107.47 4.59657 104.414 6.33339Z" fill="#31373D"/>
<path d="M57.0978 11.3333H53.8135L51.9609 14.3518H55.2447L57.0978 11.3333Z" fill="#31373D"/>
<path d="M96.1614 33.8433C95.8079 34.0845 95.312 33.8989 95.4973 33.3475C95.9597 31.9414 97.7965 29.0769 97.7965 29.0769L102.913 19.9771H99.4083C99.2416 20.2517 98.8852 20.881 98.8852 20.881C98.7232 20.6105 98.2384 20.0085 98.0388 19.8782C97.1827 19.3356 95.9267 19.592 95.0601 20.084C91.2924 22.2929 88.5428 26.6581 86.3744 30.0624C86.3744 30.0624 84.0925 33.8463 82.8254 34.1275C81.8362 34.208 81.9386 32.8722 81.981 32.5605C82.3636 30.3111 83.2518 28.173 84.1465 26.2346C85.9661 24.9701 88.0434 23.3132 89.9305 21.4959C94.0262 17.5695 97.4798 13.1215 97.9848 12.1275C97.9848 12.1275 97.4384 12.2378 96.793 12.2577C93.6421 16.6659 87.1932 23.0717 85.2384 24.0259C86.1044 21.937 91.7002 11.9665 96.4617 7.19711L97.2107 6.47387C98.3698 5.33941 99.5697 4.17479 100.505 3.98396C100.604 3.97371 100.731 3.98396 100.841 4.21518C100.883 5.09881 100.555 5.75151 100.178 6.49436L99.6509 7.57907C99.6509 7.57907 100.398 7.43858 100.888 7.27731C101.457 6.20343 102.087 4.99813 101.855 3.56278C101.777 3.10062 101.444 2.74939 101.009 2.66919C99.5884 2.39787 98.0396 3.45185 96.7945 4.30562L96.7437 4.33548C90.3403 9.36594 84.9331 16.6156 80.206 26.5158C79.8633 26.7766 78.5396 27.088 78.3149 26.937C78.7819 25.9732 79.3694 24.6774 79.6637 23.2722C79.7147 22.8704 79.762 22.4594 79.762 22.0576C79.762 21.1938 79.5551 20.3805 78.783 19.8185C77.8776 19.3666 76.7591 19.5776 76.0046 19.9189C72.6254 21.325 70.1 24.7992 68.2772 27.66C67.2973 29.4784 66.3195 31.4248 66.0489 33.6543C65.8583 35.4013 66.2463 36.5258 67.2366 37.0881C68.2553 37.61 69.5373 37.0676 70.0408 36.8068C73.4643 34.9992 75.8563 31.3745 77.7419 28.0609C77.8169 28.0513 78.8458 28.0208 79.6246 27.8204C79.6348 27.8204 79.6394 27.8204 79.6567 27.8306C79.612 27.981 79.2095 29.186 79.2095 29.186C78.0145 32.7001 77.4623 35.0902 78.5907 36.5056C80.2037 38.5041 82.8741 36.436 85.0463 33.704C84.5796 36.9775 86.272 37.4902 87.5612 37.2391C89.0425 36.8376 90.6932 35.2506 91.4594 34.4375C91.213 35.3917 91.2804 37.0986 92.6275 37.269C93.551 37.4405 94.2422 36.9368 95.042 36.5048C97.9112 34.9383 101.346 29.7179 102.237 28.2088H101.068C99.8029 30.13 98.19 32.648 96.1614 33.8433ZM70.4088 33.4942C70.2267 33.2225 70.1666 32.9269 70.1602 32.6061C70.1251 30.6369 72.2372 27.1117 73.729 25.1908C73.7323 25.1908 73.7323 25.1908 73.7323 25.1908C74.3572 26.563 75.772 27.4448 76.6263 27.816C75.5653 30.1859 71.9269 35.2611 70.4088 33.4942ZM77.225 26.7573C77.1237 26.8275 75.3397 26.2255 74.995 24.5683C74.7022 23.142 75.6818 22.0274 76.6295 21.4655C77.0367 21.1441 77.6491 21.0337 78.0983 21.1938C78.5154 21.4757 78.6281 21.9777 78.6281 22.5189C78.6281 22.8511 78.5849 23.1923 78.5457 23.5032C78.5457 23.5032 78.5385 23.5638 78.5373 23.5734C78.2399 24.6877 77.7851 25.7824 77.225 26.7573ZM91.5358 32.8619L91.1975 33.1625C90.7162 33.5948 90.2209 34.0561 89.6228 33.8255C89.4576 33.7649 89.3412 33.5442 89.3131 33.373C89.286 32.1381 89.8409 30.9937 90.3785 29.8788L90.5163 29.5879C92.0636 26.997 93.8619 23.9451 96.5032 21.8264C96.948 21.5044 97.4314 21.2337 97.941 21.4447C98.0583 21.5547 98.1949 21.7456 98.1949 21.9367C98.1949 21.9967 98.1412 22.1574 98.1103 22.2077C97.3733 23.4031 96.6704 24.6578 95.9874 25.8628C94.6526 28.243 93.2676 30.7022 91.5358 32.8619Z" fill="#31373D"/>
</g>
</svg>
