<svg width="191" height="40" viewBox="0 0 191 40" fill="none" xmlns="http://www.w3.org/2000/svg">
<mask id="mask0_2003_10452" style="mask-type:luminance" maskUnits="userSpaceOnUse" x="0" y="0" width="191" height="40">
<path d="M190.995 0H0V40H190.995V0Z" fill="white"/>
</mask>
<g mask="url(#mask0_2003_10452)">
<mask id="mask1_2003_10452" style="mask-type:luminance" maskUnits="userSpaceOnUse" x="0" y="10" width="191" height="20">
<path d="M190.995 10.8064H0V29.1935H190.995V10.8064Z" fill="white"/>
</mask>
<g mask="url(#mask1_2003_10452)">
<path d="M13.0744 10.8064V17.7793H5.21826V10.8064H0V29.1935H5.21826V22.1633H13.0789V29.1935H18.2971V10.8064H13.0744Z" fill="#31373D"/>
<path d="M30.1843 16.3503L26.2962 10.8064H19.8809L27.4134 21.1092V29.1935H32.6582V21.0827L40.1864 10.8064H34.0682L30.1843 16.3503Z" fill="#31373D"/>
<path d="M52.1616 10.8064H41.7783V29.1935H46.9966V23.407H52.1616C56.9144 23.407 59.4193 21.215 59.4193 17.1089C59.4193 13.0028 56.9188 10.8064 52.1616 10.8064ZM54.0857 17.1133C54.0857 18.4673 53.2966 19.0848 51.532 19.0848H46.9877V15.133H51.532C53.301 15.133 54.0857 15.724 54.0857 17.1045V17.1133Z" fill="#31373D"/>
<path d="M61.4526 29.1935H78.4999V24.9242H66.671V21.9471H76.7306V17.9954H66.671V15.0757H78.4999V10.8064H61.4526V29.1935Z" fill="#31373D"/>
<path d="M98.7652 16.8355C98.7652 12.8925 96.4016 10.8064 91.8578 10.8064H80.8447V29.1935H86.0632V22.8381H89.4056L93.5913 29.1935L93.6045 29.1847H99.6646L95.1209 22.375C97.5106 21.5635 98.7605 19.6979 98.7605 16.8311L98.7652 16.8355ZM91.1439 18.6217H86.0632V15.0492H91.1439C92.718 15.0492 93.4535 15.6182 93.4535 16.8355C93.4535 18.0527 92.718 18.6217 91.1439 18.6217Z" fill="#31373D"/>
<path d="M106.671 10.8064H101.452V29.1935H117.542V24.7875H106.671V10.8064Z" fill="#31373D"/>
<path d="M125.104 10.8064H119.886V29.1935H125.104V10.8064Z" fill="#31373D"/>
<path d="M141.642 21.0827L134.194 10.8064H128.266V29.1935H133.241V17.325L141.854 29.1935H146.616V10.8064H141.642V21.0827Z" fill="#31373D"/>
<path d="M149.778 29.1935H166.821V24.9242H154.997V21.9471H165.056V17.9954H154.997V15.0757H166.821V10.8064H149.778V29.1935Z" fill="#31373D"/>
<path d="M190.522 10.8064H172.039V29.1935H190.522V10.8064Z" fill="#31373D"/>
</g>
</g>
</svg>
