<svg width="152" height="40" viewBox="0 0 152 40" fill="none" xmlns="http://www.w3.org/2000/svg">
<mask id="mask0_816_41598" style="mask-type:luminance" maskUnits="userSpaceOnUse" x="0" y="3" width="151" height="34">
<path d="M150.995 3H0.00195312V37H150.995V3Z" fill="white"/>
</mask>
<g mask="url(#mask0_816_41598)">
<path d="M26.3194 20.5405H16.7551C16.6408 20.5405 16.5483 20.6328 16.5483 20.7469V23.4295C16.5483 23.5434 16.6408 23.6359 16.7551 23.6359H25.4625C25.9087 22.678 26.2046 21.636 26.3194 20.5405Z" fill="#31373D"/>
<path d="M24.1661 25.699H16.7551C16.6408 25.699 16.5483 25.7913 16.5483 25.9052V28.7943C16.5483 29.0792 16.7802 29.3115 17.0652 29.2968C19.9278 29.1487 22.4661 27.7784 24.1661 25.699Z" fill="#31373D"/>
<path d="M26.3194 18.4772H16.7551C16.6408 18.4772 16.5483 18.3848 16.5483 18.2708V15.5882C16.5483 15.4743 16.6408 15.3818 16.7551 15.3818H25.4625C25.9087 16.3397 26.2046 17.3817 26.3194 18.4772Z" fill="#31373D"/>
<path d="M24.1661 13.3178C22.4661 11.2383 19.9278 9.86797 17.0652 9.7199C16.7802 9.70515 16.5483 9.93753 16.5483 10.2225V13.1114C16.5483 13.2254 16.6408 13.3178 16.7551 13.3178H24.1661Z" fill="#31373D"/>
<path fill-rule="evenodd" clip-rule="evenodd" d="M16.5492 32.9217C23.9744 32.9217 29.9938 26.9164 29.9938 19.5085C29.9938 12.1006 23.9744 6.09535 16.5492 6.09535C9.12392 6.09535 3.10455 12.1006 3.10455 19.5085C3.10455 26.9164 9.12392 32.9217 16.5492 32.9217ZM16.5492 36.017C25.688 36.017 33.0964 28.6259 33.0964 19.5085C33.0964 10.3911 25.688 3 16.5492 3C7.4104 3 0.00195312 10.3911 0.00195312 19.5085C0.00195312 28.6259 7.4104 36.017 16.5492 36.017Z" fill="#31373D"/>
<path d="M52.414 29.4837C51.0467 29.4837 49.7809 29.2349 48.6169 28.7372C47.4713 28.2394 46.4642 27.5481 45.5957 26.6633C44.7458 25.76 44.0806 24.7092 43.6002 23.511C43.1382 22.2943 42.9072 20.967 42.9072 19.5291C42.9072 18.0913 43.1382 16.7732 43.6002 15.5749C44.0806 14.3583 44.7458 13.3075 45.5957 12.4226C46.4642 11.5193 47.4713 10.8188 48.6169 10.3211C49.7809 9.82333 51.0467 9.57446 52.414 9.57446C53.7815 9.57446 55.0379 9.82333 56.1835 10.3211C57.3475 10.8188 58.3547 11.5193 59.2045 12.4226C60.0731 13.3259 60.7383 14.3859 61.2002 15.6026C61.6806 16.8008 61.9208 18.1096 61.9208 19.5291C61.9208 20.9486 61.6806 22.2667 61.2002 23.4833C60.7383 24.6816 60.0731 25.7323 59.2045 26.6356C58.3547 27.5389 57.3475 28.2394 56.1835 28.7372C55.0379 29.2349 53.7815 29.4837 52.414 29.4837ZM52.414 26.5803C53.3564 26.5803 54.2156 26.4052 54.9916 26.0549C55.7863 25.7047 56.47 25.2161 57.0427 24.5894C57.6155 23.9442 58.059 23.1975 58.3731 22.3496C58.7057 21.4831 58.872 20.543 58.872 19.5291C58.872 18.5152 58.7057 17.5842 58.3731 16.7363C58.059 15.8698 57.6155 15.1233 57.0427 14.4965C56.47 13.8513 55.7863 13.3535 54.9916 13.0033C54.2156 12.653 53.3564 12.4779 52.414 12.4779C51.4717 12.4779 50.6033 12.653 49.8086 13.0033C49.0326 13.3535 48.349 13.8421 47.7576 14.4688C47.1849 15.0957 46.7415 15.8422 46.4272 16.7086C46.1131 17.5566 45.9561 18.4968 45.9561 19.5291C45.9561 20.543 46.1131 21.4831 46.4272 22.3496C46.7415 23.216 47.1849 23.9626 47.7576 24.5894C48.349 25.2161 49.0326 25.7047 49.8086 26.0549C50.6033 26.4052 51.4717 26.5803 52.414 26.5803Z" fill="#31373D"/>
<path d="M64.3296 29.2073V14.6901H67.1845V17.6766L66.6856 18.0084C66.8704 17.3632 67.2307 16.7733 67.7665 16.2387C68.3023 15.6856 68.9398 15.2432 69.679 14.9114C70.418 14.5611 71.1756 14.386 71.9517 14.386C73.0603 14.386 73.9842 14.6072 74.7234 15.0496C75.4625 15.4737 76.0169 16.128 76.3863 17.013C76.7558 17.8978 76.9407 19.0131 76.9407 20.3588V29.2073H74.0859V20.5524C74.0859 19.7228 73.975 19.0407 73.7533 18.5062C73.5315 17.9531 73.1898 17.5567 72.7277 17.3171C72.2658 17.059 71.693 16.9485 71.0093 16.9852C70.455 16.9852 69.9469 17.0774 69.4849 17.2618C69.023 17.4278 68.6165 17.6674 68.2654 17.9807C67.9328 18.2941 67.6648 18.6628 67.4616 19.0868C67.2768 19.4924 67.1845 19.9348 67.1845 20.4141V29.2073H65.7709C65.5307 29.2073 65.2905 29.2073 65.0502 29.2073C64.8101 29.2073 64.5699 29.2073 64.3296 29.2073Z" fill="#31373D"/>
<path d="M86.668 29.2073V9.85107H94.2622C95.6481 9.85107 96.8954 10.0815 98.004 10.5424C99.1312 11.0032 100.092 11.6669 100.887 12.5333C101.681 13.3997 102.291 14.4228 102.716 15.6026C103.141 16.7824 103.353 18.0913 103.353 19.5292C103.353 20.9671 103.141 22.2852 102.716 23.4834C102.291 24.6632 101.681 25.6863 100.887 26.5527C100.111 27.4007 99.1589 28.0552 98.0317 28.516C96.9045 28.9769 95.6481 29.2073 94.2622 29.2073H86.668ZM89.6614 26.6356L89.5782 26.3315H94.1237C95.103 26.3315 95.9715 26.1748 96.7291 25.8615C97.5051 25.5481 98.1518 25.1056 98.6692 24.5341C99.205 23.9443 99.6115 23.2253 99.8887 22.3773C100.166 21.5294 100.304 20.5799 100.304 19.5292C100.304 18.4784 100.166 17.5383 99.8887 16.7087C99.6115 15.8607 99.205 15.1418 98.6692 14.5518C98.1334 13.962 97.4866 13.5103 96.7291 13.1969C95.9715 12.8835 95.103 12.7269 94.1237 12.7269H89.4951L89.6614 12.478V26.6356Z" fill="#31373D"/>
<path d="M113.169 29.4841C111.672 29.4841 110.341 29.1707 109.177 28.544C108.032 27.8988 107.126 27.0231 106.462 25.9171C105.814 24.811 105.491 23.539 105.491 22.1011C105.491 20.9581 105.676 19.9166 106.046 18.9765C106.414 18.0363 106.924 17.2252 107.57 16.5431C108.235 15.8426 109.02 15.308 109.925 14.9393C110.849 14.5521 111.847 14.3586 112.919 14.3586C113.862 14.3586 114.739 14.543 115.551 14.9116C116.366 15.2619 117.067 15.7504 117.658 16.3772C118.268 17.0039 118.73 17.7506 119.044 18.617C119.378 19.4649 119.535 20.3959 119.515 21.4098L119.488 22.6265H107.598L106.96 20.359H117.021L116.605 20.8292V20.1654C116.55 19.5571 116.347 19.0133 115.995 18.534C115.645 18.0548 115.201 17.6768 114.666 17.4003C114.13 17.1238 113.547 16.9855 112.919 16.9855C111.922 16.9855 111.081 17.1791 110.397 17.5662C109.714 17.9349 109.196 18.4879 108.845 19.2253C108.493 19.9442 108.319 20.8383 108.319 21.9076C108.319 22.9214 108.53 23.8063 108.956 24.5621C109.381 25.2995 109.982 25.8709 110.757 26.2765C111.533 26.6821 112.43 26.8849 113.447 26.8849C114.166 26.8849 114.832 26.765 115.441 26.5254C116.07 26.2857 116.744 25.8525 117.465 25.2258L118.905 27.2443C118.462 27.6867 117.917 28.0739 117.271 28.4057C116.643 28.7376 115.967 29.0048 115.247 29.2076C114.546 29.392 113.852 29.4841 113.169 29.4841Z" fill="#31373D"/>
<path d="M128.692 29.4838C127.343 29.4838 126.133 29.1521 125.061 28.4884C124.007 27.8247 123.166 26.9215 122.538 25.7786C121.928 24.6356 121.624 23.3544 121.624 21.9349C121.624 20.5155 121.928 19.2343 122.538 18.0914C123.166 16.9485 124.007 16.0451 125.061 15.3815C126.133 14.7178 127.343 14.386 128.692 14.386C129.985 14.386 131.159 14.6534 132.212 15.1879C133.283 15.7041 134.097 16.4138 134.651 17.3171L133.07 19.2527C132.775 18.8288 132.397 18.4416 131.934 18.0914C131.473 17.7411 130.983 17.4645 130.465 17.2618C129.949 17.059 129.45 16.9576 128.969 16.9576C128.082 16.9576 127.287 17.1788 126.586 17.6212C125.902 18.0452 125.357 18.6352 124.95 19.391C124.544 20.1468 124.34 20.9948 124.34 21.9349C124.34 22.8751 124.552 23.7231 124.977 24.4789C125.402 25.2163 125.966 25.8062 126.668 26.2486C127.37 26.691 128.147 26.9123 128.997 26.9123C129.496 26.9123 129.975 26.8293 130.438 26.6634C130.918 26.4975 131.38 26.2486 131.823 25.9168C132.267 25.585 132.683 25.1794 133.07 24.7001L134.651 26.6358C134.06 27.4653 133.209 28.1473 132.101 28.682C131.011 29.2166 129.874 29.4838 128.692 29.4838Z" fill="#31373D"/>
<path d="M139.329 24.6725L139.191 21.5755L146.148 14.6902H150L139.329 24.6725ZM136.724 29.2073V9.80981H139.579V29.2073H136.724ZM146.535 29.2073L141.048 22.8198L143.07 20.9671L150.194 29.2073H146.535Z" fill="#31373D"/>
</g>
</svg>
