<svg width="139" height="35" viewBox="0 0 139 35" fill="none" xmlns="http://www.w3.org/2000/svg">
<mask id="mask0_2003_9971" style="mask-type:luminance" maskUnits="userSpaceOnUse" x="0" y="0" width="139" height="35">
<path d="M138.922 0H0V34.1877H138.922V0Z" fill="white"/>
</mask>
<g mask="url(#mask0_2003_9971)">
<path d="M99.028 11.4486C96.9858 11.4486 95.5283 12.1412 94.8129 13.4527L94.4284 14.163V11.7905H91.1053V26.2112H94.6007V17.6318C94.6007 15.5821 95.7227 14.4061 97.6774 14.4061C99.5416 14.4061 100.61 15.5511 100.61 17.5464V26.2112H104.107V16.9275C104.107 13.494 102.209 11.4486 99.028 11.4486ZM82.0769 11.4486C77.9523 11.4486 75.3979 14.0038 75.3979 18.1167V20.1414C75.3979 24.0966 77.982 26.5531 82.1422 26.5531C84.9251 26.5531 86.8753 25.5407 88.1028 23.4585L85.9358 22.2207C85.029 23.4217 83.5804 24.1658 82.1437 24.1658C80.0375 24.1658 78.7805 22.8749 78.7805 20.7117V20.1385H88.5362V17.7468C88.5362 13.9154 86.0027 11.4486 82.0798 11.4486H82.0769ZM85.3555 17.8072H78.7686V17.4609C78.7686 15.0869 79.9426 13.7769 82.0739 13.7769C84.1266 13.7769 85.3525 15.0678 85.3525 17.231L85.3555 17.8072ZM138.819 9.41651V6.65791H126.729V9.41651H130.968V23.4467H126.729V26.2053H138.819V23.4467H134.579V9.41651H138.819ZM47.146 6.26001C41.7464 6.26001 38.3892 9.60071 38.3892 14.9808V17.8897C38.3892 23.2684 41.745 26.6105 47.146 26.6105C52.5471 26.6105 55.9029 23.2684 55.9029 17.8897V14.9808C55.9013 9.59481 52.5411 6.26001 47.146 6.26001ZM52.2903 18.0887C52.2903 21.6607 50.4158 23.709 47.146 23.709C43.8764 23.709 42.0033 21.6607 42.0033 18.0887V14.7804C42.0033 11.2084 43.8793 9.16011 47.1475 9.16011C50.4158 9.16011 52.2918 11.2084 52.2918 14.7804L52.2903 18.0887ZM66.8816 11.4486C65.0471 11.4486 63.4589 12.2031 62.6308 13.466L62.2552 14.0407V11.7905H58.9307V31.1728H62.4275V24.1526L62.8014 24.7037C63.5881 25.8619 65.1242 26.5531 66.9113 26.5531C69.9256 26.5531 72.9668 24.5976 72.9668 20.2269V17.7748C72.9668 14.6257 71.0923 11.4486 66.8816 11.4486ZM69.4701 20.0574C69.4701 22.3813 68.1045 23.8254 65.9079 23.8254C63.8597 23.8254 62.4304 22.2988 62.4304 20.1149V17.9457C62.4304 15.7353 63.8716 14.1792 65.9376 14.1792C68.1179 14.1792 69.473 15.6218 69.473 17.9457L69.4701 20.0574ZM113.769 6.65941L106.715 26.2112H110.266L111.617 22.0203H119.727L119.74 22.0615L121.075 26.2112H124.626L117.56 6.65791L113.769 6.65941ZM112.484 19.2631L115.666 9.37821L118.815 19.2631H112.484Z" fill="#31373D"/>
<path d="M31.5513 14.017C31.9341 12.8763 32.0668 11.6677 31.9409 10.4719C31.815 9.2762 31.4332 8.121 30.8211 7.0836C29.9124 5.51584 28.5262 4.27469 26.8619 3.5388C25.1976 2.80291 23.3412 2.61023 21.5596 2.98849C20.7561 2.08876 19.7683 1.36984 18.6622 0.879859C17.5562 0.389879 16.3574 0.140139 15.1464 0.147369C13.3241 0.143249 11.5477 0.71391 10.0734 1.77703C8.59904 2.84014 7.5029 4.34076 6.94311 6.0624C5.75681 6.304 4.63616 6.7944 3.65609 7.5006C2.67603 8.2068 1.85913 9.1127 1.26006 10.1576C0.346635 11.7228 -0.0430424 13.5354 0.147123 15.3345C0.337289 17.1336 1.09749 18.8264 2.3183 20.1693C1.93708 21.3089 1.80503 22.5162 1.93095 23.7105C2.05687 24.9048 2.43787 26.0587 3.04854 27.0952C3.95631 28.6661 5.34317 29.91 7.00907 30.6476C8.67497 31.3852 10.5338 31.5784 12.3174 31.1992C13.1203 32.0979 14.1069 32.8161 15.2116 33.3061C16.3162 33.796 17.5135 34.0463 18.7233 34.0404C20.5454 34.0445 22.3218 33.4738 23.7962 32.4107C25.2706 31.3476 26.3667 29.847 26.9265 28.1253C28.1126 27.8836 29.233 27.3932 30.2128 26.687C31.1926 25.9808 32.0092 25.0749 32.6081 24.0301C33.5238 22.4654 33.915 20.6522 33.7251 18.8524C33.5351 17.0525 32.7739 15.3592 31.5513 14.017ZM18.7233 31.8299C17.2268 31.8312 15.7777 31.3096 14.6299 30.3563C14.6803 30.3283 14.7782 30.2797 14.8346 30.2429L21.6323 26.3466C21.8029 26.2505 21.9445 26.1109 22.0426 25.9422C22.1407 25.7736 22.1917 25.5821 22.1904 25.3873V15.8708L25.0624 17.5168C25.0779 17.5241 25.0912 17.5353 25.1011 17.5492C25.111 17.5631 25.1171 17.5794 25.1188 17.5964V25.4728C25.1188 27.1575 24.4452 28.7734 23.246 29.9654C22.0468 31.1574 20.4201 31.828 18.7233 31.8299ZM4.98098 26.0033C4.23162 24.7175 3.96108 23.2112 4.21661 21.7475C4.26707 21.7785 4.35613 21.8315 4.41846 21.8669L11.2176 25.7646C11.3869 25.863 11.5796 25.9149 11.7757 25.9149C11.9719 25.9149 12.1645 25.863 12.3338 25.7646L20.629 21.0019V24.2939C20.6305 24.3108 20.6277 24.3279 20.6207 24.3433C20.6136 24.3588 20.6027 24.3723 20.5889 24.3823L13.717 28.3198C12.2477 29.1598 10.5028 29.3868 8.86508 28.9512C7.22735 28.5155 5.83052 27.4527 4.98098 25.9959V26.0033ZM3.19993 11.2672C3.94578 9.9795 5.12434 8.9935 6.52901 8.4821V16.5044C6.52801 16.6991 6.57917 16.8905 6.67723 17.0591C6.77529 17.2277 6.91674 17.3673 7.08708 17.4637L15.3838 22.2205L12.5015 23.8725C12.4875 23.8819 12.4712 23.8876 12.4543 23.8891C12.4375 23.8907 12.4206 23.888 12.405 23.8813L5.53459 19.9423C4.06659 19.0991 2.9956 17.712 2.55676 16.0855C2.11792 14.459 2.3471 12.7261 3.19399 11.2672H3.19993ZM26.7989 16.7196L18.5021 11.9628L21.3711 10.3153C21.3852 10.306 21.4014 10.3003 21.4183 10.2988C21.4351 10.2973 21.452 10.2999 21.4676 10.3064L28.338 14.2454C29.3903 14.8491 30.2476 15.7379 30.8096 16.8078C31.3715 17.8777 31.615 19.0844 31.5112 20.2866C31.4075 21.4889 30.961 22.6369 30.224 23.5964C29.487 24.5558 28.4899 25.2869 27.3495 25.7042V17.6833C27.3517 17.4882 27.3015 17.2959 27.2039 17.1265C27.1063 16.9571 26.965 16.8166 26.7945 16.7196H26.7989ZM29.6589 12.4461C29.6085 12.4152 29.5194 12.3621 29.4571 12.3267L22.6579 8.429C22.4886 8.3306 22.296 8.2787 22.0998 8.2787C21.9037 8.2787 21.711 8.3306 21.5418 8.429L13.2451 13.1844V9.8938C13.2445 9.8769 13.2479 9.86 13.2551 9.8447C13.2624 9.8293 13.2732 9.8158 13.2866 9.8054L20.157 5.86792C21.2098 5.26543 22.4135 4.97309 23.6274 5.02509C24.8414 5.0771 26.0153 5.4713 27.0118 6.1616C28.0083 6.8518 28.7863 7.8096 29.2545 8.9228C29.7228 10.036 29.8621 11.2587 29.656 12.4476L29.6589 12.4461ZM11.6792 18.317L8.80579 16.6709C8.79103 16.6628 8.77838 16.6514 8.76884 16.6376C8.75931 16.6238 8.75316 16.608 8.75087 16.5914V8.7149C8.74995 7.5077 9.09564 6.3253 9.74749 5.30619C10.3992 4.2871 11.3301 3.47361 12.431 2.96106C13.5318 2.44851 14.7571 2.25816 15.963 2.4123C17.1689 2.56645 18.3056 3.05871 19.2398 3.83139C19.1893 3.85939 19.0988 3.90802 19.0349 3.94486L12.2373 7.8411C12.067 7.9375 11.9255 8.0771 11.8274 8.2457C11.7293 8.4143 11.6782 8.6057 11.6792 8.8004V18.317ZM13.2391 14.9763L16.9348 12.8572L20.629 14.9763V19.2114L16.9333 21.3305L13.2376 19.2114L13.2391 14.9763Z" fill="#31373D"/>
</g>
</svg>
