<svg width="126" height="33" viewBox="0 0 126 33" fill="none" xmlns="http://www.w3.org/2000/svg">
<mask id="mask0_2003_11522" style="mask-type:luminance" maskUnits="userSpaceOnUse" x="0" y="0" width="126" height="33">
<path d="M125.073 0H0V32.3307H125.073V0Z" fill="white"/>
</mask>
<g mask="url(#mask0_2003_11522)">
<path d="M31.5885 12.253C31.5871 15.4701 30.3683 18.5592 28.1924 20.8607C26.0165 23.1622 23.0559 24.4938 19.9427 24.571V11.4941H7.8042C8.01073 8.3113 9.4044 5.33534 11.6919 3.19265C13.9794 1.04994 16.9823 -0.0924704 20.0685 0.00585962C23.1549 0.10419 26.0838 1.43558 28.2391 3.71983C30.3945 6.00407 31.5722 9.0631 31.5885 12.253Z" fill="#555E67"/>
<path d="M19.9404 11.4941V24.5711H19.7344C18.169 24.5711 16.619 24.2524 15.1728 23.6333C13.7267 23.0141 12.4129 22.1066 11.3064 20.9627C10.1999 19.8187 9.32247 18.4607 8.7242 16.9662C8.126 15.4718 7.81868 13.8702 7.81983 12.253C7.81983 12.0032 7.81983 11.744 7.81983 11.4941H19.9404Z" fill="#F7F7F7"/>
<path d="M19.9412 24.5711V32.0305H0V11.4941H7.80271C7.80271 11.744 7.80271 12.0032 7.80271 12.253C7.80151 13.8702 8.10883 15.4718 8.70704 16.9662C9.30531 18.4607 10.1827 19.8187 11.2892 20.9627C12.3957 22.1066 13.7095 23.0141 15.1557 23.6333C16.6018 24.2524 18.1519 24.5711 19.7172 24.5711H19.9412Z" fill="#31373D"/>
<path d="M45.8579 8.21094H55.8851C61.0277 8.21094 64.2415 10.5219 64.2415 15.3562C64.2415 20.1905 61.0277 22.7405 55.6798 22.7405H50.2354V30.4037H45.8579V8.21094ZM55.4484 18.8358C58.2703 18.8358 59.8322 17.9526 59.8322 15.5156C59.8322 12.9988 58.2381 12.1156 55.5959 12.1156H50.2674V18.8026L55.4484 18.8358Z" fill="#31373D"/>
<path d="M63.9688 26.4193C63.9688 24.0818 65.4728 22.6807 68.179 21.9236L75.1018 19.9846L75.2815 19.9315C75.2815 19.9315 75.2815 19.792 75.2815 19.7323C75.2815 17.8463 74.1893 16.9963 72.2481 16.9963C70.3069 16.9963 68.7445 18.0588 67.8382 20.6752L64.2773 19.3072C65.6849 15.3893 68.6611 13.8687 72.4279 13.8687C77.1331 13.8687 79.6336 16.3256 79.6336 19.6393V25.3236C79.6336 26.5123 80.0125 27.1498 80.9833 27.1498C81.4972 27.1378 82.0017 27.0013 82.4556 26.7513V30.0716C81.4539 30.484 80.3898 30.7089 79.312 30.7356C77.1009 30.7356 75.3973 29.4939 75.3973 27.09V26.7579H75.2815C74.7448 27.9862 73.8693 29.0241 72.7656 29.742C71.6612 30.46 70.3766 30.8263 69.0728 30.7954C65.6786 30.7423 63.9688 28.5177 63.9688 26.4193ZM70.3579 27.3291C71.518 27.2835 72.6379 26.8786 73.5723 26.167C74.1153 25.7618 74.5572 25.2289 74.861 24.6122C75.1654 23.9956 75.3228 23.3129 75.3201 22.6209C75.3201 22.5811 75.3201 22.3486 75.3201 22.3486L75.0632 22.435L70.1911 24.1681C69.0728 24.5666 68.3078 24.872 68.3078 25.7486C68.2947 26.5123 68.9117 27.3291 70.3579 27.3291Z" fill="#31373D"/>
<path d="M84.1958 8.21094H88.5989V30.4037H84.1895L84.1958 8.21094Z" fill="#31373D"/>
<path d="M91.0884 8.21094H95.5045V30.4037H91.0884V8.21094Z" fill="#31373D"/>
<path d="M105.311 30.7424C100.137 30.7424 96.9551 27.4222 96.9551 22.5082C96.9551 17.375 100.285 13.8157 105.433 13.8157C110.435 13.8157 113.757 17.0098 113.757 23.0593H101.306C101.512 25.5628 102.688 27.3691 105.575 27.3691C107.722 27.3691 109.541 26.3664 110.132 24.1218L113.719 25.2773C112.382 29.1222 109.104 30.7424 105.311 30.7424ZM109.226 20.35C108.77 18.1321 107.401 17.0961 105.433 17.0961C104.497 17.0243 103.568 17.3191 102.832 17.9219C102.097 18.5248 101.607 19.3915 101.461 20.35H109.226Z" fill="#31373D"/>
<path d="M122.274 27.3619C120.481 27.3619 119.889 26.7842 119.889 24.7456V17.4609H124.594V14.207H113.024V17.4609H115.524V26.5186C115.524 29.1748 116.81 30.7088 120.589 30.7088C121.994 30.7246 123.395 30.5821 124.768 30.2838V27.0963C123.945 27.2565 123.11 27.3454 122.274 27.3619Z" fill="#31373D"/>
<path d="M115.473 8.21094C115.652 9.35954 116.177 10.4205 116.974 11.2431C117.77 12.0657 118.796 12.608 119.909 12.7929V8.21094H115.473Z" fill="#31373D"/>
</g>
</svg>
