<svg width="157" height="40" viewBox="0 0 157 40" fill="none" xmlns="http://www.w3.org/2000/svg">
<mask id="mask0_2003_1793" style="mask-type:luminance" maskUnits="userSpaceOnUse" x="0" y="0" width="157" height="40">
<path d="M156.994 0H0V40H156.994V0Z" fill="white"/>
</mask>
<g mask="url(#mask0_2003_1793)">
<path d="M56.7512 25.1902C56.7512 28.7091 53.0533 29.4578 50.1884 29.4578C47.693 29.4578 45.1022 28.3444 44.1787 27.9056C43.9621 27.8035 43.8264 27.5872 43.8264 27.3489V23.5894C43.8264 23.2879 44.1701 23.1117 44.416 23.2879C47.2894 25.364 51.6515 25.8478 51.6515 24.6785C51.6515 23.4204 43.6845 23.7316 43.6845 18.1962C43.6845 15.1696 46.3879 13.587 50.0038 13.587C54.98 13.587 56.268 16.9065 56.3793 19.4956C56.3879 19.7046 56.2179 19.8784 56.0063 19.8784H51.4264C51.2209 19.8784 51.0533 19.7131 51.0533 19.5077V19.3704C51.0533 18.4405 50.7365 17.9397 50.0147 17.9397C49.3517 17.9397 48.9763 18.4952 48.9763 18.9717C48.9763 21.8184 56.7524 20.2078 56.7524 25.189L56.7512 25.1902ZM35.03 18.9729C35.03 18.4964 35.4068 17.9409 36.0686 17.9409C36.7902 17.9409 37.1071 18.4417 37.1071 19.3716V19.5089C37.1071 19.7131 37.2735 19.8797 37.4802 19.8797H42.06C42.2704 19.8797 42.4417 19.7058 42.4332 19.4968C42.3218 16.909 41.0337 13.5882 36.0576 13.5882C32.4416 13.5882 29.7383 15.1708 29.7383 18.1974C29.7383 23.7328 37.7052 23.4216 37.7052 24.6797C37.7052 25.849 33.3444 25.3652 30.4697 23.2891C30.2251 23.1117 29.8802 23.2891 29.8802 23.5906V27.3501C29.8802 27.5884 30.0172 27.8047 30.2324 27.9068C31.156 28.3456 33.7469 29.459 36.2423 29.459C39.1083 29.459 42.805 28.7115 42.805 25.1914C42.805 20.2103 35.0288 21.8208 35.0288 18.9741L35.03 18.9729ZM61.0986 6.62947C58.8723 6.62947 57.4191 7.77569 57.4191 9.6731C57.4191 11.5705 58.8735 12.7167 61.0986 12.7167C63.3237 12.7167 64.7781 11.5705 64.7781 9.6731C64.7781 7.77569 63.3237 6.62947 61.0986 6.62947ZM13.9866 21.5182C13.9866 26.7047 12.4526 29.4578 9.34313 29.4578C7.86789 29.4578 6.54069 28.8391 5.72233 26.8785L6.11621 32.9767C6.12969 33.1906 5.95965 33.3705 5.74435 33.3705H0.373089C0.167581 33.3705 0 33.2052 0 32.9998V14.4026C0 14.1984 0.166363 14.0319 0.373089 14.0319H3.97677C4.16148 14.0319 4.31805 14.1656 4.34496 14.3467L4.70948 16.8834C5.52417 14.7758 7.00674 13.587 9.14005 13.587C12.3719 13.587 13.9866 16.3316 13.9866 21.5182ZM8.46487 21.523C8.46487 19.5345 8.13337 17.9409 7.0312 17.9409C5.92906 17.9409 5.59757 19.5345 5.59757 21.523C5.59757 23.5116 5.92906 25.1246 7.0312 25.1246C8.13337 25.1246 8.46487 23.5116 8.46487 21.523ZM28.4024 19.9793V28.6288C28.4024 28.833 28.2361 28.9996 28.0294 28.9996H24.4257C24.241 28.9996 24.0844 28.8659 24.0575 28.6848L23.7591 26.7339C22.816 28.3979 21.0716 29.459 19.2453 29.459C16.5358 29.459 14.9724 28.1159 14.9724 25.161C14.9724 20.6758 19.3138 19.9246 23.0961 19.9963C22.7572 18.9923 22.066 18.4782 20.6569 18.4782C18.7401 18.4782 16.8477 19.6293 15.9205 20.2893C15.6734 20.4643 15.3321 20.2893 15.3321 19.9878V16.458C15.3321 16.2648 15.4239 16.0824 15.5792 15.9657C16.3731 15.3665 19.0043 13.5894 22.2924 13.5894C26.2483 13.5894 28.4038 16.3425 28.4038 19.9805L28.4024 19.9793ZM23.3113 23.2806C23.3151 21.9023 23.2306 21.0441 23.2306 21.0441C22.5199 21.0307 21.1524 21.7831 21.1474 23.4581C21.1438 24.4986 21.496 25.2874 22.2679 25.302C23.0275 25.3166 23.3089 24.4281 23.3113 23.2806ZM63.7946 14.0331H58.3989C58.1934 14.0331 58.0258 14.1984 58.0258 14.4038L58.0356 28.6288C58.0356 28.833 58.202 28.9996 58.4087 28.9996H63.8044C64.0099 28.9996 64.1775 28.8343 64.1775 28.6288L64.1677 14.4038C64.1677 14.1996 64.0014 14.0331 63.7946 14.0331ZM78.9164 21.5182C78.9164 27.101 76.3377 29.4578 72.1799 29.4578C68.0222 29.4578 65.4436 27.101 65.4436 21.5182C65.4436 15.9354 68.0222 13.5785 72.1799 13.5785C76.3377 13.5785 78.9164 15.9354 78.9164 21.5182ZM73.5977 21.5182C73.5977 19.5296 73.2699 17.9409 72.1799 17.9409C71.09 17.9409 70.7622 19.5296 70.7622 21.5182C70.7622 23.5067 71.09 25.1197 72.1799 25.1197C73.2699 25.1197 73.5977 23.5067 73.5977 21.5182ZM130.423 21.5182C130.423 27.101 127.845 29.4578 123.687 29.4578C119.529 29.4578 116.951 27.101 116.951 21.5182C116.951 15.9354 119.529 13.5785 123.687 13.5785C127.845 13.5785 130.423 15.9354 130.423 21.5182ZM125.104 21.5182C125.104 19.5296 124.776 17.9409 123.686 17.9409C122.595 17.9409 122.267 19.5296 122.267 21.5182C122.267 23.5067 122.595 25.1197 123.686 25.1197C124.776 25.1197 125.104 23.5067 125.104 21.5182ZM156.62 17.9409C156.825 17.9409 156.993 17.7756 156.993 17.5702V14.4014C156.993 14.1972 156.827 14.0307 156.62 14.0307H152.565V10.2796C152.565 10.0754 152.399 9.9089 152.192 9.9089H148.908C148.722 9.9089 148.563 10.0462 148.54 10.2298C148.229 12.6 147.038 14.1984 145.457 14.5947C145.289 14.636 145.17 14.7831 145.17 14.9544V17.569C145.17 17.7732 145.337 17.9397 145.544 17.9397H146.408V25.1233C146.408 27.1484 147.839 29.4566 151.606 29.4566C154.577 29.4566 156.213 28.3517 156.771 27.8862C156.912 27.7683 156.992 27.5957 156.992 27.4133V24.3029C156.992 24.0075 156.662 23.8325 156.413 23.9941C155.863 24.3539 155.011 24.8146 154.257 24.8146C153.297 24.8146 152.564 24.4937 152.564 22.8905V17.9385H156.619L156.62 17.9409ZM144.813 21.5182C144.813 27.101 142.235 29.4578 138.077 29.4578C133.919 29.4578 131.341 27.101 131.341 21.5182C131.341 15.9354 133.919 13.5785 138.077 13.5785C142.235 13.5785 144.813 15.9354 144.813 21.5182ZM139.495 21.5182C139.495 19.5296 139.166 17.9409 138.076 17.9409C136.985 17.9409 136.657 19.5296 136.657 21.5182C136.657 23.5067 136.985 25.1197 138.076 25.1197C139.166 25.1197 139.495 23.5067 139.495 21.5182ZM89.9684 13.587C87.6736 13.587 85.8546 14.5934 84.9445 16.9005L84.5568 14.3479C84.5286 14.1668 84.3721 14.0331 84.1885 14.0331H80.5849C80.3794 14.0331 80.2117 14.1984 80.2117 14.4038V28.6288C80.2117 28.833 80.3781 28.9996 80.5849 28.9996H85.9843C86.1898 28.9996 86.3574 28.8343 86.3574 28.6288L86.3635 19.1893C86.3635 18.3104 86.9605 17.9409 87.479 17.9409C87.9977 17.9409 88.5836 18.2193 88.5836 19.1382V28.6276C88.5836 28.8318 88.75 28.9984 88.9568 28.9984H94.355C94.5605 28.9984 94.728 28.8331 94.728 28.6276V18.3785C94.728 15.4151 93.1586 13.587 89.9696 13.587H89.9684ZM117.791 14.7113L116.149 18.1172C116.049 18.3238 115.782 18.3955 115.595 18.2606C115.315 18.0576 115.068 17.9421 114.545 17.9409C113.77 17.9385 112.501 18.3785 112.501 20.0583V28.6288C112.501 28.833 112.334 28.9996 112.127 28.9996H106.729C106.524 28.9996 106.356 28.8343 106.356 28.6288V14.4026C106.356 14.1984 106.522 14.0319 106.729 14.0319H110.333C110.517 14.0319 110.674 14.1656 110.701 14.3467L111.102 16.8944C112 14.1765 113.577 13.587 115.294 13.587C116.528 13.587 117.299 13.976 117.662 14.2409C117.812 14.3503 117.873 14.5436 117.791 14.7113ZM111.389 20.2394C111.389 20.2394 111.38 20.2309 111.376 20.2273V20.2394H111.389ZM104.617 12.3144C104.863 12.4602 105.171 12.2803 105.171 11.9947V8.26432C105.171 8.02365 105.025 7.80486 104.805 7.70397C99.7755 5.38601 95.5452 7.0707 95.5452 10.3489C95.5452 12.9695 98.432 14.0319 98.432 14.0319H96.7503C96.5457 14.0331 96.3806 14.1984 96.3806 14.4026V28.6276C96.3806 28.8318 96.547 28.9984 96.7533 28.9984H102.149C102.354 28.9984 102.523 28.8331 102.523 28.6276V17.9397H104.801C105.006 17.9397 105.174 17.7744 105.174 17.569V14.4026C105.174 14.2008 105.008 14.0331 104.805 14.0331C103.479 14.0294 101.349 13.5518 101.349 12.3302C101.349 11.2168 103.122 11.4331 104.619 12.3144H104.617Z" fill="#31373D"/>
</g>
</svg>
