<svg width="81" height="40" viewBox="0 0 81 40" fill="none" xmlns="http://www.w3.org/2000/svg">
<mask id="mask0_2003_19080" style="mask-type:luminance" maskUnits="userSpaceOnUse" x="0" y="0" width="81" height="40">
<path d="M80.9877 0H0V40H80.9877V0Z" fill="white"/>
</mask>
<g mask="url(#mask0_2003_19080)">
<path d="M38.9902 29.2837L38.9703 29.3252C37.8195 31.5201 35.9939 32.5871 33.3864 32.5871C30.0091 32.5871 27.5573 30.2208 27.5573 26.9654C27.5573 23.8104 29.9351 21.5762 33.6128 21.2696L38.787 20.8344L38.8554 20.8289V19.5612C38.8554 17.7077 37.815 16.727 35.8459 16.727C33.8823 16.727 32.6508 17.7274 32.6144 19.3409H28.1835C28.3591 15.6491 31.3565 13.3592 36.0281 13.3592C40.5959 13.3592 43.2157 15.6448 43.2157 19.6332V28.7819H46.371V32.1518H39.2961L39.2596 29.359V29.2837H38.9902ZM38.8554 24.9341V24.1257L34.6543 24.4846C34.5571 24.4966 32.2908 24.7563 31.7596 25.7392C31.52 26.1811 31.4768 26.7385 31.6414 27.2698C31.7751 27.7062 32.1108 28.3215 32.9391 28.7535C33.3323 28.9957 33.8524 29.1441 34.4831 29.1964L34.5504 29.2052C34.5835 29.2106 34.6189 29.215 34.6554 29.2182L34.704 29.2128C34.8022 29.2161 34.8995 29.2182 35.0021 29.2182C37.2717 29.2182 38.8554 27.4564 38.8554 24.9341ZM11.1016 7.5347C11.1689 7.54234 11.2352 7.55216 11.2905 7.56307C13.2087 7.81289 14.9692 8.74347 16.2415 10.1791C19.0124 13.308 18.8567 18.0132 15.8848 20.9576C14.3916 22.4348 12.3628 23.2661 10.2467 23.2661C10.1705 23.2661 10.0976 23.2617 10.0236 23.2562C9.98169 23.2541 9.93968 23.2508 9.89777 23.2497H4.64405V32.1551H0V7.48779H10.2656L10.2843 7.48997C10.5493 7.48997 10.8155 7.50307 11.0817 7.53034L11.1016 7.5347ZM12.481 11.5352H4.64405V19.2896H12.481V11.5319V11.5352Z" fill="#31373D"/>
<path d="M20.4209 32.181H24.8849V7.41333H20.4209V32.181ZM48.5945 11.8731H53.0275V7.48751H48.5945V11.8731ZM72.22 32.1504V20.1064C72.22 15.6914 70.1283 13.359 66.169 13.359C63.6907 13.359 61.9004 14.3681 60.6956 16.442L60.5519 16.6874V13.7932H56.1211V32.1504H60.5541V21.5203C60.5541 18.7198 62.1688 16.9089 64.6659 16.9089C66.7654 16.9089 67.7869 18.0598 67.7869 20.4315V32.1515L72.22 32.1504ZM75.2395 32.1504H80.9869V26.4655H75.2395V32.1504ZM53.0165 32.181H48.5525V13.8401H53.0165V32.181Z" fill="#31373D"/>
</g>
</svg>
