<svg width="37" height="37" viewBox="0 0 37 37" fill="none" xmlns="http://www.w3.org/2000/svg">
<mask id="mask0_2003_7734" style="mask-type:luminance" maskUnits="userSpaceOnUse" x="0" y="0" width="37" height="37">
<path d="M36.8 0H0V36.8H36.8V0Z" fill="white"/>
</mask>
<g mask="url(#mask0_2003_7734)">
<path d="M31.3795 7.59466L20.117 2.21197C18.9224 1.635 17.5138 1.71307 16.3899 2.41936L4.76837 9.73768C3.64447 10.444 2.96399 11.6821 2.96976 13.0087L3.01258 25.4543C3.01847 26.9254 3.86215 28.266 5.18688 28.9077L16.4494 34.2905C17.644 34.8675 19.0525 34.7894 20.1764 34.0831L31.7979 26.7647C32.9218 26.0584 33.6023 24.8204 33.5965 23.4938L33.5748 16.8026L33.5561 11.0482C33.5504 9.57702 32.7065 8.23655 31.3843 7.59706L31.3795 7.59466Z" fill="white" stroke="#31373D" stroke-miterlimit="10"/>
<g opacity="0.8">
<mask id="path-3-inside-1_2003_7734" fill="white">
<path d="M15.4889 29.9151L7.45847 26.0758C6.63747 25.6779 6.10284 24.8292 6.09998 23.9145L6.06934 14.9283"/>
</mask>
<path d="M15.4889 29.9151L7.45847 26.0758C6.63747 25.6779 6.10284 24.8292 6.09998 23.9145L6.06934 14.9283" fill="white"/>
<path d="M7.45847 26.0758L7.02239 26.9757L7.02714 26.978L7.45847 26.0758ZM6.09998 23.9145L7.09998 23.9114L7.09998 23.9111L6.09998 23.9145ZM15.9202 29.0129L7.8898 25.1736L7.02714 26.978L15.0576 30.8173L15.9202 29.0129ZM7.89454 25.1759C7.4173 24.9446 7.10164 24.4438 7.09998 23.9114L5.09999 23.9176C5.10403 25.2146 5.85764 26.4113 7.0224 26.9757L7.89454 25.1759ZM7.09998 23.9111L7.06933 14.9249L5.06934 14.9318L5.09999 23.9179L7.09998 23.9111Z" fill="#31373D" mask="url(#path-3-inside-1_2003_7734)"/>
<path d="M15.4889 29.9151L7.45847 26.0758C6.63747 25.6779 6.10284 24.8292 6.09998 23.9145L6.06934 14.9283" stroke="#31373D" stroke-width="0.8" stroke-miterlimit="10"/>
<mask id="path-6-inside-2_2003_7734" fill="white">
<path d="M7.68555 13.7274L15.8179 17.2194C16.7795 17.642 17.4038 18.5268 17.4071 19.4806L17.4397 27.7514"/>
</mask>
<path d="M7.68555 13.7274L15.8179 17.2194C16.7795 17.642 17.4038 18.5268 17.4071 19.4806L17.4397 27.7514" fill="white"/>
<path d="M15.8179 17.2194L16.2202 16.3039L16.2125 16.3005L15.8179 17.2194ZM17.4071 19.4806L16.4071 19.484L16.4071 19.4845L17.4071 19.4806ZM7.29099 14.6463L15.4233 18.1383L16.2125 16.3005L8.0801 12.8085L7.29099 14.6463ZM15.4156 18.1349C16.0644 18.42 16.4053 18.9769 16.4071 19.484L18.4071 19.4771C18.4022 18.0767 17.4945 16.8639 16.2202 16.3039L15.4156 18.1349ZM16.4071 19.4845L16.4397 27.7554L18.4397 27.7475L18.4071 19.4766L16.4071 19.4845Z" fill="#31373D" mask="url(#path-6-inside-2_2003_7734)"/>
<path d="M9.15479 14.333L16.062 17.6742C16.8787 18.0786 17.409 18.9252 17.4118 19.8378L17.4394 27.7515" stroke="#31373D" stroke-width="0.8" stroke-miterlimit="10"/>
<mask id="path-9-inside-3_2003_7734" fill="white">
<path d="M6.08696 18.6423L6.07275 14.1777C6.07246 13.7772 6.35025 13.5581 6.47056 13.4814C6.59087 13.4069 6.91028 13.2492 7.27153 13.424L9.55938 14.5296"/>
</mask>
<path d="M6.08696 18.6423L6.07275 14.1777C6.07246 13.7772 6.35025 13.5581 6.47056 13.4814C6.59087 13.4069 6.91028 13.2492 7.27153 13.424L9.55938 14.5296" fill="white"/>
<path d="M6.07275 14.1777L5.07275 14.1784L5.07276 14.1809L6.07275 14.1777ZM6.47056 13.4814L5.94384 12.6313L5.9332 12.6381L6.47056 13.4814ZM7.27153 13.424L6.836 14.3241L6.83639 14.3243L7.27153 13.424ZM7.08695 18.6391L7.07275 14.1745L5.07276 14.1809L5.08696 18.6454L7.08695 18.6391ZM7.07275 14.177C7.07277 14.1951 7.0692 14.2202 7.0596 14.2471C7.05052 14.2725 7.03918 14.2909 7.03102 14.3019C7.02336 14.3123 7.01767 14.3174 7.01603 14.3189C7.01427 14.3204 7.01218 14.3221 7.00792 14.3248L5.9332 12.6381C5.71751 12.7755 5.07207 13.2571 5.07275 14.1784L7.07275 14.177ZM6.99724 14.3315C6.99367 14.3337 6.99181 14.3346 6.99006 14.3354C6.98852 14.336 6.98177 14.3388 6.96928 14.3412C6.95598 14.3438 6.93433 14.3462 6.90702 14.3433C6.8781 14.3403 6.85318 14.3324 6.836 14.3241L7.70705 12.5238C6.87322 12.1204 6.15541 12.5003 5.94388 12.6313L6.99724 14.3315ZM6.83639 14.3243L9.12424 15.43L9.99451 13.6293L7.70666 12.5236L6.83639 14.3243Z" fill="#31373D" mask="url(#path-9-inside-3_2003_7734)"/>
<path d="M6.08696 18.6423L6.07275 14.1777C6.07246 13.7772 6.35025 13.5581 6.47056 13.4814C6.59087 13.4069 6.91028 13.2492 7.27153 13.424L9.55938 14.5296" stroke="#31373D" stroke-width="0.8" stroke-miterlimit="10"/>
<mask id="path-12-inside-4_2003_7734" fill="white">
<path d="M17.4272 24.7031L17.4438 29.5945C17.4441 29.9927 17.1839 30.2008 17.0724 30.271C16.9607 30.3412 16.661 30.488 16.302 30.3132L11.2446 27.9006"/>
</mask>
<path d="M17.4272 24.7031L17.4438 29.5945C17.4441 29.9927 17.1839 30.2008 17.0724 30.271C16.9607 30.3412 16.661 30.488 16.302 30.3132L11.2446 27.9006" fill="white"/>
<path d="M17.4438 29.5945L18.4438 29.5938L18.4438 29.5911L17.4438 29.5945ZM17.0724 30.271L17.6044 31.1177L17.6049 31.1174L17.0724 30.271ZM16.302 30.3132L16.7397 29.4141L16.7326 29.4106L16.302 30.3132ZM16.4272 24.7065L16.4438 29.5979L18.4438 29.5911L18.4272 24.6997L16.4272 24.7065ZM16.4438 29.5952C16.4438 29.5835 16.4461 29.5621 16.455 29.5359C16.4636 29.5107 16.4752 29.49 16.4862 29.4747C16.5046 29.4489 16.5224 29.4356 16.5399 29.4246L17.6049 31.1174C17.843 30.9676 18.4445 30.4936 18.4438 29.5938L16.4438 29.5952ZM16.5404 29.4243C16.5537 29.4159 16.573 29.405 16.606 29.3992C16.6254 29.3958 16.6504 29.3941 16.6782 29.3974C16.7072 29.4009 16.7286 29.4087 16.7397 29.4141L15.8643 31.2123C16.6812 31.61 17.3729 31.2632 17.6044 31.1177L16.5404 29.4243ZM16.7326 29.4106L11.6752 26.9981L10.8141 28.8032L15.8714 31.2158L16.7326 29.4106Z" fill="#31373D" mask="url(#path-12-inside-4_2003_7734)"/>
<path d="M17.4272 24.7031L17.4438 29.5945C17.4441 29.9927 17.1839 30.2008 17.0724 30.271C16.9607 30.3412 16.661 30.488 16.302 30.3132L11.2446 27.9006" stroke="#31373D" stroke-width="0.8" stroke-miterlimit="10"/>
</g>
</g>
</svg>
